/* XPM */
static char * collectible6_xpm[] = {
"64 64 714 2",
"  	c #000000",
". 	c #1E1E1E",
"+ 	c #303131",
"@ 	c #484949",
"# 	c #484849",
"$ 	c #5C5653",
"% 	c #7D6B5E",
"& 	c #866A55",
"* 	c #79604D",
"= 	c #4A4B4B",
"- 	c #4B4B4C",
"; 	c #494A4B",
"> 	c #69574C",
", 	c #88664D",
"' 	c #886850",
") 	c #6C625C",
"! 	c #4A4A4A",
"~ 	c #494949",
"{ 	c #060707",
"] 	c #212326",
"^ 	c #3B3C3E",
"/ 	c #3D3F42",
"( 	c #26292E",
"_ 	c #262A2F",
": 	c #272B30",
"< 	c #262C31",
"[ 	c #2A2D32",
"} 	c #857166",
"| 	c #E6AC80",
"1 	c #FBAD64",
"2 	c #D08B49",
"3 	c #363C42",
"4 	c #3D4044",
"5 	c #3C3F43",
"6 	c #3C3F42",
"7 	c #3C3E42",
"8 	c #363D42",
"9 	c #A16F43",
"0 	c #FCA652",
"a 	c #FBA657",
"b 	c #AA7F65",
"c 	c #2E2E31",
"d 	c #26292F",
"e 	c #27292F",
"f 	c #292C31",
"g 	c #3D3F41",
"h 	c #313233",
"i 	c #222222",
"j 	c #38393C",
"k 	c #21242A",
"l 	c #3B3C40",
"m 	c #3F4045",
"n 	c #3F4145",
"o 	c #414245",
"p 	c #5C4844",
"q 	c #585557",
"r 	c #997360",
"s 	c #F39B58",
"t 	c #FBA35A",
"u 	c #B4784A",
"v 	c #3C4449",
"w 	c #45494C",
"x 	c #44484B",
"y 	c #44474A",
"z 	c #404549",
"A 	c #785742",
"B 	c #F8A25B",
"C 	c #FCA15A",
"D 	c #AB652F",
"E 	c #332D2E",
"F 	c #574644",
"G 	c #514444",
"H 	c #3D3E42",
"I 	c #46474A",
"J 	c #696A6B",
"K 	c #414242",
"L 	c #313132",
"M 	c #383A3D",
"N 	c #393B3F",
"O 	c #444549",
"P 	c #45464A",
"Q 	c #50494A",
"R 	c #3B373A",
"S 	c #824B25",
"T 	c #C3773F",
"U 	c #C27B44",
"V 	c #7A5239",
"W 	c #353D42",
"X 	c #394043",
"Y 	c #3B4144",
"Z 	c #3C4145",
"` 	c #3B4145",
" .	c #3A3F44",
"..	c #3C3637",
"+.	c #C07A47",
"@.	c #C47A46",
"#.	c #9E5C2B",
"$.	c #2E2425",
"%.	c #4E4849",
"&.	c #4C4749",
"*.	c #434448",
"=.	c #5B5C5F",
"-.	c #57585B",
";.	c #535354",
">.	c #020202",
",.	c #343434",
"'.	c #2A2C31",
").	c #595A5D",
"!.	c #626366",
"~.	c #46474B",
"{.	c #46484C",
"].	c #424447",
"^.	c #795841",
"/.	c #7E593E",
"(.	c #7F5B41",
"_.	c #7D5C44",
":.	c #7C5C45",
"<.	c #7D5D46",
"[.	c #7E5D47",
"}.	c #7F5D46",
"|.	c #7C5B43",
"1.	c #7D5B43",
"2.	c #7D5A42",
"3.	c #815A3F",
"4.	c #81593E",
"5.	c #825B40",
"6.	c #514744",
"7.	c #404347",
"8.	c #404246",
"9.	c #46484B",
"0.	c #535558",
"a.	c #707274",
"b.	c #5C5D60",
"c.	c #595A5C",
"d.	c #353535",
"e.	c #3F4144",
"f.	c #23262B",
"g.	c #828385",
"h.	c #999A9B",
"i.	c #47484C",
"j.	c #45474A",
"k.	c #44494D",
"l.	c #A4734E",
"m.	c #F0A75B",
"n.	c #F1AB62",
"o.	c #F1AD64",
"p.	c #F1AE66",
"q.	c #F1AE68",
"r.	c #F2AF6A",
"s.	c #EBAB67",
"t.	c #EBAC68",
"u.	c #F1AF6A",
"v.	c #F1AF69",
"w.	c #F1AF68",
"x.	c #F2AC62",
"y.	c #CF8F51",
"z.	c #45494D",
"A.	c #414346",
"B.	c #444448",
"C.	c #5B5C5E",
"D.	c #626466",
"E.	c #56585B",
"F.	c #47494D",
"G.	c #4D4E50",
"H.	c #222427",
"I.	c #1F2228",
"J.	c #2E3035",
"K.	c #5F6064",
"L.	c #9B9C9D",
"M.	c #8E8F91",
"N.	c #646669",
"O.	c #44484C",
"P.	c #6A5951",
"Q.	c #EDA155",
"R.	c #FEB76A",
"S.	c #FEB86D",
"T.	c #FEB46C",
"U.	c #FEB66F",
"V.	c #FEB772",
"W.	c #FDB774",
"X.	c #ECB076",
"Y.	c #EBB077",
"Z.	c #FDB976",
"`.	c #FEB875",
" +	c #FEB872",
".+	c #FEB670",
"++	c #FDB870",
"@+	c #FDBA6E",
"#+	c #F7B063",
"$+	c #9C7352",
"%+	c #515558",
"&+	c #6A6B6D",
"*+	c #505050",
"=+	c #545557",
"-+	c #434549",
";+	c #424448",
">+	c #48494D",
",+	c #333538",
"'+	c #212427",
")+	c #333539",
"!+	c #45474B",
"~+	c #5F6164",
"{+	c #A7A7A8",
"]+	c #A8A9A9",
"^+	c #6E7072",
"/+	c #4D4C4E",
"(+	c #C08451",
"_+	c #FCB367",
":+	c #FEB96F",
"<+	c #FCAD66",
"[+	c #FDA05E",
"}+	c #F7A560",
"|+	c #F6A462",
"1+	c #F5A564",
"2+	c #F1A466",
"3+	c #F0A466",
"4+	c #F5A666",
"5+	c #F6A665",
"6+	c #FCA461",
"7+	c #FCA968",
"8+	c #FEBA72",
"9+	c #FCB96E",
"0+	c #DDA167",
"a+	c #89817D",
"b+	c #646668",
"c+	c #4E5051",
"d+	c #454649",
"e+	c #3B3D41",
"f+	c #424347",
"g+	c #3E3E3F",
"h+	c #202226",
"i+	c #47494B",
"j+	c #48494C",
"k+	c #434649",
"l+	c #846652",
"m+	c #EEA65D",
"n+	c #FDB66E",
"o+	c #FD9F5E",
"p+	c #E6965F",
"q+	c #769FB9",
"r+	c #81B8CB",
"s+	c #81B8CC",
"t+	c #82B9CD",
"u+	c #81B9CD",
"v+	c #7CB8CD",
"w+	c #71B2CD",
"x+	c #6CA8C6",
"y+	c #BF927F",
"z+	c #FD9B59",
"A+	c #FCB470",
"B+	c #FAC084",
"C+	c #F6C188",
"D+	c #AA886B",
"E+	c #4A4B4D",
"F+	c #3E3F43",
"G+	c #414246",
"H+	c #444449",
"I+	c #44464A",
"J+	c #242628",
"K+	c #595A5B",
"L+	c #4B4C4E",
"M+	c #45464B",
"N+	c #524F4F",
"O+	c #CA8C55",
"P+	c #FEB668",
"Q+	c #FEBA71",
"R+	c #FCAA65",
"S+	c #FB924B",
"T+	c #9091A0",
"U+	c #14B4DF",
"V+	c #17B6E1",
"W+	c #1AB8E3",
"X+	c #19B9E4",
"Y+	c #1BBAE5",
"Z+	c #16B9E5",
"`+	c #10B9E5",
" @	c #0FB8E4",
".@	c #549FC4",
"+@	c #EA945D",
"@@	c #FC9D5B",
"#@	c #F9C188",
"$@	c #FBBF7F",
"%@	c #E9A45C",
"&@	c #6B5D55",
"*@	c #535456",
"=@	c #17191C",
"-@	c #4A4A4B",
";@	c #646466",
">@	c #614C48",
",@	c #4E4647",
"'@	c #42464B",
")@	c #936D54",
"!@	c #F9AD5E",
"~@	c #FEBA6F",
"{@	c #FDB66F",
"]@	c #FD904B",
"^@	c #D08B70",
"/@	c #44AED4",
"(@	c #42C4E4",
"_@	c #0AB8E4",
":@	c #16C0EA",
"<@	c #0CBAE6",
"[@	c #17C0EA",
"}@	c #0DBBE7",
"|@	c #10BEE9",
"1@	c #1FBEE7",
"2@	c #20B3DE",
"3@	c #A79197",
"4@	c #F98D4D",
"5@	c #FBA966",
"6@	c #FEBF78",
"7@	c #FEB96C",
"8@	c #C18955",
"9@	c #434A4F",
"0@	c #604A46",
"a@	c #424348",
"b@	c #616264",
"c@	c #575758",
"d@	c #494B4E",
"e@	c #504747",
"f@	c #424042",
"g@	c #2F353B",
"h@	c #B27A4D",
"i@	c #FDBD74",
"j@	c #FC9A51",
"k@	c #F1864D",
"l@	c #8898AE",
"m@	c #30B9E0",
"n@	c #47C7E6",
"o@	c #11C4EE",
"p@	c #0DCFF9",
"q@	c #04C1ED",
"r@	c #00CCF7",
"s@	c #51D0EF",
"t@	c #6DDCF4",
"u@	c #29C2E8",
"v@	c #08B2DF",
"w@	c #51A4C7",
"x@	c #E08A67",
"y@	c #FC8E51",
"z@	c #FCB873",
"A@	c #FEBD73",
"B@	c #E09B55",
"C@	c #374147",
"D@	c #3B3E41",
"E@	c #4F4646",
"F@	c #868688",
"G@	c #252628",
"H@	c #151617",
"I@	c #414347",
"J@	c #4B2F22",
"K@	c #6D4025",
"L@	c #675247",
"M@	c #ECA65E",
"N@	c #FDB86E",
"O@	c #FC9554",
"P@	c #E4855D",
"Q@	c #589FC4",
"R@	c #24B6DF",
"S@	c #45C6E7",
"T@	c #55CEED",
"U@	c #6FDFF5",
"V@	c #1CC3EE",
"W@	c #2DD1F7",
"X@	c #55CFEC",
"Y@	c #72DBF1",
"Z@	c #27C1E7",
"`@	c #14B7E1",
" #	c #24BBE2",
".#	c #C08780",
"+#	c #FB8A4E",
"@#	c #FCAE6A",
"##	c #FBB76D",
"$#	c #9B6D4B",
"%#	c #634233",
"&#	c #583119",
"*#	c #35373A",
"=#	c #4B4C50",
"-#	c #4C4C4D",
";#	c #080808",
">#	c #191918",
",#	c #444648",
"'#	c #5C453D",
")#	c #C17336",
"!#	c #D7864A",
"~#	c #694532",
"{#	c #A97A52",
"]#	c #FAB76F",
"^#	c #FBAE68",
"/#	c #F98846",
"(#	c #B38A8D",
"_#	c #33B2DB",
":#	c #41C4E6",
"<#	c #5BD0ED",
"[#	c #77E3F6",
"}#	c #4CC9EA",
"|#	c #6CDEF4",
"1#	c #5AD2ED",
"2#	c #74DEF3",
"3#	c #3BC3E5",
"4#	c #18B4DF",
"5#	c #7E99B6",
"6#	c #EE8251",
"7#	c #FC9E5D",
"8#	c #FEBD78",
"9#	c #D2955B",
"0#	c #5A4943",
"a#	c #BE7643",
"b#	c #D38446",
"c#	c #805135",
"d#	c #636467",
"e#	c #141618",
"f#	c #00000E",
"g#	c #D49764",
"h#	c #FAA25A",
"i#	c #FCA664",
"j#	c #AF6E41",
"k#	c #625047",
"l#	c #DEA062",
"m#	c #FDBD7A",
"n#	c #FDA35F",
"o#	c #F58144",
"p#	c #7C93AE",
"q#	c #5AD0ED",
"r#	c #78E5F8",
"s#	c #51CAEB",
"t#	c #73E1F5",
"u#	c #5BD3EE",
"v#	c #74DFF4",
"w#	c #33C8EC",
"x#	c #46A8D0",
"y#	c #D98062",
"z#	c #FC8E49",
"A#	c #FEBF7D",
"B#	c #F1B270",
"C#	c #8B6A52",
"D#	c #7D4F31",
"E#	c #F2A265",
"F#	c #FCAA62",
"G#	c #E49A52",
"H#	c #000001",
"I#	c #564841",
"J#	c #FBAD65",
"K#	c #E59C62",
"L#	c #958279",
"M#	c #54585C",
"N#	c #9E724F",
"O#	c #F7B875",
"P#	c #FDBC7B",
"Q#	c #FD904D",
"R#	c #E47F56",
"S#	c #6B9ABE",
"T#	c #67A7CC",
"U#	c #67A8CD",
"V#	c #5DA5CB",
"W#	c #5FA8CD",
"X#	c #65A9CF",
"Y#	c #65AACF",
"Z#	c #63A7CE",
"`#	c #B78282",
" $	c #FD813B",
".$	c #FDB474",
"+$	c #FCC281",
"@$	c #C8915E",
"#$	c #3F3B3C",
"$$	c #514540",
"%$	c #C98B58",
"&$	c #F9AB60",
"*$	c #D9AA78",
"=$	c #291E13",
"-$	c #BC9573",
";$	c #8E7B71",
">$	c #575A5C",
",$	c #3F4447",
"'$	c #464546",
")$	c #D5985E",
"!$	c #FEC381",
"~$	c #FCB270",
"{$	c #FC8340",
"]$	c #F27D40",
"^$	c #EE7C44",
"/$	c #EE7D45",
"($	c #DE7C4D",
"_$	c #DD7C4E",
":$	c #EC7E49",
"<$	c #ED7E4A",
"[$	c #EC7D4A",
"}$	c #FA7E3D",
"|$	c #FC9F60",
"1$	c #FDC688",
"2$	c #EFB06E",
"3$	c #775D4E",
"4$	c #353C40",
"5$	c #4F5357",
"6$	c #615755",
"7$	c #AB7B4C",
"8$	c #373433",
"9$	c #010202",
"0$	c #282B2D",
"a$	c #45484C",
"b$	c #4A4E52",
"c$	c #32383C",
"d$	c #7E6757",
"e$	c #F4B36F",
"f$	c #FEC586",
"g$	c #FBB473",
"h$	c #FAB06F",
"i$	c #FAB273",
"j$	c #FAB275",
"k$	c #F7B377",
"l$	c #FAB376",
"m$	c #FAB274",
"n$	c #FAB172",
"o$	c #FAB173",
"p$	c #FDC486",
"q$	c #FDC381",
"r$	c #B08057",
"s$	c #343B41",
"t$	c #4D5356",
"u$	c #4E5256",
"v$	c #4C4F53",
"w$	c #4B4D4F",
"x$	c #09090A",
"y$	c #4E4F51",
"z$	c #45484B",
"A$	c #4B4F52",
"B$	c #43484B",
"C$	c #413F40",
"D$	c #BC8C61",
"E$	c #FDC180",
"F$	c #FDBE78",
"G$	c #FDB469",
"H$	c #FDB66C",
"I$	c #FEB76E",
"J$	c #FEB870",
"K$	c #FDB86F",
"L$	c #FDB76F",
"M$	c #FDB66D",
"N$	c #FDB56B",
"O$	c #FEC98C",
"P$	c #E0A365",
"Q$	c #59534F",
"R$	c #53595B",
"S$	c #4B4E52",
"T$	c #484A4E",
"U$	c #1E1F21",
"V$	c #1F2124",
"W$	c #56575B",
"X$	c #474A4D",
"Y$	c #4F5557",
"Z$	c #32373A",
"`$	c #735D4E",
" %	c #E8AC6F",
".%	c #FDC88A",
"+%	c #FCC584",
"@%	c #FDCB8F",
"#%	c #FECD92",
"$%	c #FECE94",
"%%	c #FDCD93",
"&%	c #FDC88B",
"*%	c #FDC687",
"=%	c #F7BC7D",
"-%	c #A07C61",
";%	c #313235",
">%	c #52585B",
",%	c #4E5356",
"'%	c #434446",
")%	c #4F4F50",
"!%	c #43464A",
"~%	c #4D5456",
"{%	c #313539",
"]%	c #B2825A",
"^%	c #F9BF7E",
"/%	c #FDC786",
"(%	c #FDC585",
"_%	c #FEC98B",
":%	c #FDCA8D",
"<%	c #FDCB8E",
"[%	c #FECA8E",
"}%	c #FDC281",
"|%	c #D9A16E",
"1%	c #787372",
"2%	c #4E5457",
"3%	c #51575A",
"4%	c #484D50",
"5%	c #4B4C4C",
"6%	c #020305",
"7%	c #34363A",
"8%	c #49484B",
"9%	c #68564F",
"0%	c #6B4F40",
"a%	c #5F5450",
"b%	c #E3A261",
"c%	c #FEC481",
"d%	c #FEC687",
"e%	c #FEC787",
"f%	c #FDC17F",
"g%	c #F0BA81",
"h%	c #A18778",
"i%	c #6D5549",
"j%	c #725F54",
"k%	c #54504F",
"l%	c #484A4D",
"m%	c #27282B",
"n%	c #070707",
"o%	c #373A3D",
"p%	c #9F714D",
"q%	c #DC9459",
"r%	c #E59760",
"s%	c #81553B",
"t%	c #916B50",
"u%	c #F9B56F",
"v%	c #FEC37F",
"w%	c #FDC481",
"x%	c #FDC583",
"y%	c #FDC683",
"z%	c #FEC583",
"A%	c #FEC380",
"B%	c #FDC07D",
"C%	c #B79271",
"D%	c #664E46",
"E%	c #D8935C",
"F%	c #E7A163",
"G%	c #C88E56",
"H%	c #735D4A",
"I%	c #080809",
"J%	c #1A2125",
"K%	c #C99F78",
"L%	c #FCAE6E",
"M%	c #FBA566",
"N%	c #C17946",
"O%	c #57453D",
"P%	c #B47E53",
"Q%	c #D99553",
"R%	c #D99653",
"S%	c #D99655",
"T%	c #D99654",
"U%	c #CB8D54",
"V%	c #66554C",
"W%	c #A1653A",
"X%	c #F5A768",
"Y%	c #FEB06A",
"Z%	c #D99A5D",
"`%	c #45392E",
" &	c #010101",
".&	c #363939",
"+&	c #D48848",
"@&	c #B76B2E",
"#&	c #7C451D",
"$&	c #392D2B",
"%&	c #454749",
"&&	c #4F5052",
"*&	c #515154",
"=&	c #565759",
"-&	c #505153",
";&	c #343336",
">&	c #64381F",
",&	c #A76228",
"'&	c #E09558",
")&	c #B98E60",
"!&	c #000410",
"~&	c #3B4348",
"{&	c #30363C",
"]&	c #33393E",
"^&	c #5E4742",
"/&	c #404548",
"(&	c #424649",
"_&	c #43474A",
":&	c #4C5154",
"<&	c #4D5154",
"[&	c #42464A",
"}&	c #5D4B48",
"|&	c #483F3F",
"1&	c #2C343A",
"2&	c #686666",
"3&	c #252F36",
"4&	c #222223",
"5&	c #414548",
"6&	c #464A4D",
"7&	c #4D4646",
"8&	c #464245",
"9&	c #4A4B4F",
"0&	c #48494A",
"a&	c #171A1B",
"b&	c #0C0C0C",
"c&	c #4B4B4F",
"d&	c #2F3135",
"e&	c #47494C",
"f&	c #404145",
"g&	c #26282B",
"h&	c #131517",
"i&	c #3E3E41",
"j&	c #3A3B3F",
"k&	c #3F4044",
"l&	c #48484B",
"m&	c #2D2D2F",
"n&	c #0E0D0E",
"o&	c #3C3D41",
"p&	c #323337",
"q&	c #191A1C",
"r&	c #0A0B0C",
"s&	c #2C2E32",
"t&	c #23272C",
"u&	c #292C30",
"v&	c #282B30",
"w&	c #292B30",
"x&	c #272A2E",
"y&	c #25272A",
"z&	c #000101",
"A&	c #040507",
"B&	c #0F1317",
"C&	c #0F1217",
"D&	c #0E1216",
"E&	c #030406",
"                                                                                                                                ",
"                                                                                                                                ",
"                                                                                                                                ",
"                                                                                                                                ",
"                                                                                                                                ",
"                                                                                                                                ",
"                                                                                                                                ",
"                                                                                                                                ",
"                                                                                                                                ",
"                                                                                                                                ",
"                                                                                                                                ",
"                                                                                                                                ",
"                                                                                                                                ",
"                                                                                                                                ",
"                                                                                                                                ",
"                                                                                                                                ",
"                                    . + @ # # # @ $ % & * = - = = = ; > , ' ) ! # # # # ~ {                                     ",
"                                  ] ^ / ( _ : < [ } | 1 2 3 4 5 6 7 8 9 0 a b c _ d e e f g h                                   ",
"                                i j k l m n o p q r s t u v w w x y z A B C D E F G n n H I J K                                 ",
"                                L M N O O O P Q R S T U V W X Y Z `  ...+.@.#.$.%.&.O O *.=.-.;.>.                              ",
"                              ,.^ '.*.).!.~.~.{.].^./.(._.:.<.[.}.|.1.2.3.4.5.6.7.8.n 9.0.a.b.c.d.                              ",
"                              e.f.7 ~.g.h.i.j.k.l.m.n.o.p.q.r.s.t.u.v.w.p.o.x.y.z.A.B.C.D.E.F.i.G.                              ",
"                            H.I.J.P K.L.M.N.O.P.Q.R.S.T.U.V.W.X.Y.Z.`. +.+++@+#+$+%+&+*+=+-+;+*.>+,+                            ",
"                            '+)+n !+~+{+]+^+/+(+_+:+<+[+}+|+1+2+3+4+5+1+6+7+8+9+0+a+b+c+d+e+-+f+n g+                            ",
"                            h+i+j+P !+O k+x l+m+S.n+o+p+q+r+s+t+u+v+w+x+y+z+A+B+C+D+E+f+F+G+H+O I+J+                            ",
"                              K+L+j.M+P !+N+O+P+Q+R+S+T+U+V+W+X+Y+Z+`+ @.@+@@@#@$@%@&@4 5 *.G+9.*@=@                            ",
"                              -@;@9.>@,@'@)@!@~@{@]@^@/@(@_@:@<@[@}@|@1@2@3@4@5@6@7@8@9@y 0@a@P b@                              ",
"                              i c@d@e@f@g@h@P+i@j@k@l@m@n@o@p@q@r@s@t@u@v@w@x@y@z@A@B@C@D@E@f+F@G@                              ",
"                                H@G+I@J@K@L@M@N@O@P@Q@R@S@T@U@V@W@X@Y@Z@`@ #.#+#@###$#%#&#*#=#-#;#                              ",
"                                >#,#'#)#!#~#{#]#^#/#(#_#:#<#[#}#|#1#2#3#4#5#6#7#8#9#0#a#b#c#d#e#                                ",
"                                  f#g#h#i#j#k#l#m#n#o#p#U+q#r#s#t#u#v#w#x#y#z#A#B#C#D#E#F#G#k.H#                                ",
"                                    I#J#K#L#M#N#O#P#Q#R#S#T#U#V#W#X#Y#Z#`# $.$+$@$#$$$%$&$*$                                    ",
"                                    =$-$;$>$,$'$)$!$~${$]$^$/$($_$:$<$[$}$|$1$2$3$4$5$6$7$8$                                    ",
"                                    9$0$y a$b$c$d$e$f$g$h$i$j$k$k$l$m$n$o$p$q$r$s$t$u$v$w$x$                                    ",
"                                      i y$z$A$B$C$D$E$F$G$H$I$J$++K$L$M$N$O$P$Q$Y R$S$T$U$                                      ",
"                                        V$W$X$Y$Z$`$ %.%+%@%#%$%$%$%%%&%*%=%-%;%>%,%T$'%                                        ",
"                                          )%!%A$~%{%]%^%/%(%_%:%<%[%O$}%*%|%1%2%3%4%5%6%                                        ",
"                                          x$7%8%9%0%a%b%c%q$f$d%e%e%f%(%g%h%i%j%k%l%m%                                          ",
"                                          n%o%p%q%r%s%t%u%v%w%x%y%z%A%B%C%D%E%F%G%H%I%                                          ",
"                                            J%K%L%M%N%O%P%Q%R%S%S%T%T%U%V%W%X%Y%Z%`% &                                          ",
"                                              .&+&@&#&$&%&&&*&=+=&*@-&G.;&>&,&'&)&!&                                            ",
"                                                ~&{&]&^&/&(&_&:&<&a$!%[&}&|&1&2&3&                                              ",
"                                                4&{.-+E@!+z$5&6&6&5&5&5&7&8&9&0&a&                                              ",
"                                                b&0&c&f+G+I@d&y k+(&e&~.f&B.I@g&                                                ",
"                                                  h&i&P H n j&G+G+k&e.n *.l&m& &                                                ",
"                                                    n&d+*.I@f&f&f&o&H k&~.p&q&                                                  ",
"                                                      r&s&t&u&v&w&w&x&d&y&z&                                                    ",
"                                                        A&B&C&D&D&D&B&E&                                                        ",
"                                                                                                                                ",
"                                                                                                                                ",
"                                                                                                                                ",
"                                                                                                                                ",
"                                                                                                                                ",
"                                                                                                                                ",
"                                                                                                                                ",
"                                                                                                                                ",
"                                                                                                                                ",
"                                                                                                                                ",
"                                                                                                                                ",
"                                                                                                                                ",
"                                                                                                                                ",
"                                                                                                                                ",
"                                                                                                                                ",
"                                                                                                                                "};
