/* XPM */
static char * wall2_xpm[] = {
"64 64 228 2",
"  	c #000000",
". 	c #7D7D7D",
"+ 	c #717171",
"@ 	c #6F6F6F",
"# 	c #6B6B6B",
"$ 	c #7A7A7A",
"% 	c #5C5C5C",
"& 	c #494949",
"* 	c #626262",
"= 	c #5E5E5E",
"- 	c #3F3F3F",
"; 	c #474747",
"> 	c #434343",
", 	c #3E3E3E",
"' 	c #070707",
") 	c #1C1C1C",
"! 	c #050505",
"~ 	c #656565",
"{ 	c #555555",
"] 	c #383838",
"^ 	c #3C3C3C",
"/ 	c #858585",
"( 	c #767676",
"_ 	c #747474",
": 	c #2D2D2D",
"< 	c #010101",
"[ 	c #1F1F1F",
"} 	c #393939",
"| 	c #4C4C4C",
"1 	c #262626",
"2 	c #181818",
"3 	c #343434",
"4 	c #363636",
"5 	c #191919",
"6 	c #888888",
"7 	c #828282",
"8 	c #6C6C6C",
"9 	c #575757",
"0 	c #666666",
"a 	c #4B4B4B",
"b 	c #282828",
"c 	c #2F2F2F",
"d 	c #4D4D4D",
"e 	c #707070",
"f 	c #484848",
"g 	c #333333",
"h 	c #161616",
"i 	c #111111",
"j 	c #646464",
"k 	c #373737",
"l 	c #3A3A3A",
"m 	c #6A6A6A",
"n 	c #616161",
"o 	c #0C0C0C",
"p 	c #020202",
"q 	c #505050",
"r 	c #353535",
"s 	c #3B3B3B",
"t 	c #0E0E0E",
"u 	c #2E2E2E",
"v 	c #7B7B7B",
"w 	c #787878",
"x 	c #595959",
"y 	c #444444",
"z 	c #131313",
"A 	c #080808",
"B 	c #323232",
"C 	c #2A2A2A",
"D 	c #4A4A4A",
"E 	c #3D3D3D",
"F 	c #141414",
"G 	c #242424",
"H 	c #0D0D0D",
"I 	c #565656",
"J 	c #585858",
"K 	c #454545",
"L 	c #232323",
"M 	c #0A0A0A",
"N 	c #171717",
"O 	c #040404",
"P 	c #303030",
"Q 	c #030303",
"R 	c #151515",
"S 	c #121212",
"T 	c #090909",
"U 	c #202020",
"V 	c #0F0F0F",
"W 	c #2B2B2B",
"X 	c #212121",
"Y 	c #1A1A1A",
"Z 	c #2C2C2C",
"` 	c #4E4E4E",
" .	c #414141",
"..	c #686868",
"+.	c #545454",
"@.	c #5B5B5B",
"#.	c #6D6D6D",
"$.	c #060606",
"%.	c #5A5A5A",
"&.	c #8B8B8B",
"*.	c #AAAAAA",
"=.	c #B2B2B2",
"-.	c #9F9F9F",
";.	c #292929",
">.	c #0B0B0B",
",.	c #424242",
"'.	c #272727",
").	c #4F4F4F",
"!.	c #838383",
"~.	c #C2C2C2",
"{.	c #C6C6C6",
"].	c #B3B3B3",
"^.	c #9C9C9C",
"/.	c #8A8A8A",
"(.	c #606060",
"_.	c #757575",
":.	c #7C7C7C",
"<.	c #A6A6A6",
"[.	c #C3C3C3",
"}.	c #BDBDBD",
"|.	c #A8A8A8",
"1.	c #9E9E9E",
"2.	c #989898",
"3.	c #535353",
"4.	c #1D1D1D",
"5.	c #636363",
"6.	c #8E8E8E",
"7.	c #909090",
"8.	c #868686",
"9.	c #7F7F7F",
"0.	c #949494",
"a.	c #B1B1B1",
"b.	c #ACACAC",
"c.	c #999999",
"d.	c #BCBCBC",
"e.	c #A2A2A2",
"f.	c #8D8D8D",
"g.	c #9D9D9D",
"h.	c #C9C9C9",
"i.	c #939393",
"j.	c #404040",
"k.	c #676767",
"l.	c #979797",
"m.	c #9B9B9B",
"n.	c #959595",
"o.	c #A4A4A4",
"p.	c #AFAFAF",
"q.	c #A9A9A9",
"r.	c #A7A7A7",
"s.	c #B8B8B8",
"t.	c #CACACA",
"u.	c #D1D1D1",
"v.	c #ADADAD",
"w.	c #6E6E6E",
"x.	c #A3A3A3",
"y.	c #B7B7B7",
"z.	c #AEAEAE",
"A.	c #ABABAB",
"B.	c #B0B0B0",
"C.	c #CECECE",
"D.	c #DBDBDB",
"E.	c #C0C0C0",
"F.	c #727272",
"G.	c #797979",
"H.	c #A5A5A5",
"I.	c #B9B9B9",
"J.	c #B4B4B4",
"K.	c #D5D5D5",
"L.	c #DFDFDF",
"M.	c #808080",
"N.	c #1B1B1B",
"O.	c #919191",
"P.	c #BBBBBB",
"Q.	c #BABABA",
"R.	c #C5C5C5",
"S.	c #D6D6D6",
"T.	c #E5E5E5",
"U.	c #CCCCCC",
"V.	c #DDDDDD",
"W.	c #CDCDCD",
"X.	c #252525",
"Y.	c #464646",
"Z.	c #C4C4C4",
"`.	c #C1C1C1",
" +	c #BEBEBE",
".+	c #D4D4D4",
"++	c #CBCBCB",
"@+	c #929292",
"#+	c #9A9A9A",
"$+	c #C7C7C7",
"%+	c #BFBFBF",
"&+	c #8C8C8C",
"*+	c #C8C8C8",
"=+	c #5D5D5D",
"-+	c #8F8F8F",
";+	c #DADADA",
">+	c #D0D0D0",
",+	c #CFCFCF",
"'+	c #D8D8D8",
")+	c #DEDEDE",
"!+	c #D9D9D9",
"~+	c #B6B6B6",
"{+	c #E3E3E3",
"]+	c #D7D7D7",
"^+	c #7E7E7E",
"/+	c #313131",
"(+	c #D3D3D3",
"_+	c #E0E0E0",
":+	c #E6E6E6",
"<+	c #E2E2E2",
"[+	c #878787",
"}+	c #E4E4E4",
"|+	c #E9E9E9",
"1+	c #898989",
"2+	c #222222",
"3+	c #A1A1A1",
"4+	c #818181",
"5+	c #D2D2D2",
"6+	c #101010",
"7+	c #848484",
"8+	c #B5B5B5",
"9+	c #1E1E1E",
"0+	c #A0A0A0",
"a+	c #777777",
"b+	c #696969",
"c+	c #525252",
"d+	c #737373",
"e+	c #5F5F5F",
"                                                                                                                                ",
"                                                                                                                                ",
"                                                                                                                                ",
"                                                                                                                                ",
"                                                                                                                                ",
"                                                                                                                                ",
"                      . + @ #                                                                                                   ",
"                    $ % & * = -                                             & ; > , '                     ) !                   ",
"                  ~ { ] , , ] ^                                         ] / . ( _ # : <               [ } | - 1 2 <             ",
"                      3 ^ 3 4                                         5 6 7 8 9 * 0 a b             c d ~ e * f g h <           ",
"                                                                      i j = ^ k & - l k !           % $ m n 9 , 3 o             ",
"                                                                      p | q r s s } l t           u v w x y y l r z             ",
"                                                                        A - k ] B r C <         p D 7 m E } l 4 u F             ",
"                                                                          < g : C G H             z I J K k k u L M             ",
"                                                                              N H                 O G E - 3 P L H               ",
"                                                                                                    < Q i R N S Q               ",
"                                                                                                                                ",
"                                                p                                                                               ",
"                                            T i U V o V o !                     O W 3 X                                         ",
"                                        ! Y Z E a `  .4 3 X L H                 d w ..+.F                                       ",
"                                    < Q G E | I @.J % J * @ #.y u                .| - ^ )             $.o !                     ",
"                                O o i ) W q %.+.& | % #.&.*.=.-.@ l 1           M P P 1 Q           < U ;.G Y T                 ",
"                              < >.G b ;.,.%.%.> '.)...!.*.~.{.].^./.j P z         Q o p             t > f l : 5 O               ",
"                            Q t U C G L  .(.% q * _.:.6 <.[.}.|.^.1.2.8 c                         < 5 3.(., 3 X O               ",
"                          Q o Y b 4.X r ` @.5._.6.7.8.9.0.a.b.c.6.<.d.e.J 5                         4.` 0 ` , L <               ",
"                          Q i R 5 U 4 ` (.j @ f.^.2./.7 0.b.<.^.g.=.h.[.i.j.A                       o , m # ,.5                 ",
"                          < O O O B d @.k.#.w l.1.m.0.n.o.p.q.r.*.s.t.u.v.n                           ! c c U '                 ",
"                              < [ > % m w.( 6 i.c.1.x.v.y.z.|.A.B.d.C.D.E.F.L                             O <                   ",
"                                [ K %.8 G.8.l.0.2.H.B.I.s.A.r.b.J.~.K.L.{.M.G                                                   ",
"                              < N.> * _.7 O.^.^.-.A.J.P.y.z.v.=.Q.R.S.T.U.8.r                                                   ",
"                                [ K j . 6.0.^.x.*.p.].Q.d.s.s.P.d.~.u.V.W.7.b                                                   ",
"                              T X.Y.~ . /.l.e.|.b.p.y.P.~.[.Z.`.}. +h..+++@+j.                                                  ",
"                                '.| ..v &.#+x.r.*.v.].s.`.$+t.R.%+ +[.U.$+#+4                                                   ",
"                              ' G & j :.&+l.^.-.H.q.z.]. +*+U.U.$+[.~.t.{.c.f V                                                 ",
"                              V ;. .% _.&.n.c.1.m.x.*.=.E.++C.K..+W.h.t.R.e.,.A                                                 ",
"                            p z u > =+_.8.7.2.#+-+-.A.s.R.$+t.S.;+K.>+,+*+<.= 5                                                 ",
"                              F P D =+e 7 &+0.2.0.e.a. +*+E.[.'+)+!+S..+C.]...G                                                 ",
"                            $.Y r { j + M.&+7.l.l.H.~+`.{.~.*+D.{+)+;+]+u.I.^+P                                                 ",
"                            S /+Y.%...( / -+7.0.^.|.y.`.$+h.(+_+:+<+D.]+(+Z.!./+                                                ",
"                          O N.j.).% 8 :.[+6.7.0.1.|.B.I.R.>+;+}+|+T.;+S..+`.1+u                       O Z r 2+                  ",
"                          >.b r d 0 ( 7 1+-+i.2.3+q.B.y.E.C.D.<+T.L..+u..+Z.1+l                       ).w ..+.R                 ",
"                        < i u  .+.+ 4+!.6 7.2.1.H.A.=.I.E.t.'+)+V.5+h.W.,+I..                         > | - ^ 4.                ",
"                          M /+; %._ 8./ &.O.g.3+x.q.z.].Q.`.++(+C.Z.E.*+++r.I V                       >.P P 1 Q                 ",
"                        < 6+/+,.9 @ 7+&.f.c.H.r.3+<.o.|.p.J.P.[.%+8+d.R.I.&+k                           Q o p                   ",
"                        Q 9+W ,.@.+ 7+1+!.n.|.b.o.-.g.3+*.v.8+P.s.B.s.`.q.~ W '                                                 ",
"                        O ) C & #.$ 9.v #.M.x.z.q.-.1.H.p.J.I.%+s.=.y.v.6 > t                                                   ",
"                        < ' 1 3.G./.7++ 3.k.-+<.H.#+-.b.I.`.~.~.d.=.p.l.{ 1 '                                                   ",
"                            ) @.&+2.6._.J =+[+<.x.#+m.*.P.Z.R.Z.y.*.n.# Z H                                                     ",
"                            X.@.-+0+i.G.=+..f.x.e.^.m.<.y.%+ +s.z.-.w b H                                                       ",
"                          Q G @.6.g.7.v ..# n.g.g.m.^.x.p.P.y.b.x.&.9 '                                                         ",
"                          Q L 3.6 m.&+a+m w.7 0.#+c.0+r.a.J.B.x.i.e >.                                                          ",
"                            o ^ b+!.[+G.0 { j 7 0.^.3+q.b.q.o./.m y               < O p                                         ",
"                          < i : j.e 6 7+w.c+c+F.f.#+^.^.2.f.G.x C               i '.4 R $.                                      ",
"                            $.2+` a+O.7.w (.{ (.a+M.6 / ( %.,.X !             T W x 9 r 6+                                      ",
"                            < t /+d+@+O./.9.8 j ~ # + = ; W R                 F 9 k.- /+z                                       ",
"                            < Q b % 9./ m.n.[+F.j @.q : S !                   ' j.> 4 X.Q                                       ",
"                            <   S g D 0 . / $ e+| 3 L 6+                        F S Y $.p                                       ",
"                                    ) r | q j.c N '                               <                                             ",
"                                        N.5 T                                                                                   ",
"                                                                                                                                ",
"                                                                                                                                ",
"                                                                                                                                ",
"                                                                                                                                ",
"                                                                                                                                "};
