/* XPM */
static char * wall1_xpm[] = {
"64 64 588 2",
"  	c None",
". 	c #000000",
"+ 	c #050606",
"@ 	c #060607",
"# 	c #2B2C2F",
"$ 	c #393A3E",
"% 	c #323337",
"& 	c #2A2B2E",
"* 	c #1C1D1F",
"= 	c #050506",
"- 	c #2E2F33",
"; 	c #696C72",
"> 	c #9B9EA7",
", 	c #91949C",
"' 	c #7F8289",
") 	c #5D5F64",
"! 	c #191A1C",
"~ 	c #08090A",
"{ 	c #1F2023",
"] 	c #535459",
"^ 	c #7E8088",
"/ 	c #9FA2AB",
"( 	c #8E9098",
"_ 	c #232326",
": 	c #0C0C0D",
"< 	c #3D3E43",
"[ 	c #73757C",
"} 	c #91939C",
"| 	c #9DA0A9",
"1 	c #9B9DA6",
"2 	c #7B7D84",
"3 	c #141415",
"4 	c #010101",
"5 	c #1B1C1D",
"6 	c #57585E",
"7 	c #5A5C61",
"8 	c #84878F",
"9 	c #999CA5",
"0 	c #9EA1AA",
"a 	c #8E919A",
"b 	c #515358",
"c 	c #34353A",
"d 	c #6E6F7A",
"e 	c #7F808C",
"f 	c #1E1F23",
"g 	c #040404",
"h 	c #1C1C1F",
"i 	c #37373C",
"j 	c #81828A",
"k 	c #999CA4",
"l 	c #9A9DA6",
"m 	c #606268",
"n 	c #38383E",
"o 	c #7C7D88",
"p 	c #A5A7B5",
"q 	c #A7A9B8",
"r 	c #A4A6B5",
"s 	c #9193A1",
"t 	c #484950",
"u 	c #121313",
"v 	c #404044",
"w 	c #6A6A72",
"x 	c #9494A0",
"y 	c #9D9EA9",
"z 	c #80838A",
"A 	c #222326",
"B 	c #4C4D54",
"C 	c #A9AAB8",
"D 	c #B0B2C1",
"E 	c #AFB1C0",
"F 	c #A9ABBA",
"G 	c #A3A4B4",
"H 	c #72747F",
"I 	c #303136",
"J 	c #373739",
"K 	c #7C7C82",
"L 	c #9A9AA5",
"M 	c #A0A0AD",
"N 	c #9FA2AC",
"O 	c #90939B",
"P 	c #37383C",
"Q 	c #4E4E55",
"R 	c #B5B7C5",
"S 	c #B9BBCA",
"T 	c #B1B3C2",
"U 	c #AEB0BF",
"V 	c #858793",
"W 	c #737479",
"X 	c #9A9AA2",
"Y 	c #A1A0AD",
"Z 	c #A0A1AD",
"` 	c #979AA2",
" .	c #686A6F",
"..	c #18191B",
"+.	c #4D4E54",
"@.	c #B5B6C5",
"#.	c #BDBFCE",
"$.	c #BBBDCC",
"%.	c #A8AAB9",
"&.	c #686972",
"*.	c #4D4D52",
"=.	c #9C9DA6",
"-.	c #A0A0AA",
";.	c #A1A1AC",
">.	c #A0A1AC",
",.	c #83858D",
"'.	c #3C3D41",
").	c #27282C",
"!.	c #B3B5C3",
"~.	c #BCBECD",
"{.	c #B3B5C4",
"].	c #A9ABB9",
"^.	c #9C9EAA",
"/.	c #2D2D31",
"(.	c #727279",
"_.	c #A2A2AC",
":.	c #A1A1AB",
"<.	c #9698A2",
"[.	c #54555B",
"}.	c #040405",
"|.	c #7F7F89",
"1.	c #BFC0CE",
"2.	c #C8C9D4",
"3.	c #BFC0CD",
"4.	c #BEBFCE",
"5.	c #A7A9B7",
"6.	c #37383D",
"7.	c #39393D",
"8.	c #85858D",
"9.	c #A1A1AA",
"0.	c #A2A2A9",
"a.	c #A9A9B1",
"b.	c #ADADB5",
"c.	c #A4A5AF",
"d.	c #9FA1AC",
"e.	c #8A8C95",
"f.	c #9B9CA8",
"g.	c #C7C7D4",
"h.	c #D6D6DF",
"i.	c #C9C9D4",
"j.	c #BEBECE",
"k.	c #B2B4C3",
"l.	c #747680",
"m.	c #75767C",
"n.	c #989AA3",
"o.	c #A0A1AB",
"p.	c #A2A2AA",
"q.	c #A9AAAF",
"r.	c #BFBFC4",
"s.	c #C3C4C9",
"t.	c #B9BAC2",
"u.	c #A5A8B1",
"v.	c #A3A5B1",
"w.	c #ADAFBB",
"x.	c #A6A8B3",
"y.	c #38393D",
"z.	c #A6A6B3",
"A.	c #BFC1D0",
"B.	c #C8C8D4",
"C.	c #D9D9E3",
"D.	c #C9C9D5",
"E.	c #B5B7C6",
"F.	c #B0B2C0",
"G.	c #B0B2BF",
"H.	c #9798A5",
"I.	c #28282B",
"J.	c #87888F",
"K.	c #A7A7AF",
"L.	c #BEBFC4",
"M.	c #C4C5C9",
"N.	c #C8CBD2",
"O.	c #A7AAB3",
"P.	c #9FA2AA",
"Q.	c #9EA1AC",
"R.	c #A3A5B2",
"S.	c #B1B3C1",
"T.	c #B6B8C7",
"U.	c #A9ABB8",
"V.	c #6A6C74",
"W.	c #3D3D42",
"X.	c #ACAEB9",
"Y.	c #BDBECA",
"Z.	c #C6C6D2",
"`.	c #D1D1DC",
" +	c #C7C7D3",
".+	c #C0C0CF",
"++	c #BEC0CF",
"@+	c #C1C3D2",
"#+	c #C2C4D3",
"$+	c #BFC1CE",
"%+	c #BCBECA",
"&+	c #56575D",
"*+	c #4F4F53",
"=+	c #8D8F96",
"-+	c #A1A2AD",
";+	c #ACACB5",
">+	c #C2C3C7",
",+	c #C6C7CB",
"'+	c #C9CAD0",
")+	c #A2A3AC",
"!+	c #A0A2AC",
"~+	c #A0A3AC",
"{+	c #A3A6B2",
"]+	c #B7B9C7",
"^+	c #BBBDCB",
"/+	c #B4B6C5",
"(+	c #7D7E89",
"_+	c #2E2E33",
":+	c #36373B",
"<+	c #4E4F55",
"[+	c #8D8E98",
"}+	c #9EA0AA",
"|+	c #AFB1BD",
"1+	c #9496A2",
"2+	c #92949F",
"3+	c #66686F",
"4+	c #6F7076",
"5+	c #989AA2",
"6+	c #A7A8B2",
"7+	c #BCBCC4",
"8+	c #C9CACF",
"9+	c #C5C6CB",
"0+	c #C1C2C8",
"a+	c #9FA2A8",
"b+	c #A5A7B2",
"c+	c #ACAFB9",
"d+	c #BDBFCD",
"e+	c #A4A6B4",
"f+	c #38393F",
"g+	c #030303",
"h+	c #292A2C",
"i+	c #787A81",
"j+	c #92959E",
"k+	c #6E7178",
"l+	c #3D3D43",
"m+	c #8C8D97",
"n+	c #9FA1AB",
"o+	c #A5A5AF",
"p+	c #C5C7CB",
"q+	c #B8B8BF",
"r+	c #9F9FAB",
"s+	c #9E9EA9",
"t+	c #9C9FA6",
"u+	c #ABADB9",
"v+	c #B9BBC8",
"w+	c #C2C4D2",
"x+	c #414148",
"y+	c #1D1E20",
"z+	c #686A70",
"A+	c #71737B",
"B+	c #5C5E64",
"C+	c #252529",
"D+	c #83838C",
"E+	c #A1A2AC",
"F+	c #A0A2AB",
"G+	c #ACAEB6",
"H+	c #B4B6BC",
"I+	c #BEBFC5",
"J+	c #9A9AA6",
"K+	c #9799A4",
"L+	c #9B9DA8",
"M+	c #C0C2D1",
"N+	c #9A9CA9",
"O+	c #52535B",
"P+	c #262629",
"Q+	c #64646B",
"R+	c #9A9BA4",
"S+	c #9C9FA8",
"T+	c #979AA3",
"U+	c #9699A2",
"V+	c #9497A0",
"W+	c #9598A1",
"X+	c #9698A1",
"Y+	c #9697A3",
"Z+	c #9C9EAB",
"`+	c #BABCC9",
" @	c #C3C4D5",
".@	c #BEBFD0",
"+@	c #9B9DAA",
"@@	c #575860",
"#@	c #101011",
"$@	c #2E2F32",
"%@	c #6C6E75",
"&@	c #8F919A",
"*@	c #979AA4",
"=@	c #A1A4AE",
"-@	c #B7B9C8",
";@	c #C5C7D6",
">@	c #BEBFCF",
",@	c #B2B4C4",
"'@	c #A3A5B3",
")@	c #44454C",
"!@	c #111112",
"~@	c #515157",
"{@	c #878A92",
"]@	c #989BA3",
"^@	c #989BA4",
"/@	c #9598A2",
"(@	c #A9ABB5",
"_@	c #BABCC8",
":@	c #C4C6D5",
"<@	c #494B51",
"[@	c #0A0A0C",
"}@	c #72747A",
"|@	c #90919A",
"1@	c #A0A0AB",
"2@	c #989AA6",
"3@	c #B5B7C3",
"4@	c #C1C3CE",
"5@	c #C4C6D3",
"6@	c #797A85",
"7@	c #09090B",
"8@	c #414246",
"9@	c #ACAEBC",
"0@	c #C5C7D5",
"a@	c #C4C6D4",
"b@	c #BABCCB",
"c@	c #80828C",
"d@	c #1D1E21",
"e@	c #26262A",
"f@	c #7C7F86",
"g@	c #A8ABB3",
"h@	c #BBBDC8",
"i@	c #B8BAC9",
"j@	c #71727C",
"k@	c #1F1F23",
"l@	c #686970",
"m@	c #93969F",
"n@	c #9597A2",
"o@	c #9A9CA8",
"p@	c #ADAFBC",
"q@	c #BFC1CD",
"r@	c #C6C8D4",
"s@	c #72737D",
"t@	c #141417",
"u@	c #101012",
"v@	c #404246",
"w@	c #C6C8D7",
"x@	c #BABCCA",
"y@	c #797A84",
"z@	c #3F4146",
"A@	c #B3B5C2",
"B@	c #7E7F8A",
"C@	c #000101",
"D@	c #383A3D",
"E@	c #74777E",
"F@	c #8E9199",
"G@	c #9598A0",
"H@	c #9D9FAB",
"I@	c #6A6B74",
"J@	c #0A0B0D",
"K@	c #1F2022",
"L@	c #777A81",
"M@	c #92959D",
"N@	c #9699A4",
"O@	c #AEB0BD",
"P@	c #C0C2D0",
"Q@	c #414248",
"R@	c #0B0B0C",
"S@	c #3E3F44",
"T@	c #7F8189",
"U@	c #BFC1CF",
"V@	c #1B1C1F",
"W@	c #36373A",
"X@	c #6F7178",
"Y@	c #999BA5",
"Z@	c #C7C9D7",
"`@	c #C3C5D4",
" #	c #ADAFBD",
".#	c #898B97",
"+#	c #141517",
"@#	c #6B6D74",
"##	c #8B8D96",
"$#	c #A7A9B6",
"%#	c #C3C5D5",
"&#	c #C3C4D4",
"*#	c #B7B9C9",
"=#	c #A6A8B6",
"-#	c #666770",
";#	c #0F0F11",
">#	c #6F7279",
",#	c #90939C",
"'#	c #B7B9C6",
")#	c #BABBCC",
"!#	c #A2A4B2",
"~#	c #3F4046",
"{#	c #27282B",
"]#	c #5E6066",
"^#	c #9597A1",
"/#	c #ADB0BB",
"(#	c #C2C4D1",
"_#	c #BBBCCD",
":#	c #B3B4C4",
"<#	c #ADAFBE",
"[#	c #9597A4",
"}#	c #121214",
"|#	c #53555A",
"1#	c #82858D",
"2#	c #999CA7",
"3#	c #B1B2C4",
"4#	c #B0B1C1",
"5#	c #9FA0AE",
"6#	c #6E6F79",
"7#	c #020202",
"8#	c #46484C",
"9#	c #7E8189",
"0#	c #9A9DA7",
"a#	c #ACAEBB",
"b#	c #AFB1C1",
"c#	c #8B8D99",
"d#	c #46474E",
"e#	c #2F2F32",
"f#	c #81838A",
"g#	c #A7A9B4",
"h#	c #BBBDCA",
"i#	c #B0B2BE",
"j#	c #AFB1BF",
"k#	c #73747E",
"l#	c #2B2C30",
"m#	c #222325",
"n#	c #616267",
"o#	c #9698A0",
"p#	c #BEC0CE",
"q#	c #AAACB8",
"r#	c #A7A9B5",
"s#	c #91939E",
"t#	c #35373A",
"u#	c #74767D",
"v#	c #999BA7",
"w#	c #AFB2BC",
"x#	c #ADAFBA",
"y#	c #AAADB8",
"z#	c #A9ABB7",
"A#	c #A4A6B2",
"B#	c #A2A4B0",
"C#	c #A2A4AF",
"D#	c #9FA2AD",
"E#	c #91939D",
"F#	c #65666E",
"G#	c #070708",
"H#	c #151618",
"I#	c #616369",
"J#	c #888B93",
"K#	c #AFB2BE",
"L#	c #B1B3BF",
"M#	c #A8ABB6",
"N#	c #A3A6AF",
"O#	c #A1A4AD",
"P#	c #75767D",
"Q#	c #44464A",
"R#	c #8A8D95",
"S#	c #94979F",
"T#	c #C1C3CF",
"U#	c #C6C8D6",
"V#	c #A7AAB4",
"W#	c #A4A6B1",
"X#	c #A1A3AE",
"Y#	c #93959D",
"Z#	c #434448",
"`#	c #09090A",
" $	c #292A2E",
".$	c #676A70",
"+$	c #979AA5",
"@$	c #9A9CA7",
"#$	c #AEB0BC",
"$$	c #A5A7B3",
"%$	c #A1A3AD",
"&$	c #6B6C73",
"*$	c #0D0E0F",
"=$	c #57595E",
"-$	c #898C95",
";$	c #A4A7B1",
">$	c #B4B6C4",
",$	c #BCBECB",
"'$	c #AEB0BE",
")$	c #A8AAB7",
"!$	c #A1A3AF",
"~$	c #9DA0A8",
"{$	c #82848C",
"]$	c #70727A",
"^$	c #9A9DA8",
"/$	c #9FA1AD",
"($	c #B4B6C2",
"_$	c #BCBECC",
":$	c #A8AAB8",
"<$	c #ACAEBD",
"[$	c #A0A3AD",
"}$	c #808289",
"|$	c #45464C",
"1$	c #868893",
"2$	c #ABADBA",
"3$	c #B7B9C5",
"4$	c #BEC0CC",
"5$	c #9698A4",
"6$	c #868894",
"7$	c #868895",
"8$	c #7D7F8C",
"9$	c #7A7C8A",
"0$	c #7E808E",
"a$	c #8C8E9C",
"b$	c #9EA0AE",
"c$	c #B8BAC8",
"d$	c #A0A2AE",
"e$	c #46474C",
"f$	c #606169",
"g$	c #BDBECC",
"h$	c #AFB0BE",
"i$	c #ABACB9",
"j$	c #828490",
"k$	c #838591",
"l$	c #7C7E8A",
"m$	c #7B7D89",
"n$	c #7A7C88",
"o$	c #7B7D8A",
"p$	c #7C7E8C",
"q$	c #9FA1AE",
"r$	c #C0C2CF",
"s$	c #B3B5C1",
"t$	c #424347",
"u$	c #28272D",
"v$	c #6A6974",
"w$	c #848490",
"x$	c #80808C",
"y$	c #7B7D88",
"z$	c #878994",
"A$	c #BCBEC9",
"B$	c #B8BAC6",
"C$	c #9C9EA7",
"D$	c #878891",
"E$	c #505056",
"F$	c #222227",
"G$	c #4F4E57",
"H$	c #696873",
"I$	c #757480",
"J$	c #73727E",
"K$	c #686973",
"L$	c #6F707A",
"M$	c #757681",
"N$	c #7A7C87",
"O$	c #757783",
"P$	c #787A85",
"Q$	c #777884",
"R$	c #747581",
"S$	c #7B7D85",
"T$	c #525358",
"U$	c #0F0F10",
"V$	c #1B1A1F",
"W$	c #303037",
"X$	c #33333A",
"Y$	c #2B2B31",
"Z$	c #36353C",
"`$	c #46464E",
" %	c #53535C",
".%	c #5D5D67",
"+%	c #55555E",
"@%	c #52535C",
"#%	c #4B4D54",
"$%	c #50515A",
"%%	c #4E4F58",
"&%	c #63646E",
"*%	c #7F818B",
"=%	c #8D8F9A",
"-%	c #9395A0",
";%	c #9A9CA5",
">%	c #9B9DA7",
",%	c #2C2E31",
"'%	c #0E0E10",
")%	c #1B1B1E",
"!%	c #080809",
"~%	c #18181C",
"{%	c #0F0F12",
"]%	c #2C2C30",
"^%	c #4D4E53",
"/%	c #525359",
"(%	c #414247",
"_%	c #232427",
":%	c #505156",
"<%	c #65676D",
"[%	c #797B82",
"}%	c #888A92",
"|%	c #83868D",
"1%	c #76787F",
"2%	c #80828A",
"3%	c #797982",
"4%	c #3F3F44",
"5%	c #0C0C0E",
"6%	c #262729",
"7%	c #0B0B0D",
". . . . . . . . . . . . . . . . . . . . . . . . . . . . . . . . . . . . . . . . . . . . . . . . . . . . . . . . . . . . . . . . ",
". . . . . . . . . . . . . . . . . . . . . . . . . . . . . . . . . . . . . . . . . . . . . . . . . . . . . . . . . . . . . . . . ",
". . . . . . . . . . . . . . . . . . . . . . . . . . . . . . . . . . . . . . . . . . . . . . . . . + @ . . . . . . . . . . . . . ",
". . . . . . . . . . . . . . . . . . . . . . . . . . . . . . . . . . . . . . . . . . . . . . . . . # $ % & * = . . . . . . . . . ",
". . . . . . . . . . . . . . . . . . . . . . . . . . . . . . . . . . . . . . . . . . . . . . . . - ; > , ' ) ! . . . . . . . . . ",
". . . . . . . . . . . . . . . . . . . . . . . . . . . . . . . . . . . . . . . . . . . . . ~ { ] ^ > / / / ( _ . . . . . . . . . ",
". . . . . . . . . . . . . . . . . . . . . . . . . . . . . . . . . . . . . . . . . . . . : < [ } | / / / / 1 2 3 . . . . . . . . ",
". . . . . . . . . . . . . . . . . . . . . . . . . . . . . . . . . . . . . . . . . 4 5 6 7 8 9 0 / / / / / / a b . . . . . . . . ",
". . . . . . . . . . . . . c d e f . . . . . . . . . . . . . . . . . . . . . . g h i j , k / / / / / / / / / l m ! . . . . . . . ",
". . . . . . . . . . . n o p q r s t . . . . . . . . . . . . . . . . . . . . u v w x y / / / / / / / / / / / / z A . . . . . . . ",
". . . . . . . . . . B C D D E F r G H I . . . . . . . . . . . . . . . . . . J K L M N / / / / / / / / / / / / O P . . . . . . . ",
". . . . . . . . . Q R S T D D D U q r V . . . . . . . . . . . . . . . . . . W X Y Z N / / / / / / / / / / / / `  .... . . . . . ",
". . . . . . . . +.@.#.#.$.T D D D D %.r &.. . . . . . . . . . . . . . . 3 *.=.-.;.>.>./ / / / / / / / / / / / 0 ,.'.. . . . . . ",
". . . . . . . ).!.#.#.#.#.~.{.D D D D ].^.+.. . . . . . . . . . . . . . /.(._.:.:.:.:.>.>./ / / / / / / / / / / <.[.}.. . . . . ",
". . . . . . . |.#.#.1.2.3.4.$.D D D D D 5.6.. . . . . . . . . . . . . . 7.8.:.:.9.0.a.b.c./ / / / / / / / / / / d.e.. . . . . . ",
". . . . . . . f.#.4.g.h.i.j.#.k.D D D D l.. . . . . . . . . . . . . . . m.n.o.o.p.q.r.s.t.u./ / / / / / / / N v.w.x.y.. . . . . ",
". . . . . . . z.A.4.B.C.D.j.#.E.D F.G.H.. . . . . . . . . . . . . . . I.J./ / / o.K.L.M.N.O./ / / / / P./ Q.R.S.T.U.V.. . . . . ",
". . . . . . . W.X.Y.Z.`. +.+++@+#+$+%+&+. . . . . . . . . . . . . . . *+=+/ / / -+;+>+,+'+)+>.!+/ / / P.~+{+]+^+/+D (+_+. . . . ",
". . . . . . . . :+<+[+}+!+w.|+v.1+2+3+. . . . . . . . . . . . . . . . 4+5+/ / / 6+7+8+9+0+_.;.>.a+P.!+b+c+$+d+/+D D e+f+g+. . . ",
". . . . . . . . . . . h+i+0 / l j+k+. . . . . . . . . . . . . . . . l+m+}+/ / n+o+0+p+9+q+:.r+s+t+}+u+v+w+d+{.D D D p x+. . . . ",
". . . . . . . . . . . . . y+z+A+B+. . . . . . . . . . . . . . . 4 C+D+E+/ / / 0 F+G+H+I+K.L J+K+L+S.A.M+S k.T D D D N+O+. . . . ",
". . . . . . . . . . . . . . . . . . . . . . . . . . . . . . . . P+Q+R+o./ / 0 S+T+T+U+V+W+X+Y+Z+`+ @.@/+D D D D D D +@@@. . . . ",
". . . . . . . . . . . . . . . . . . . . . . . . . . . . . . #@$@%@&@F+F+/ S+9 U+W+W+W+W+W+*@=@-@;@>@,@D E D D D D D '@)@. . . . ",
". . . . . . . . . . . . . . . . . . . . . . . . . . . . !@*.~@{@]@0 / / | ^@W+W+W+W+/@/@^@(@_@:@#.{.D D D D D D D D 5.<@. . . . ",
". . . . . . . . . . . . . . . . . . . . . . . . . . [@$ }@|@1@0 / / / 0 T+W+U+W+W+W+2@Q.3@4@5@d+/+D D D D D D D D D ].6@7@. . . ",
". . . . . . . . . . . . . . . . . . . . . . . . . . 8@i+9 n+!+/ 0 | > U+W+W+W+W+U+/ 9@@+0@a@b@k.D D D D D D D D D D E c@d@. . . ",
". . . . . . . . . . . . . . . . . . . . . . . . . e@f@k 0 | | l 9 ^@U+W+W+W+/@9 g@h@:@;@#+i@T D D D D D D D D D D D D j@k@. . . ",
". . . . . . . . . . . . . . . . . . . . . . . . . l@m@^@9 T+W+U+W+W+W+W+W+n@o@p@q@r@a@++T.T D D D D D D D D D D D D D s@t@. . . ",
". . . . . . . . . . . . . . . . . . . . . . . u@v@,.W+W+W+W+W+W+W+W+W+V+W++@S.w+w@w+x@k.T D D D D D D D D D D D D D ].y@. . . . ",
". . . . . . . . . . . . . . . . . . . . . . . z@[ V+W+W+W+W+W+W+W+W+W+W+l A@w@w@@+T.T D D D D D D D D D D D D D D D 9@B@C@. . . ",
". . . . . . . . . . . . . . . . . . . . . 4 D@E@F@W+W+W+W+W+W+W+W+G@/@H@G.0@;@A.E.D D D D D D D D D D D D D D D D D E I@J@. . . ",
". . . . . . . . . . . . . . . . . . . . . K@L@M@W+W+W+W+W+W+W+W+G@W+N@O@P@;@4./+D D D D D D D D D D D D D D D D D D T Q@= . . . ",
". . . . . . . . . . . . . . . . . . . R@S@T@j+W+W+W+W+W+W+W+W+W+G@W+{+U@w@A./+D D D D D D D D D D D D D D D D D D D e+V@. . . . ",
". . . . . . . . . . . . . . . . . . . W@X@V+W+W+W+W+W+W+W+W+W+W+W+Y@`+Z@`@/+D D D D D D D D D D D D D D D D D D D  #.#+#. . . . ",
". . . . . . . . . . . . . . . . . . % @###W+W+W+W+W+W+W+W+W+W+W+K+$#%#&#*#D D D D D D D D D D D D D D D D D D D D =#-#. . . . . ",
". . . . . . . . . . . . . . . . . ;#>#,#W+W+W+W+W+W+W+W+W+W+W+/@d.'#%#)#T D D D D D D D D D D D D D D D D D D D D !#~#. . . . . ",
". . . . . . . . . . . . . . . . {#]#O W+W+W+W+W+W+W+W+W+W+W+W+^#/#(#_#:#D D D D D D D D D D D D D D D D D D D D <#[#. . . . . . ",
". . . . . . . . . . . . . . . }#|#1#W+W+W+W+W+W+W+W+W+W+W+W+W+2#U@w+3#4#D D D D D D D D D D D D D D D D D D D D 5#6#. . . . . . ",
". . . . . . . . . . . . . . 7#8#9#j+W+W+W+W+W+W+W+W+W+W+W+W+0#a##+-@D b#D D D D D D D D D D D D D D G.G.G.F.D D c#d#. . . . . . ",
". . . . . . . . . . . . . . e#f#m@W+W+W+W+W+W+W+W+W+W+W+W+W+g#h#~.T D D D D D D D D D F.D D D D D D G.i#i#i#j#T k#l#. . . . . . ",
". . . . . . . . . . . . . m#n#o#W+W+W+W+W+W+W+W+W+W+W+W+/@^.`+p#/+D D D D D D D D D G.G.G.F.F.F.F.j#i#|+u+q#r#s#6.. . . . . . . ",
". . . . . . . . . . . . . t#u#W+W+W+W+W+W+W+W+W+W+W+G@W+v#'#w@-@D D D D D D D D D F.G.i#i#|+w#x#y#z#A#B#C#D#E#F#G#. . . . . . . ",
". . . . . . . . . . . . H#I#J#W+W+W+W+W+W+W+W+W+W+W+G@S+K#0@#+{.D D D D D D G.F.F.F.L#w.u+M#N#N#O#/ / / N | P#W@. . . . . . . . ",
". . . . . . . . . . . . Q#R#V+W+W+W+W+W+W+W+W+G@S#G@N@x#T#U#M+/+D D D D D F.i#i#O@p@V#W#X#D#/ / / / / / / Y#Z#`#. . . . . . . . ",
". . . . . . . . . . .  $.$W+W+W+W+W+W+W+W+W++$@$/@0#].++;@w@`@-@T D D D E G.#$q#$$X#%$/ N N / / / / / / l &$. . . . . . . . . . ",
". . . . . . . . . . . *$=$-$W+G@G@W+/@U+^@;$O@>$,$%+M+@+;@;@w@#.{.F.G.j#'$)$A#!$d./ / / / / / / / / / ~${$A . . . . . . . . . . ",
". . . . . . . . . . . . $@]$2+n@/@^$/$A#($_@_$P@_$'$q :$<${.~.#+S G.w.z#v.[$N d./$/ / / / / / / / / | }$b . . . . . . . . . . . ",
". . . . . . . . . . . . . |$1$2$!.A@3$4$q#/$5$6$6$7$8$9$0$a$b$c$M+i#v.d$/$/ / / / / / / / / / / / | &@e$;#. . . . . . . . . . . ",
". . . . . . . . . . . . . }#f$g$h$i$/$j$k$l$m$n$n$m$m$m$m$o$p$q$r$s$!$/$d./ / / / / / / / / / / > f@t$. . . . . . . . . . . . . ",
". . . . . . . . . . . . . . u$v$w$x$o o y$o m$m$m$m$m$m$m$m$m$z$A$B$A#/$N / / / / / / / / / / C$D$E$~ . . . . . . . . . . . . . ",
". . . . . . . . . . . . . . . F$G$H$I$J$K$L$M$o o N$O$P$n$Q$R$m$#$T#!$/$/ / / / / / / / / / V+S$T$U$. . . . . . . . . . . . . . ",
". . . . . . . . . . . . . . . . V$W$X$Y$Z$`$ %.%@@+%@%#%$%%% %&%*%Y@=%-%| ` G@;%0 / / n+>%J#B+,%= . . . . . . . . . . . . . . . ",
". . . . . . . . . . . . . . . . . . . 7#. . . '%)%!%. . ~%{%. . ]%^%/%(%_%:%<%[%}%|%1%2%3%4%5%. . . . . . . . . . . . . . . . . ",
". . . . . . . . . . . . . . . . . . . . . . . . . . . . . . . . . . . . . . . . . t#6%7%g [@. . . . . . . . . . . . . . . . . . ",
". . . . . . . . . . . . . . . . . . . . . . . . . . . . . . . . . . . . . . . . . . . . . . . . . . . . . . . . . . . . . . . . ",
". . . . . . . . . . . . . . . . . . . . . . . . . . . . . . . . . . . . . . . . . . . . . . . . . . . . . . . . . . . . . . . . ",
". . . . . . . . . . . . . . . . . . . . . . . . . . . . . . . . . . . . . . . . . . . . . . . . . . . . . . . . . . . . . . . . ",
". . . . . . . . . . . . . . . . . . . . . . . . . . . . . . . . . . . . . . . . . . . . . . . . . . . . . . . . . . . . . . . . ",
". . . . . . . . . . . . . . . . . . . . . . . . . . . . . . . . . . . . . . . . . . . . . . . . . . . . . . . . . . . . . . . . ",
". . . . . . . . . . . . . . . . . . . . . . . . . . . . . . . . . . . . . . . . . . . . . . . . . . . . . . . . . . . . . . . . ",
". . . . . . . . . . . . . . . . . . . . . . . . . . . . . . . . . . . . . . . . . . . . . . . . . . . . . . . . . . . . . . . . ",
". . . . . . . . . . . . . . . . . . . . . . . . . . . . . . . . . . . . . . . . . . . . . . . . . . . . . . . . . . . . . . . . ",
". . . . . . . . . . . . . . . . . . . . . . . . . . . . . . . . . . . . . . . . . . . . . . . . . . . . . . . . . . . . . . . . ",
". . . . . . . . . . . . . . . . . . . . . . . . . . . . . . . . . . . . . . . . . . . . . . . . . . . . . . . . . . . . . . . . "};
