/* XPM */
static char * wall4_xpm[] = {
"64 64 705 2",
"  	c #000000",
". 	c #0B0C0E",
"+ 	c #080809",
"@ 	c #29292C",
"# 	c #38393F",
"$ 	c #404148",
"% 	c #868593",
"& 	c #7D7C87",
"* 	c #72737E",
"= 	c #575760",
"- 	c #1E1F23",
"; 	c #4A4B52",
"> 	c #6F707C",
", 	c #888996",
"' 	c #B0B1C1",
") 	c #B2B2C3",
"! 	c #AFB1C0",
"~ 	c #ACADBC",
"{ 	c #A7A8B7",
"] 	c #7E808B",
"^ 	c #5A5B64",
"/ 	c #292A2F",
"( 	c #060708",
"_ 	c #070809",
": 	c #030304",
"< 	c #010101",
"[ 	c #6F7079",
"} 	c #9E9FAC",
"| 	c #A7A9B6",
"1 	c #BCBDCC",
"2 	c #BCBECD",
"3 	c #B1B3C2",
"4 	c #B0B2C1",
"5 	c #B0B1C0",
"6 	c #ABADBB",
"7 	c #A7A9B7",
"8 	c #6C6D77",
"9 	c #3D3D43",
"0 	c #0B0B0D",
"a 	c #131316",
"b 	c #44454C",
"c 	c #666770",
"d 	c #676972",
"e 	c #54555E",
"f 	c #494A51",
"g 	c #34353A",
"h 	c #1C1D20",
"i 	c #060608",
"j 	c #323337",
"k 	c #787982",
"l 	c #9B9CA7",
"m 	c #9FA2AC",
"n 	c #9A9CA7",
"o 	c #AEB0BD",
"p 	c #B9BBCA",
"q 	c #A3A5B3",
"r 	c #90919E",
"s 	c #52535B",
"t 	c #222226",
"u 	c #0D0D0F",
"v 	c #050505",
"w 	c #37383D",
"x 	c #7C7D89",
"y 	c #9B9DAC",
"z 	c #9D9FAD",
"A 	c #9B9DAB",
"B 	c #9294A1",
"C 	c #797A86",
"D 	c #55575F",
"E 	c #1E1E21",
"F 	c #050506",
"G 	c #6B6D75",
"H 	c #8E919A",
"I 	c #8F929B",
"J 	c #90939C",
"K 	c #91939E",
"L 	c #B4B6C2",
"M 	c #B2B4C2",
"N 	c #AEB0BF",
"O 	c #9C9DAB",
"P 	c #82838F",
"Q 	c #4D4E56",
"R 	c #08080A",
"S 	c #303035",
"T 	c #72737D",
"U 	c #ABADBC",
"V 	c #AAACBB",
"W 	c #A9ABBA",
"X 	c #A7A9B8",
"Y 	c #A2A4B2",
"Z 	c #9394A1",
"` 	c #66676F",
" .	c #35353A",
"..	c #000100",
"+.	c #17181A",
"@.	c #55575D",
"#.	c #8D8F98",
"$.	c #AEB0BE",
"%.	c #ADAFBE",
"&.	c #9799A6",
"*.	c #7C7D87",
"=.	c #56575F",
"-.	c #161619",
";.	c #64656D",
">.	c #A1A3B0",
",.	c #ADAEBD",
"'.	c #AAABB9",
").	c #9496A2",
"!.	c #4E4F56",
"~.	c #878992",
"{.	c #9FA1AD",
"].	c #ACAEBC",
"^.	c #B6B8C7",
"/.	c #B2B4C3",
"(.	c #B0B2C0",
"_.	c #AFB1BF",
":.	c #A5A7B5",
"<.	c #8F909D",
"[.	c #797A85",
"}.	c #5C5D66",
"|.	c #343439",
"1.	c #8A8B97",
"2.	c #43444A",
"3.	c #36383B",
"4.	c #888A93",
"5.	c #B1B3C1",
"6.	c #BEC0CF",
"7.	c #BDBFCE",
"8.	c #BBBDCC",
"9.	c #B8BAC9",
"0.	c #B7B9C7",
"a.	c #B4B6C4",
"b.	c #9A9CA9",
"c.	c #6B6D77",
"d.	c #2C2D32",
"e.	c #0A0A0C",
"f.	c #585960",
"g.	c #ABADBA",
"h.	c #BABCCB",
"i.	c #B3B5C4",
"j.	c #8C8E99",
"k.	c #313136",
"l.	c #47494E",
"m.	c #84868F",
"n.	c #9396A0",
"o.	c #A3A5B0",
"p.	c #B1B3C0",
"q.	c #B4B7C5",
"r.	c #B1B4C0",
"s.	c #ABADB9",
"t.	c #ADAFBA",
"u.	c #B1B4BF",
"v.	c #BABCC9",
"w.	c #ACAEBD",
"x.	c #A8A9B8",
"y.	c #70717C",
"z.	c #404147",
"A.	c #0E0E10",
"B.	c #7A7B85",
"C.	c #B7B9C8",
"D.	c #BEBFCE",
"E.	c #AFB1BE",
"F.	c #8B8D96",
"G.	c #2B2C2F",
"H.	c #010102",
"I.	c #313336",
"J.	c #81848C",
"K.	c #8F929A",
"L.	c #9598A1",
"M.	c #9C9EA8",
"N.	c #ADAFBB",
"O.	c #ABAEB8",
"P.	c #A3A6B0",
"Q.	c #9FA2AB",
"R.	c #A6A9B3",
"S.	c #C0C2D1",
"T.	c #9A9CAA",
"U.	c #6A6C76",
"V.	c #323338",
"W.	c #BFC1CF",
"X.	c #C8C9D5",
"Y.	c #C8C8D4",
"Z.	c #C0BFCE",
"`.	c #B5B7C6",
" +	c #AEB0BC",
".+	c #7B7C85",
"++	c #19191B",
"@+	c #333437",
"#+	c #6D6F75",
"$+	c #979AA2",
"%+	c #A4A6B1",
"&+	c #AAACB7",
"*+	c #BCBFCC",
"=+	c #B9BBC9",
"-+	c #787A85",
";+	c #38383E",
">+	c #A0A2AF",
",+	c #C1C0D0",
"'+	c #CCCCD8",
")+	c #D0D0DB",
"!+	c #C5C4D2",
"~+	c #BFBFCF",
"{+	c #BBBDCB",
"]+	c #AAACB9",
"^+	c #92949F",
"/+	c #5C5D64",
"(+	c #5F6067",
"_+	c #91939D",
":+	c #9EA1AB",
"<+	c #A0A3AC",
"[+	c #9EA1AA",
"}+	c #A4A6B0",
"|+	c #9EA0AB",
"1+	c #9799A3",
"2+	c #9699A3",
"3+	c #A6A9B4",
"4+	c #B3B5C2",
"5+	c #3F3F44",
"6+	c #9B9CA8",
"7+	c #BCBECC",
"8+	c #BFC0CF",
"9+	c #C9C9D6",
"0+	c #D2D2DD",
"a+	c #C7C6D3",
"b+	c #BDBDCB",
"c+	c #B4B7C4",
"d+	c #A6A8B4",
"e+	c #979AA4",
"f+	c #80838B",
"g+	c #434549",
"h+	c #28282C",
"i+	c #74767E",
"j+	c #92959D",
"k+	c #979AA3",
"l+	c #989BA4",
"m+	c #9A9DA6",
"n+	c #9DA0A9",
"o+	c #A1A4AE",
"p+	c #9A9DA7",
"q+	c #9699A2",
"r+	c #A2A4AE",
"s+	c #9B9DA9",
"t+	c #333236",
"u+	c #80818A",
"v+	c #B8B9C8",
"w+	c #BCBDCB",
"x+	c #BDBDCA",
"y+	c #BEBEC9",
"z+	c #B1B1BC",
"A+	c #A3A5AF",
"B+	c #A1A3AD",
"C+	c #9A9CA5",
"D+	c #868992",
"E+	c #62656B",
"F+	c #18191B",
"G+	c #4D4F54",
"H+	c #80838A",
"I+	c #999CA5",
"J+	c #A7A9B4",
"K+	c #A7AAB4",
"L+	c #A7AAB5",
"M+	c #B7B9C5",
"N+	c #A8ABB6",
"O+	c #5A5B62",
"P+	c #1A1B1D",
"Q+	c #050507",
"R+	c #525258",
"S+	c #84858F",
"T+	c #93959F",
"U+	c #8D8E97",
"V+	c #808189",
"W+	c #74757D",
"X+	c #74767D",
"Y+	c #73757B",
"Z+	c #66686E",
"`+	c #56575D",
" @	c #2E2F33",
".@	c #64676D",
"+@	c #898C94",
"@@	c #9799A4",
"#@	c #A2A5B0",
"$@	c #B0B2BF",
"%@	c #A3A6B1",
"&@	c #A6A8B3",
"*@	c #A2A4AF",
"=@	c #A6A8B5",
"-@	c #9C9FA9",
";@	c #9497A0",
">@	c #91949D",
",@	c #7E8189",
"'@	c #3F4145",
")@	c #0C0C0D",
"!@	c #222325",
"~@	c #2F3034",
"{@	c #121315",
"]@	c #1A1B1E",
"^@	c #151618",
"/@	c #131416",
"(@	c #19191C",
"_@	c #767980",
":@	c #93969E",
"<@	c #A0A2AD",
"[@	c #A0A3AE",
"}@	c #9497A1",
"|@	c #92959E",
"1@	c #90929C",
"2@	c #92959F",
"3@	c #8F929C",
"4@	c #888B95",
"5@	c #72747C",
"6@	c #3A3B3F",
"7@	c #525459",
"8@	c #868990",
"9@	c #9B9EA7",
"0@	c #9698A2",
"a@	c #93969F",
"b@	c #8C8F98",
"c@	c #898B95",
"d@	c #878994",
"e@	c #7A7C87",
"f@	c #595B62",
"g@	c #161719",
"h@	c #070708",
"i@	c #7A7C84",
"j@	c #858792",
"k@	c #696B75",
"l@	c #3D3E44",
"m@	c #28292D",
"n@	c #696C73",
"o@	c #65676E",
"p@	c #34353B",
"q@	c #151518",
"r@	c #7F8189",
"s@	c #47484D",
"t@	c #070709",
"u@	c #868890",
"v@	c #9C9FA8",
"w@	c #2D2E31",
"x@	c #141418",
"y@	c #040405",
"z@	c #505257",
"A@	c #7A7D85",
"B@	c #595B61",
"C@	c #5C5C65",
"D@	c #60616A",
"E@	c #44464B",
"F@	c #242427",
"G@	c #040404",
"H@	c #020202",
"I@	c #54565C",
"J@	c #7D8087",
"K@	c #898B96",
"L@	c #838591",
"M@	c #696B73",
"N@	c #101113",
"O@	c #303034",
"P@	c #A9ABB9",
"Q@	c #999BA7",
"R@	c #858791",
"S@	c #6D7078",
"T@	c #5B5C64",
"U@	c #47484E",
"V@	c #282A2D",
"W@	c #242527",
"X@	c #63646A",
"Y@	c #898A93",
"Z@	c #8D9099",
"`@	c #878A93",
" #	c #7B7E88",
".#	c #575961",
"+#	c #323439",
"@#	c #4C4D53",
"##	c #ABAEBA",
"$#	c #A9ACBA",
"%#	c #AAACBA",
"&#	c #AAADBB",
"*#	c #878A95",
"=#	c #6F727B",
"-#	c #5C5E65",
";#	c #494B51",
">#	c #38383D",
",#	c #54565B",
"'#	c #82858E",
")#	c #7F828C",
"!#	c #6C6D78",
"~#	c #36373D",
"{#	c #5A5B63",
"]#	c #A7A9B5",
"^#	c #B8BBC9",
"/#	c #9C9FAC",
"(#	c #8A8C98",
"_#	c #747780",
":#	c #5F6269",
"<#	c #4D4E54",
"[#	c #020303",
"}#	c #2A2A2E",
"|#	c #313237",
"1#	c #9EA1AE",
"2#	c #8C8F9A",
"3#	c #767981",
"4#	c #61636A",
"5#	c #4F5156",
"6#	c #36373C",
"7#	c #030303",
"8#	c #141417",
"9#	c #07080A",
"0#	c #3A3B42",
"a#	c #C1C3D2",
"b#	c #A0A3B0",
"c#	c #8F919C",
"d#	c #797C85",
"e#	c #63646C",
"f#	c #515259",
"g#	c #393A40",
"h#	c #121316",
"i#	c #50525B",
"j#	c #989AA7",
"k#	c #BDBFCD",
"l#	c #A2A5B3",
"m#	c #91939F",
"n#	c #7C7E89",
"o#	c #64666F",
"p#	c #111114",
"q#	c #060607",
"r#	c #1A1A1E",
"s#	c #565861",
"t#	c #9D9FAB",
"u#	c #BBBDCA",
"v#	c #A4A7B5",
"w#	c #9396A2",
"x#	c #7F818C",
"y#	c #666871",
"z#	c #020203",
"A#	c #1E1F22",
"B#	c #585A62",
"C#	c #9496A1",
"D#	c #A6A9B7",
"E#	c #9598A4",
"F#	c #81848E",
"G#	c #686A73",
"H#	c #585961",
"I#	c #212225",
"J#	c #040506",
"K#	c #53555E",
"L#	c #888A96",
"M#	c #A8ABB9",
"N#	c #979AA7",
"O#	c #848691",
"P#	c #6C6E76",
"Q#	c #46474D",
"R#	c #27282B",
"S#	c #33353A",
"T#	c #53565F",
"U#	c #838590",
"V#	c #B5B7C4",
"W#	c #AAADBA",
"X#	c #868993",
"Y#	c #6F7179",
"Z#	c #5B5D63",
"`#	c #1D1E21",
" $	c #34363B",
".$	c #595C64",
"+$	c #6E707A",
"@$	c #A9ABB8",
"#$	c #AAADB9",
"$$	c #9A9DA8",
"%$	c #7E818A",
"&$	c #343538",
"*$	c #252629",
"=$	c #0F0F11",
"-$	c #131417",
";$	c #3C3E44",
">$	c #5B5D66",
",$	c #696C75",
"'$	c #90929D",
")$	c #AFB1BD",
"!$	c #C0C2CF",
"~$	c #A6A9B6",
"{$	c #9DA0AB",
"]$	c #878892",
"^$	c #6C6D76",
"/$	c #45454B",
"($	c #18191A",
"_$	c #0C0D0F",
":$	c #414249",
"<$	c #5B5C66",
"[$	c #6B6E76",
"}$	c #7C7F88",
"|$	c #888B94",
"1$	c #A4A6B4",
"2$	c #9B9CAA",
"3$	c #8E8F9B",
"4$	c #53545A",
"5$	c #0E0E0F",
"6$	c #3B3B43",
"7$	c #5C5C64",
"8$	c #6C6F77",
"9$	c #7C7F87",
"0$	c #7F828B",
"a$	c #8A8D98",
"b$	c #A5A7B4",
"c$	c #B4B6C5",
"d$	c #A9AAB9",
"e$	c #414147",
"f$	c #0A0A0B",
"g$	c #313137",
"h$	c #5D5E67",
"i$	c #848791",
"j$	c #999CA6",
"k$	c #B5B7C5",
"l$	c #010001",
"m$	c #292930",
"n$	c #53535D",
"o$	c #6E6F79",
"p$	c #7E8089",
"q$	c #9698A5",
"r$	c #4C4C54",
"s$	c #0A090B",
"t$	c #383840",
"u$	c #66666F",
"v$	c #7D7D86",
"w$	c #80828B",
"x$	c #848790",
"y$	c #999BA6",
"z$	c #A1A3B1",
"A$	c #757681",
"B$	c #232428",
"C$	c #18181C",
"D$	c #49494F",
"E$	c #72727B",
"F$	c #7F818B",
"G$	c #9395A1",
"H$	c #B3B5C3",
"I$	c #B8BAC8",
"J$	c #A8AAB9",
"K$	c #999BA8",
"L$	c #3E3E44",
"M$	c #424348",
"N$	c #6B6E75",
"O$	c #797B84",
"P$	c #80828C",
"Q$	c #9D9FAA",
"R$	c #C4C6D5",
"S$	c #B6B8C6",
"T$	c #AAACBC",
"U$	c #A8A9B7",
"V$	c #7D7D87",
"W$	c #38393E",
"X$	c #65676F",
"Y$	c #A9ACB7",
"Z$	c #C3C5D3",
"`$	c #B1B2C3",
" %	c #B2B4C4",
".%	c #B8BAC7",
"+%	c #9697A2",
"@%	c #56565D",
"#%	c #494A50",
"$%	c #80838D",
"%%	c #8D909A",
"&%	c #AAACB8",
"*%	c #BFC1D0",
"=%	c #B5B8C4",
"-%	c #B6B8C5",
";%	c #B3B6C2",
">%	c #A9ACB6",
",%	c #3C3D43",
"'%	c #09090B",
")%	c #232427",
"!%	c #66696F",
"~%	c #C2C4D3",
"{%	c #C5C7D6",
"]%	c #C1C3D1",
"^%	c #BCBECB",
"/%	c #A5A8B2",
"(%	c #A0A3AB",
"_%	c #989AA2",
":%	c #6F7177",
"<%	c #121214",
"[%	c #0E0F11",
"}%	c #37393D",
"|%	c #686B72",
"1%	c #7B7E87",
"2%	c #8B8D98",
"3%	c #C0C2D0",
"4%	c #C3C5D4",
"5%	c #ADAFBD",
"6%	c #9FA2AD",
"7%	c #4D4F53",
"8%	c #3F4146",
"9%	c #7D8089",
"0%	c #81848D",
"a%	c #A8ABB4",
"b%	c #C2C4D1",
"c%	c #C7C8D6",
"d%	c #C6C7D7",
"e%	c #C4C6D4",
"f%	c #C2C4D0",
"g%	c #BDBFCC",
"h%	c #BDC0CD",
"i%	c #B9BBC7",
"j%	c #A2A5AF",
"k%	c #9D9FA9",
"l%	c #686A71",
"m%	c #141416",
"n%	c #47494F",
"o%	c #696C74",
"p%	c #787B84",
"q%	c #7A7C85",
"r%	c #767982",
"s%	c #80838C",
"t%	c #BBBEC8",
"u%	c #C5C7D8",
"v%	c #C5C6D7",
"w%	c #AEB1BB",
"x%	c #ABADB7",
"y%	c #A2A5AE",
"z%	c #9FA2AA",
"A%	c #94969F",
"B%	c #7E7F88",
"C%	c #505158",
"D%	c #26272A",
"E%	c #5A5C63",
"F%	c #73767E",
"G%	c #777982",
"H%	c #767881",
"I%	c #82838C",
"J%	c #9A9CA3",
"K%	c #B4B6BE",
"L%	c #B5B7C3",
"M%	c #C2C3D3",
"N%	c #C4C6D6",
"O%	c #A1A4AD",
"P%	c #6C6C76",
"Q%	c #3B3B41",
"R%	c #4A4C51",
"S%	c #5B5D64",
"T%	c #74747D",
"U%	c #92939C",
"V%	c #AAABB1",
"W%	c #B3B4BA",
"X%	c #8E909A",
"Y%	c #A5A6B6",
"Z%	c #9599A2",
"`%	c #83858E",
" &	c #7F808A",
".&	c #5F5F67",
"+&	c #18181B",
"@&	c #1D1D20",
"#&	c #3C3C42",
"$&	c #5E5E64",
"%&	c #8D8E95",
"&&	c #A7A7AE",
"*&	c #84858E",
"=&	c #8E909B",
"-&	c #BABCC8",
";&	c #878B93",
">&	c #787B83",
",&	c #6C6D75",
"'&	c #434348",
")&	c #1C1C1F",
"!&	c #3F4042",
"~&	c #79797D",
"{&	c #86868D",
"]&	c #7C7E86",
"^&	c #92949E",
"/&	c #A0A3AD",
"(&	c #91939C",
"_&	c #82858D",
":&	c #53555B",
"<&	c #191A1C",
"[&	c #0D0D0D",
"}&	c #333335",
"|&	c #57585F",
"1&	c #7E8088",
"2&	c #B2B4C1",
"3&	c #A9ACB8",
"4&	c #868991",
"5&	c #797C83",
"6&	c #787A82",
"7&	c #6B6B73",
"8&	c #3F4045",
"9&	c #313236",
"0&	c #050607",
"a&	c #000001",
"b&	c #4B4C51",
"c&	c #868892",
"d&	c #9598A0",
"e&	c #404145",
"f&	c #3B3D41",
"g&	c #36363A",
"h&	c #0B0B0C",
"i&	c #65676D",
"j&	c #84868E",
"k&	c #484A4F",
"l&	c #101112",
"m&	c #040505",
"n&	c #2E2F32",
"o&	c #5B5C62",
"p&	c #3D3E43",
"q&	c #0E0F10",
"r&	c #323437",
"s&	c #64666C",
"t&	c #323237",
"u&	c #292B2E",
"v&	c #101111",
"                                                                                                                                ",
"                                                                                                                                ",
"                                                                                                                                ",
"                                                                              . + @                                             ",
"                                                                            # $ % & * = -                                       ",
"                                                                        ; > , ' ) ! ~ { ] ^ /                                   ",
"                        ( _ :   <                                     [ } | 1 2 3 4 4 5 6 7 8 9 0                               ",
"                    a b c d e f g h i                               j k l m n o p 4 4 4 4 4 q r s t u                           ",
"                  v w x y z A B B C D E F                             G H I J K L M 4 4 4 4 4 N O P Q   R                       ",
"                : S T q U V V W X Y Z `  ...                        +.@.#.I I I n $.3 3 4 4 4 4 4 %.&.*.=.-.                    ",
"                -.;.>.4 4 ! 4 ! N ,.'.).!.                          < @.~.I I I I {.].^.4 /.3 /.4 4 (._.:.<.[.}.                ",
"              < |.1./././.3 4 4 4 4 ! &.2.                          F 3.4.I I I I J 5.6.7.8.8.9.0.a./.N %.N 4 b.c.d.            ",
"              e.f.g.h.h.p ^.i.3 4 4 %.j.k.                            l.m.I I I n.o.p.q.r.:.g.s.t.u.v.i.5.4 w.U x.y.z.          ",
"              A.B.C.7.7.D.2 p i.4 5.E.F.G.                          H.I.J.K.K.L.M.N.O.P.Q.m Q.Q.Q.Q.R.s.5.S.9.3 %.T.U.          ",
"              V.K h.W.X.Y.Z.7.9.`.C. +.+++                            @+#+$+o.%+r.&+Q.Q.Q.Q.Q.Q.Q.Q.Q.Q.N.*+o (.=+%.-+-         ",
"              ;+>+8.,+'+)+!+~+D.{+]+^+/+                                (+_+:+<+<+[+Q.Q.Q.Q.Q.Q.Q.Q.Q.}+t.|+1+2+3+4+Y d.        ",
"              5+6+7+8+9+0+a+b+c+d+e+f+g+                                h+i+j+k+l+m+n+[+Q.Q.Q.Q.Q.Q.o+ +s.p+q+q+q+r+s+d         ",
"              t+u+v+w+x+y+z+A+B+C+D+E+F+                                  G+H+k+k+k+l+I+p+B+J+R.K+L+M+N+q+q+q+q+q+k+I O+P+      ",
"              Q+R+S+T+U+V+W+X+Y+Z+`+ @                                      .@+@k+k+k+@@#@$@%@&@*@=@-@;@L.q+q+q+q+>@,@'@        ",
"                )@!@~@{@]@_ ^@/@(@                                           @_@:@I+I+<@[@}@|@1@_+I I I |@T+2@3@4@5@6@u         ",
"                                                                              7@8@q+9@0@J a@;@a@>@J J I b@c@d@e@f@g g@          ",
"                                                                              h@i@J |@a@k+L.n+n+9@I+L.J b@j@k@l@m@              ",
"                                                                              F+n@|@;@;@>@>@;@Q.Q.Q.[+n+a@o@p@q@                ",
"                                                                                n@>@>@I I I I q+n+Q.Q.:@r@s@                    ",
"                                                                              t@j u@b@I I I I H l+v@[+H+w@                      ",
"          < x@q@( y@H.                                                            z@A@I I I I I 3@2@|@B@+.                      ",
"          h+C@D@O+E@F@( G@H@                                                        I@J@I I I H K@L@M@N@                        ",
"          O@} P@Q@R@S@T@U@V@h@y@H@                                                  W@X@Y@Z@Z@`@ #.#+#e.                        ",
"        H@@###4 $#%#&#T.*#=#-#;# @_ v H@                                              >#,#5@'#)#!#~#                            ",
"          {#]#^#U W W W V &#/#(#_#:#<#j _ F [#                                          A.}#; C@|#H@                            ",
"          $ Y p ! V V V W W $#V &#1#2#3#4#5#6#+ F 7#                                          8#e.                              ",
"        9#0#&.a#4 N N %.w.V V W W $#V &#b#c#d#e#f#g#R Q+: <                                                                     ",
"        h#i#j#k#a.4 4 4 4 ! N U V V W W W %#&#l#m#n#o#I@l@p#q#: <                                                               ",
"        r#s#t#u#`.4 4 4 4 4 4 ! ! %.U V W W W W %#&#v#w#x#y#D z.]@i G@<                                                         ",
"      z#A#B#C#W.a.4 4 4 4 4 4 4 4 ! ! N w.V W W W W W $#&#D#E#F#G#H#2.I#i y@H.                                                  ",
"      J#d.K#L#7.^.4 4 4 4 4 4 4 4 4 4 4 ! N w.U V W W W W W $#V M#N#O#P#{#Q#R#i H.                                              ",
"      7#S#T#U#V#{+3 4 4 4 4 4 4 4 4 4 4 4 4 4 ! %.U V V W W W W W $#V W#n X#Y#Z#6@`#                                            ",
"      7# $.$+$@$7+^.3 4 4 4 4 4 4 4 4 4 4 4 4 4 4 ! N %.U U V W W W W W $#]+#$$$%$f@&$*$=$                                      ",
"      -$;$>$,$'$)$!$9./.4 4 4 4 4 4 4 4 4 4 4 4 4 4 4 ! ! N %.w.V W W W W W W P@~${$]$^$/$($H@                                  ",
"      _$:$<$[$}$|$]#p p i././.4 4 4 4 4 4 4 4 4 4 4 4 4 4 4 ! ! N w.V W W W W W W W 1$2$3$4$5$                                  ",
"        6$7$8$9$0$a$b$7+a#2 C.c$4 4 4 4 4 4 4 4 4 4 4 4 4 4 4 4 4 ! %.U W W W W W W W W d$e$f$                                  ",
"      R g$h$8$%$0$0$i$j$k$6.^.3 4 4 4 4 4 4 4 4 4 4 4 4 4 4 4 4 4 4 4 N U W W W W W W W O T@(@l$                                ",
"        m$n$o$p$0$0$0$0$q$5.0.3 4 4 4 4 4 4 4 4 4 4 4 4 4 4 4 4 4 4 4 4 %.W W W W W W W X L#r$s$                                ",
"        t@t$u$v$w$0$0$0$x$y$a.h.^.i./.i.4 4 4 4 4 4 4 4 4 4 4 4 4 4 4 4 ! U W W W W W W W z$A$B$                                ",
"          C$D$E$F$0$0$0$0$F#G$H$6.S.6.I$M 4 4 4 4 4 4 4 4 4 4 4 4 4 4 4 4 %.V W W W W W W J$K$L$                                ",
"          7#(@M$N$O$0$0$0$0$P$Q$7+R$7.S$3 4 4 4 4 4 4 4 4 4 4 4 4 4 4 4 4 N T$V W W V V 6 (.U$V$                                ",
"                W$X$}$0$0$0$0$c@Y$Z$8.4 4 4 4 4 4 4 4 4 4 4 4 4 4 4 4 4 3 `$ %i.3 `.i.S$.%a.+%@%                                ",
"                0 #%3#0$0$0$0$$%%%&%v.S$3 4 4 4 4 4 4 4 4 4 4 i.^.`.`.`.C.7.*%*%W.=%-%;%>%y$,%'%                                ",
"                z#)%!%%$0$0$0$0$f+|$d+=+p `.i.3 4 4 3 4 3 3 3 C.~%{%~%W.]%^%-%E.L+/%o+(%_%:%<%                                  ",
"                  [%}%|%1%0$0$0$0$0$2%]+]%3%2 p p 9.C.=+p 9.2 S.4%~%u#-%5%&@*@6%m Q.Q.Q.u@7%f$                                  ",
"                    _ 8%G 9%0$0$0$}$d#0%a%b%c%d%4%~%e%f%g%h%i%V#4+&+R.j%m Q.Q.Q.Q.Q.k%L.l%m%<                                   ",
"                      0 n%o%p%%$%$q%r%s%(%t%e%u%v%a#v.w%x%/%P.y%Q.m Q.z%Q.Q.Q.Q.Q.v@A%B%C%_                                     ",
"                        7#D%E%F%1%G%H%I%J%K%L%M%N%0.&@O%Q.z%Q.Q.Q.Q.Q.Q.Q.Q.Q.Q.[+j+]$P%Q%y@                                    ",
"                          R  @R%S%c T%U%V%W%X%Y%a#p.o+Q.Q.Q.Q.Q.Q.Q.Q.Q.Q.Q.Q.n+Z%`% &.&+&<                                     ",
"                            < h@@&#&$&%&V%&&*&=&-&M+<+[+Q.Q.Q.[+Q.[+[+[+n+v@9@;@;&>&,&'&q#                                      ",
"                                7#0 )&!&~&{&]&^&M+-%/&9@n+n+9@9@9@m+m+l+k+L.(&_&N$:&I.<&<                                       ",
"                                      [&}&D$|&1&2&3&m+q+q+q+q+L.L.;@Z@4&5&6&7&8&9&0&z#a&                                        ",
"                                        < H@=$b&c&Z@a@d&L.L.L.L.;@J.o@e&f&g&+&h&                                                ",
"                                              : t@)%i&j&a@L.}@>@,@k&l&: z#                                                      ",
"                                                  m&n&o&J.H ~.^$p&q&                                                            ",
"                                                      '%r&s&B@t&u                                                               ",
"                                                        + u&v&                                                                  ",
"                                                                                                                                ",
"                                                                                                                                "};
