/* XPM */
static char * wall1_xpm[] = {
"64 64 659 2",
"  	c #000000",
". 	c #040404",
"+ 	c #18181B",
"@ 	c #19191C",
"# 	c #030304",
"$ 	c #161618",
"% 	c #424348",
"& 	c #6A6B73",
"* 	c #6E6E76",
"= 	c #343539",
"- 	c #050506",
"; 	c #131314",
"> 	c #55555B",
", 	c #868891",
"' 	c #A0A2AD",
") 	c #A6A8B4",
"! 	c #80828B",
"~ 	c #36363B",
"{ 	c #060607",
"] 	c #4B4C52",
"^ 	c #9798A3",
"/ 	c #A6A8B3",
"( 	c #A3A5B0",
"_ 	c #9B9DA8",
": 	c #9496A0",
"< 	c #787A83",
"[ 	c #3A3A3E",
"} 	c #030303",
"| 	c #2D2C2C",
"1 	c #52504F",
"2 	c #2A2A2E",
"3 	c #84868F",
"4 	c #B8BAC8",
"5 	c #B4B6C4",
"6 	c #9D9FAA",
"7 	c #9598A1",
"8 	c #9699A2",
"9 	c #979AA3",
"0 	c #6A6B72",
"a 	c #121314",
"b 	c #010000",
"c 	c #646261",
"d 	c #93918F",
"e 	c #8D8A88",
"f 	c #5C5A58",
"g 	c #010101",
"h 	c #3A3B40",
"i 	c #93959F",
"j 	c #B1B3C1",
"k 	c #B5B7C6",
"l 	c #B2B5C2",
"m 	c #9EA1AC",
"n 	c #9A9DA6",
"o 	c #9DA0A9",
"p 	c #7A7C83",
"q 	c #1D1D1F",
"r 	c #807D7C",
"s 	c #BDBAB7",
"t 	c #AEAAA8",
"u 	c #666260",
"v 	c #191716",
"w 	c #101113",
"x 	c #4A4B51",
"y 	c #90929D",
"z 	c #ADAFBE",
"A 	c #B7B9C8",
"B 	c #B5B7C5",
"C 	c #A4A6B1",
"D 	c #9EA1AA",
"E 	c #7D8087",
"F 	c #242427",
"G 	c #222120",
"H 	c #84817F",
"I 	c #B3B0AD",
"J 	c #A09C99",
"K 	c #625F5C",
"L 	c #292726",
"M 	c #070708",
"N 	c #414248",
"O 	c #8A8C97",
"P 	c #ADAFBD",
"Q 	c #BABCCB",
"R 	c #B2B4C1",
"S 	c #A1A4AD",
"T 	c #8E9199",
"U 	c #3B3B3F",
"V 	c #020202",
"W 	c #585654",
"X 	c #716E6C",
"Y 	c #686562",
"Z 	c #3C3A37",
"` 	c #3B3C41",
" .	c #787A84",
"..	c #A2A4B1",
"+.	c #B7B8C6",
"@.	c #AFB1BD",
"#.	c #9FA1AC",
"$.	c #696971",
"%.	c #141417",
"&.	c #191817",
"*.	c #191A1D",
"=.	c #45464C",
"-.	c #74757E",
";.	c #93939E",
">.	c #A8ABB6",
",.	c #868790",
"'.	c #242428",
").	c #0C0C0F",
"!.	c #2A2A2D",
"~.	c #64656C",
"{.	c #53545A",
"].	c #0E0E10",
"^.	c #131316",
"/.	c #0B0B0D",
"(.	c #010102",
"_.	c #070707",
":.	c #595960",
"<.	c #63646B",
"[.	c #70717A",
"}.	c #6A6B74",
"|.	c #5C5E66",
"1.	c #666770",
"2.	c #5B5D63",
"3.	c #4A4B50",
"4.	c #DFDBD8",
"5.	c #CBC7C4",
"6.	c #BBB7B5",
"7.	c #414146",
"8.	c #797982",
"9.	c #9899A5",
"0.	c #AEB0BE",
"a.	c #A7A9B7",
"b.	c #ACAEBD",
"c.	c #A8AAB8",
"d.	c #AFB1BF",
"e.	c #A8AAB6",
"f.	c #7F818A",
"g.	c #505257",
"h.	c #0A0A0C",
"i.	c #222227",
"j.	c #CECAC7",
"k.	c #C5C1BE",
"l.	c #BFBBB8",
"m.	c #9A9693",
"n.	c #5C5C63",
"o.	c #888792",
"p.	c #A2A3B0",
"q.	c #B0B2C1",
"r.	c #B8BAC9",
"s.	c #A6A8B6",
"t.	c #8B8D98",
"u.	c #6B6B73",
"v.	c #3E3E44",
"w.	c #222226",
"x.	c #47484E",
"y.	c #4B4B51",
"z.	c #51515A",
"A.	c #6A6A74",
"B.	c #80818D",
"C.	c #72727D",
"D.	c #494950",
"E.	c #17171B",
"F.	c #26272A",
"G.	c #0F1011",
"H.	c #B8B4B1",
"I.	c #BAB6B3",
"J.	c #ACA8A5",
"K.	c #76726F",
"L.	c #29292D",
"M.	c #6E6E77",
"N.	c #92939F",
"O.	c #AAACBB",
"P.	c #B3B5C4",
"Q.	c #C0C2D0",
"R.	c #A1A3AF",
"S.	c #8C8E98",
"T.	c #7B7C85",
"U.	c #74757F",
"V.	c #8A8C95",
"W.	c #8B8D97",
"X.	c #A3A5B1",
"Y.	c #9C9EAB",
"Z.	c #A5A6B6",
"`.	c #A4A5B4",
" +	c #A4A4B3",
".+	c #9B9BA9",
"++	c #868892",
"@+	c #101112",
"#+	c #95918E",
"$+	c #6D6966",
"%+	c #5B5754",
"&+	c #7C7B85",
"*+	c #9B9CA9",
"=+	c #BCBECC",
"-+	c #9C9FA9",
";+	c #8D9099",
">+	c #7E8189",
",+	c #81838D",
"'+	c #90929C",
")+	c #9B9EA8",
"!+	c #A6A8B5",
"~+	c #A6A8B7",
"{+	c #A7A8B7",
"]+	c #B4B6C5",
"^+	c #989AA7",
"/+	c #484950",
"(+	c #606067",
"_+	c #878792",
":+	c #A5A6B4",
"<+	c #B6B8C7",
"[+	c #C4C6D5",
"}+	c #C0C2D1",
"|+	c #A4A5B2",
"1+	c #8D8F99",
"2+	c #81848D",
"3+	c #787B83",
"4+	c #8F919B",
"5+	c #9C9FAA",
"6+	c #A4A6B4",
"7+	c #BDBFCD",
"8+	c #9396A0",
"9+	c #333337",
"0+	c #1C1C1F",
"a+	c #585860",
"b+	c #8E8F9B",
"c+	c #BBBDCC",
"d+	c #C1C3D2",
"e+	c #C8C9D6",
"f+	c #BFBFC9",
"g+	c #9C9EA7",
"h+	c #82848D",
"i+	c #7D8089",
"j+	c #91949E",
"k+	c #A7A9B8",
"l+	c #B0B2BE",
"m+	c #39393D",
"n+	c #252529",
"o+	c #8D8E9B",
"p+	c #B1B3C2",
"q+	c #C2C4D3",
"r+	c #BEBEC8",
"s+	c #CCCCD6",
"t+	c #B8B9C2",
"u+	c #7E8089",
"v+	c #82858E",
"w+	c #999CA6",
"x+	c #A5A7B3",
"y+	c #A7A9B6",
"z+	c #ABADBC",
"A+	c #AEB0BF",
"B+	c #BCBDCE",
"C+	c #BEC0CE",
"D+	c #9C9EA9",
"E+	c #8A8D96",
"F+	c #08080A",
"G+	c #676871",
"H+	c #A2A4B2",
"I+	c #B2B4C3",
"J+	c #BFC1CF",
"K+	c #A6A9B4",
"L+	c #A0A3AC",
"M+	c #A5A7B0",
"N+	c #CBCBD5",
"O+	c #C3C3CC",
"P+	c #9B9CA4",
"Q+	c #A9ACB7",
"R+	c #B3B5C3",
"S+	c #BFC1D1",
"T+	c #C4C5D7",
"U+	c #4E5056",
"V+	c #0D0D0F",
"W+	c #57585F",
"X+	c #A5A7B5",
"Y+	c #B0B2C0",
"Z+	c #BFC1D0",
"`+	c #B5B8C4",
" @	c #A0A3AD",
".@	c #9FA2AB",
"+@	c #A4A6AF",
"@@	c #B6B7C0",
"#@	c #C5C5CD",
"$@	c #96969E",
"%@	c #8D8F9A",
"&@	c #C1C3D1",
"*@	c #B7B9C6",
"=@	c #AFB1BB",
"-@	c #9FA1AD",
";@	c #A7A8B6",
">@	c #8E919A",
",@	c #7A7D86",
"'@	c #4A4C52",
")@	c #63646C",
"!@	c #ABADBB",
"~@	c #BBBDCB",
"{@	c #AFB2BD",
"]@	c #A4A7B0",
"^@	c #9FA2AC",
"/@	c #ABADB6",
"(@	c #A3A5AD",
"_@	c #888A92",
":@	c #9EA0AD",
"<@	c #BCBECE",
"[@	c #9598A2",
"}@	c #868992",
"|@	c #80838B",
"1@	c #B0B2BF",
"2@	c #9EA0AC",
"3@	c #757880",
"4@	c #44464B",
"5@	c #040405",
"6@	c #5F6069",
"7@	c #BEC0CF",
"8@	c #BABCC9",
"9@	c #AFB2BC",
"0@	c #9698A1",
"a@	c #AAACBA",
"b@	c #AEB1BB",
"c@	c #7F828B",
"d@	c #878A92",
"e@	c #A4A6B2",
"f@	c #A1A3AE",
"g@	c #6A6C73",
"h@	c #303235",
"i@	c #64656E",
"j@	c #A8AAB9",
"k@	c #B9BBCA",
"l@	c #C3C5D4",
"m@	c #B8BAC7",
"n@	c #AFB2BB",
"o@	c #A2A5AF",
"p@	c #B0B3BF",
"q@	c #848690",
"r@	c #797C85",
"s@	c #7E818A",
"t@	c #80818A",
"u@	c #616167",
"v@	c #38383C",
"w@	c #141518",
"x@	c #767883",
"y@	c #BCBECD",
"z@	c #A8AAB7",
"A@	c #A3A6B1",
"B@	c #8E909C",
"C@	c #797B85",
"D@	c #7B7E87",
"E@	c #676A72",
"F@	c #3B3E42",
"G@	c #27282C",
"H@	c #9697A3",
"I@	c #ABAEBB",
"J@	c #A0A3AE",
"K@	c #A4A7B1",
"L@	c #A9ABB8",
"M@	c #757680",
"N@	c #333539",
"O@	c #131416",
"P@	c #858692",
"Q@	c #A9ABB9",
"R@	c #A1A3AD",
"S@	c #9B9EA7",
"T@	c #A2A4AE",
"U@	c #A8AAB4",
"V@	c #C1C3D0",
"W@	c #BCBECB",
"X@	c #8A8C98",
"Y@	c #4B4B53",
"Z@	c #28282B",
"`@	c #19191D",
" #	c #61626B",
".#	c #9A9CAA",
"+#	c #A5A7B4",
"@#	c #A2A5B0",
"##	c #A5A7B1",
"$#	c #9C9FA8",
"%#	c #A4A6B0",
"&#	c #AAACB8",
"*#	c #AFB1C0",
"=#	c #BEBFCD",
"-#	c #A9ACB6",
";#	c #989AA4",
">#	c #7C7D87",
",#	c #313136",
"'#	c #43444A",
")#	c #7C7F89",
"!#	c #A2A4B0",
"~#	c #9D9FAB",
"{#	c #9A9CA7",
"]#	c #A0A2AE",
"^#	c #A7A9B5",
"/#	c #ACAEBB",
"(#	c #C3C5D6",
"_#	c #7D7F88",
":#	c #1D1E21",
"<#	c #010202",
"[#	c #090A0B",
"}#	c #232327",
"|#	c #36373B",
"1#	c #5F6168",
"2#	c #91929E",
"3#	c #BDBECD",
"4#	c #91949C",
"5#	c #686A71",
"6#	c #242528",
"7#	c #404146",
"8#	c #707179",
"9#	c #8B8C96",
"0#	c #6E6F76",
"a#	c #3B3C40",
"b#	c #0B0B0C",
"c#	c #767680",
"d#	c #9596A2",
"e#	c #ACAEBC",
"f#	c #ADAFBB",
"g#	c #AEB0BC",
"h#	c #BBBCCB",
"i#	c #C5C7D6",
"j#	c #9497A1",
"k#	c #6B6E75",
"l#	c #3E4044",
"m#	c #1E1F22",
"n#	c #6A6A72",
"o#	c #B0B2BD",
"p#	c #AAACB7",
"q#	c #696A70",
"r#	c #171719",
"s#	c #2E2E32",
"t#	c #4B4C51",
"u#	c #9294A0",
"v#	c #B4B6C7",
"w#	c #92949E",
"x#	c #81848C",
"y#	c #6A6D74",
"z#	c #3F4146",
"A#	c #57565D",
"B#	c #868690",
"C#	c #B2B5C1",
"D#	c #ACAEB9",
"E#	c #505157",
"F#	c #151618",
"G#	c #3D3E44",
"H#	c #5E5F68",
"I#	c #B9BBCB",
"J#	c #C1C2D1",
"K#	c #B6B8C5",
"L#	c #989BA5",
"M#	c #878A93",
"N#	c #74767E",
"O#	c #5E6066",
"P#	c #252629",
"Q#	c #0A0A0B",
"R#	c #262629",
"S#	c #9799A2",
"T#	c #A1A4AE",
"U#	c #B3B6C3",
"V#	c #A3A4B0",
"W#	c #58585F",
"X#	c #060606",
"Y#	c #595A62",
"Z#	c #B5B6C5",
"`#	c #A8A9B6",
" $	c #999BA7",
".$	c #898C96",
"+$	c #7A7C85",
"@$	c #6C6E75",
"#$	c #35363A",
"$$	c #0E0E0F",
"%$	c #37373B",
"&$	c #686A70",
"*$	c #92949C",
"=$	c #B6B8C6",
"-$	c #B2B2BF",
";$	c #404147",
">$	c #52535A",
",$	c #45464B",
"'$	c #3E3F43",
")$	c #3E3F44",
"!$	c #1A1A1C",
"~$	c #323336",
"{$	c #66676D",
"]$	c #91949D",
"^$	c #A3A6B0",
"/$	c #B6B7C4",
"($	c #B8B9C6",
"_$	c #82838C",
":$	c #2C2C31",
"<$	c #020203",
"[$	c #252527",
"}$	c #525358",
"|$	c #75777D",
"1$	c #8C8F97",
"2$	c #A2A5AE",
"3$	c #BBBECB",
"4$	c #BDBECC",
"5$	c #9698A3",
"6$	c #09090A",
"7$	c #2E2F31",
"8$	c #595A5F",
"9$	c #8A8B93",
"0$	c #999CA4",
"a$	c #ABAEB9",
"b$	c #BABDCB",
"c$	c #A8A9B7",
"d$	c #0B0C0D",
"e$	c #555659",
"f$	c #9C9EA8",
"g$	c #BDBFCE",
"h$	c #A0A2B0",
"i$	c #5C5D66",
"j$	c #101013",
"k$	c #353538",
"l$	c #6D6D74",
"m$	c #999BA5",
"n$	c #ABADB9",
"o$	c #B9BBC9",
"p$	c #35353A",
"q$	c #9597A1",
"r$	c #989BA4",
"s$	c #999CA5",
"t$	c #9A9DA7",
"u$	c #73747E",
"v$	c #212225",
"w$	c #0D0E0F",
"x$	c #898A95",
"y$	c #9FA2AE",
"z$	c #6E6F79",
"A$	c #323339",
"B$	c #2E2F34",
"C$	c #2D2D32",
"D$	c #48484D",
"E$	c #1A1B1D",
"F$	c #121214",
"G$	c #525359",
"H$	c #858791",
"I$	c #9497A0",
"J$	c #6D6F78",
"K$	c #141416",
"L$	c #303136",
"M$	c #4E4F56",
"N$	c #696A74",
"O$	c #7F808C",
"P$	c #9A9CA8",
"Q$	c #9B9CA7",
"R$	c #84858F",
"S$	c #313236",
"T$	c #65666E",
"U$	c #9B9DA7",
"V$	c #9799A4",
"W$	c #9698A2",
"X$	c #9FA2AF",
"Y$	c #60616A",
"Z$	c #101012",
"`$	c #4E4E55",
" %	c #83848E",
".%	c #A2A3B1",
"+%	c #B1B2C1",
"@%	c #A9ABB7",
"#%	c #3C3D41",
"$%	c #2C2D31",
"%%	c #989AA5",
"&%	c #9598A0",
"*%	c #B9BCCA",
"=%	c #999BA8",
"-%	c #414349",
";%	c #191A1C",
">%	c #56575D",
",%	c #85868F",
"'%	c #9F9FAB",
")%	c #B6B9C6",
"!%	c #B7B9C7",
"~%	c #A7A8B4",
"{%	c #5F5F66",
"]%	c #1B1B1D",
"^%	c #2C2C2F",
"/%	c #8B8C97",
"(%	c #B1B3C0",
"_%	c #989BA6",
":%	c #AAADB9",
"<%	c #858792",
"[%	c #070809",
"}%	c #0C0C0D",
"|%	c #76777F",
"1%	c #ABADBA",
"2%	c #A7AAB5",
"3%	c #9C9DA8",
"4%	c #696A71",
"5%	c #4E4E54",
"6%	c #82828B",
"7%	c #9797A2",
"8%	c #ACAEBA",
"9%	c #B6B8C4",
"0%	c #9EA1AB",
"a%	c #9C9EAA",
"b%	c #2B2C30",
"c%	c #0C0D0F",
"d%	c #5A5A61",
"e%	c #787982",
"f%	c #8B8C95",
"g%	c #93969E",
"h%	c #A2A4AF",
"i%	c #606268",
"j%	c #060708",
"k%	c #3B3B40",
"l%	c #75757E",
"m%	c #8D8E98",
"n%	c #A7A9B3",
"o%	c #AFB1BE",
"p%	c #2A2B2E",
"q%	c #18191B",
"r%	c #303034",
"s%	c #36373A",
"t%	c #606267",
"u%	c #84868E",
"v%	c #9A9CA6",
"w%	c #ACADBA",
"x%	c #8E8F99",
"y%	c #4D4E54",
"z%	c #0F0F10",
"A%	c #222225",
"B%	c #4D4D53",
"C%	c #6C6E76",
"D%	c #7F828A",
"E%	c #8F929B",
"F%	c #9899A2",
"G%	c #9A9BA5",
"H%	c #ABACB8",
"I%	c #BABCCA",
"J%	c #54555B",
"K%	c #17181A",
"L%	c #494B4F",
"M%	c #787980",
"N%	c #888A93",
"O%	c #7D7F87",
"P%	c #36363A",
"Q%	c #070709",
"R%	c #151517",
"S%	c #3C3D42",
"T%	c #5B5C62",
"U%	c #74757D",
"V%	c #8D8D97",
"W%	c #9696A0",
"X%	c #B3B5C2",
"Y%	c #9C9DA7",
"Z%	c #62636A",
"`%	c #111213",
" &	c #313135",
".&	c #1F1F22",
"+&	c #141415",
"@&	c #444449",
"#&	c #75767E",
"$&	c #7F8088",
"%&	c #797B83",
"&&	c #70727A",
"*&	c #7E7F88",
"=&	c #797A84",
"-&	c #3F3F44",
";&	c #0F0F11",
">&	c #1E1E22",
",&	c #242527",
"'&	c #2C2D30",
"                                                                                                                                ",
"        . + @ #                                                                                                                 ",
"      $ % & * = -                                                                                                               ",
"    ; > , ' ) ! ~ {                                                                                                             ",
"  # ] ^ / ( _ : < [ }                                                               | 1                                         ",
"  2 3 4 5 6 7 8 9 0 a                                                           b c d e f                                       ",
"g h i j k l m n o p q                                                             r s t u v                                     ",
"  w x y z A B C D E F                                                           G H I J K L                                     ",
"    M N O P Q R S T U V                                                           W X Y Z                                       ",
"      { `  ...+.@.#.$.%.                                                              &.                                        ",
"        V *.=.-.;.>.,.'.                                                                                                        ",
"            g ).!.~.{.].                  {   ^./.  (.g                                                                         ",
"                  _.#                   :.<.[.}.|.1.2.3.                                                4.5.6.                  ",
"                                    7.8.9.0.a.b.c.d.e.f.g.      #   h.i.- /.                          j.k.l.m.                  ",
"                                  n.o.p.q.q.q.q.q.r.s.t.u.v.w.x.y.z.A.B.C.D.E.F.G.                    H.I.J.K.                  ",
"                              L.M.N.O.q.q.q.q.q.P.Q.R.S.T.U.V.W.X.Y.Z.`. +.+N.++@+                      #+$+%+                  ",
"                            y.&+*+q.q.q.q.q.q.q.A =+-+;+>+,+'+)+!+s.~+~+~+{+]+^+/+                                              ",
"                          (+_+:+q.q.q.q.q.q.q.<+[+}+|+1+2+3+4+5+6+~+~+~+~+P.7+8+9+}                                             ",
"                      0+a+b+z q.q.q.q.q.q.q.P.c+d+e+f+g+h+i+j+X.!+~+~+k+z Q l+, m+                                              ",
"                      n+o+z q.q.q.q.q.q.q.p+c+q+@.r+s+t+u+v+w+x+y+~+z+A+B+C+D+E+=.                                              ",
"                    F+G+H+p+q.q.q.q.q.q.I+J+7+K+L+M+N+O+P+++Q+R+I+r.4 S+T+l+: v+U+#                                             ",
"                    V+W+X+Y+q.q.q.q.q.]+Z+`+ @.@.@+@@@#@$@%@B Q.&@*@=@-@;@J+>@,@'@                                              ",
"                      )@!@q.q.q.q.q.A ~@{@]@^@.@.@.@/@(@_@:@<@]+[@>@}@|@[@1@2@3@4@.                                             ",
"                    5@6@a.q.q.I+<+7@8@9@]@.@.@.@.@.@.@L+0@a@<@b@i+i+c@c@d@e@f@g@h@                                              ",
"                    ^.i@j@P.r.k@l@m@n@]@.@.@.@.@.@.@D D o@P Z+p@q@r@s@c@c@t@u@v@5@                                              ",
"                    w@x@0.y@r.R+z@) ' .@.@.@.@.@D o ^@A@P p+c+q+B@C@D@c@E@F@L.                                                  ",
"                    G@H@A P.I@^@J@x+ @.@.@.@.@o .@K@L@q.q.]+d+d+a.,@M@W+N@O@                                                    ",
"                    g P@b.Q@( L+f@C R@.@.@o S@T@U@P q.q.k V@W@C+q.X@Y@Z@                                                        ",
"                    `@ #.#~++#@#-@##S .@$#$#%#&#*#q.q.P.c+=#-#;#Y+>#,#                                  5@                      ",
"                      '#)#X+!+!#-@~#^@{#]#^#/#q.q.p+I+<@(#e@>@>@_#:#                                <#[#}#|#2                   ",
"                        1#2#!#X.~#2@6 !+P A+q.q.I+<+d+3# @4#>@5#6#5@                                w 7#8#9#0#a#b#              ",
"                          c#d#/#e#f#g#1@q.q.p+P.h#i#4 e@j#d@k#l#                                  - m#n#: o#p#q#r#              ",
"                          s#t#u#H+d.Y+q.q.P.v#J+d+Y+R.w#x#y#z#                                    r#A#B#' C#D#E#F#              ",
"                              G#H#Y.O.p+r.I#J#K#..L#M#N#O#P#                                  g Q#R#T.S#T#U#V#W#X#              ",
"                                ].Y#o+Z#`#p# $.$+$@$N@#$                                    g $$%$&$*$D @#=$-$$.0+g             ",
"                                    ;$>$,$'$'@% )$5@{                                     { !$~${$]$$#.@^$/$($_$:$<$            ",
"                                          g   g                                         . [$}$|$1$$#.@.@2$3$4$5$] V+            ",
"                                                                                      6$7$8$9$0$o .@.@L+a$b$7+c$x d$            ",
"                                                                                      $ e$,.f$D .@.@.@R@R+C+g$h$i$j$            ",
"                                                                                    M k$l$m$o D D D .@n$o$Z+c+c. #`@g           ",
"                                                                                    5@p$>#q$r$n s$n t$R+g$y@k a.u$v$            ",
"                                                      # { g                         w$7#x$q$7 7 8 8 y$5 g$k@p+!@z$L.V           ",
"                                              g w.A$B$C$> D$E$                      F$G$H$I$7 7 7 7 m r.y@k q...J$m#            ",
"                4.5.6.                    K$L$M$N$O$B@P$Q$R$S$                    # Z@T$U$V$W$7 7 8 C =+~@p+q.X$Y$m#            ",
"              j.k.l.m.              V M Z$`$ %.%p++%Y+q.B @%#%}                   V $%! g#x+%%&%7 8 &#*%<+p+A+=%-%V             ",
"              H.I.J.K.              ;%>%,%'%@.)%g$!%5 =$k@~%{%]%                  { ^%/%f#(%!#_%8 L#:%g$P.q.0.<%;$[%            ",
"                #+$+%+              }%|%T#1%-#2%^#2%A@6 C 3%4%]%                  ].5%6%7%8%9%&#0%a%5 Q I+Y+L@3 b%5@            ",
"                                    c%d%e%f%g%$#D s$7 ;#h%m$i%j%                  . k%l%m%s$n%p#9@o%J+g$]+j @%|%p%              ",
"                                      q%r%s%t%u%$#v%I$P$w%x%y%z%                  g A%B%C%D%E%F%G%H%J+}+I%*@&#J%K%              ",
"                                          V w$L%M%N%O%>#R$u.P%5@                    Q%R%S%T%U%_$V%W%X%R (%@.Y%Z%r#              ",
"                                            g `% & &k%a#.&+&b#                          V+E$@&a+n.#&$&%&&&*&=&-&F$              ",
"                                                #     g g                                   ;&K$>&,&'&R#F.#$6#+                 ",
"                                                                                                (.  }   5@} V g                 ",
"                                                                                                                                ",
"                                                                                                                                ",
"                                                                                                                  | 1           ",
"                                                                                                              b c d e f         ",
"                                                                                                                r s t u v       ",
"                                                                                                              G H I J K L       ",
"                                                                                                                W X Y Z         ",
"                                                                                                                    &.          ",
"                                                                                                                                ",
"                                                                                                                                ",
"                                                                                                                                "};
