/* XPM */
static char * wall0_xpm[] = {
"64 64 615 2",
"  	c None",
". 	c #000000",
"+ 	c #0A0B0C",
"@ 	c #17181A",
"# 	c #1C1C1F",
"$ 	c #09090A",
"% 	c #0E0E10",
"& 	c #1A1B1E",
"* 	c #303135",
"= 	c #3F4046",
"- 	c #757780",
"; 	c #5C5D64",
"> 	c #4F5057",
", 	c #101012",
"' 	c #070607",
") 	c #070809",
"! 	c #1D1E21",
"~ 	c #45454B",
"{ 	c #65656E",
"] 	c #83858F",
"^ 	c #9495A1",
"/ 	c #A5A6B3",
"( 	c #B3B5C3",
"_ 	c #B4B6C3",
": 	c #9697A3",
"< 	c #7F8089",
"[ 	c #62636B",
"} 	c #333436",
"| 	c #2C2C2E",
"1 	c #3A3B41",
"2 	c #80828C",
"3 	c #A2A3B1",
"4 	c #ACAEBC",
"5 	c #B8BAC9",
"6 	c #BDBFCE",
"7 	c #BCBECD",
"8 	c #BBBDCC",
"9 	c #B6B8C7",
"0 	c #B5B7C6",
"a 	c #ABADBA",
"b 	c #A4A5B2",
"c 	c #9A9BA6",
"d 	c #717177",
"e 	c #3B3B3E",
"f 	c #131315",
"g 	c #191A1C",
"h 	c #606269",
"i 	c #B4B6C4",
"j 	c #BDBECE",
"k 	c #B9BBCA",
"l 	c #B0B2C1",
"m 	c #B1B3C2",
"n 	c #B0B3C2",
"o 	c #B0B1BF",
"p 	c #ADAEBA",
"q 	c #84848F",
"r 	c #37383D",
"s 	c #161619",
"t 	c #020202",
"u 	c #767981",
"v 	c #AFB2BF",
"w 	c #BEC0CF",
"x 	c #BFC1D0",
"y 	c #B7B9C8",
"z 	c #B7B8C5",
"A 	c #B6B7C5",
"B 	c #B1B3C1",
"C 	c #AFB1C0",
"D 	c #A7A9B7",
"E 	c #9697A4",
"F 	c #686972",
"G 	c #1B1C1F",
"H 	c #0F1011",
"I 	c #202123",
"J 	c #65676E",
"K 	c #9497A1",
"L 	c #AAADB9",
"M 	c #B6B8C6",
"N 	c #C1C3D2",
"O 	c #BEC0CE",
"P 	c #BDBECD",
"Q 	c #B9BBC7",
"R 	c #CDCFD9",
"S 	c #BCBECB",
"T 	c #BABCCB",
"U 	c #B4B6C5",
"V 	c #B2B4C3",
"W 	c #ABADBC",
"X 	c #9FA0AE",
"Y 	c #878994",
"Z 	c #56575F",
"` 	c #27282C",
" .	c #191A1D",
"..	c #121214",
"+.	c #66686F",
"@.	c #8B8E97",
"#.	c #8C8F99",
"$.	c #999BA8",
"%.	c #ADAFBA",
"&.	c #B1B4BF",
"*.	c #AFB1BD",
"=.	c #B3B6C1",
"-.	c #B5B7C1",
";.	c #B1B4C0",
">.	c #ABAEBA",
",.	c #B0B2BF",
"'.	c #B1B4C2",
").	c #B3B5C4",
"!.	c #A8AAB9",
"~.	c #A2A4B2",
"{.	c #868893",
"].	c #393A3F",
"^.	c #0A0A0C",
"/.	c #151617",
"(.	c #525459",
"_.	c #888B94",
":.	c #8A8C97",
"<.	c #8E909D",
"[.	c #A6A8B4",
"}.	c #A3A6B0",
"|.	c #9EA1AA",
"1.	c #A1A4AD",
"2.	c #9FA2AB",
"3.	c #A0A3AC",
"4.	c #979AA3",
"5.	c #93969F",
"6.	c #A5A7B2",
"7.	c #B2B5C0",
"8.	c #B6B9C6",
"9.	c #A5A7B6",
"0.	c #757681",
"a.	c #25252A",
"b.	c #26262A",
"c.	c #676A71",
"d.	c #7F818C",
"e.	c #848692",
"f.	c #A9ABB7",
"g.	c #9C9FA8",
"h.	c #B0B2BE",
"i.	c #B2B4C2",
"j.	c #B4B7C3",
"k.	c #797A85",
"l.	c #36373C",
"m.	c #0D0E0F",
"n.	c #2C2D31",
"o.	c #35363B",
"p.	c #595A62",
"q.	c #6C6E75",
"r.	c #84878E",
"s.	c #8F919A",
"t.	c #9699A1",
"u.	c #999CA5",
"v.	c #A1A4AE",
"w.	c #9FA2AC",
"x.	c #A4A7B1",
"y.	c #A3A6AF",
"z.	c #8F919B",
"A.	c #56575E",
"B.	c #040405",
"C.	c #2B2C2F",
"D.	c #2E2E32",
"E.	c #525359",
"F.	c #66676E",
"G.	c #7C7E85",
"H.	c #9598A0",
"I.	c #91939C",
"J.	c #8E919A",
"K.	c #989AA3",
"L.	c #9D9FA7",
"M.	c #A0A2AB",
"N.	c #9B9DA6",
"O.	c #70727B",
"P.	c #2D2E33",
"Q.	c #010101",
"R.	c #09090B",
"S.	c #424347",
"T.	c #515256",
"U.	c #5B5D62",
"V.	c #57595E",
"W.	c #68686F",
"X.	c #67686E",
"Y.	c #787A81",
"Z.	c #85868E",
"`.	c #888A92",
" +	c #9799A1",
".+	c #8B8D95",
"++	c #767980",
"@+	c #4B4D53",
"#+	c #060607",
"$+	c #0D0D0E",
"%+	c #151618",
"&+	c #18191C",
"*+	c #323236",
"=+	c #3C3C40",
"-+	c #47484D",
";+	c #48494E",
">+	c #000101",
",+	c #050505",
"'+	c #060605",
")+	c #000001",
"!+	c #040505",
"~+	c #1C1C1E",
"{+	c #202122",
"]+	c #2D2E2E",
"^+	c #38383A",
"/+	c #2A2A2B",
"(+	c #444446",
"_+	c #3D3E40",
":+	c #1F1F22",
"<+	c #090A0C",
"[+	c #0B0C0D",
"}+	c #131416",
"|+	c #070708",
"1+	c #010102",
"2+	c #050506",
"3+	c #16171A",
"4+	c #28292D",
"5+	c #2F3034",
"6+	c #45464C",
"7+	c #393B3F",
"8+	c #1F2024",
"9+	c #040404",
"0+	c #17171A",
"a+	c #111113",
"b+	c #020203",
"c+	c #222225",
"d+	c #313135",
"e+	c #38383D",
"f+	c #58585E",
"g+	c #65666B",
"h+	c #6E7074",
"i+	c #8A8C93",
"j+	c #9FA0A6",
"k+	c #9A9B9F",
"l+	c #888990",
"m+	c #787881",
"n+	c #65656D",
"o+	c #62626B",
"p+	c #55575E",
"q+	c #52535B",
"r+	c #515259",
"s+	c #4E4F57",
"t+	c #4E4F56",
"u+	c #3E3F44",
"v+	c #4B4C51",
"w+	c #5A5C63",
"x+	c #4A4C53",
"y+	c #54555C",
"z+	c #70717C",
"A+	c #7A7C87",
"B+	c #72747D",
"C+	c #7E8089",
"D+	c #8A8C95",
"E+	c #858792",
"F+	c #80828D",
"G+	c #5C5E66",
"H+	c #25262A",
"I+	c #030303",
"J+	c #3F3F45",
"K+	c #414248",
"L+	c #4C4D54",
"M+	c #5D5D66",
"N+	c #595A61",
"O+	c #7D7F87",
"P+	c #8D8E99",
"Q+	c #9695A2",
"R+	c #A3A4AF",
"S+	c #B6B8C5",
"T+	c #B5B6C1",
"U+	c #B1B2BD",
"V+	c #ACAEB8",
"W+	c #A6A7B4",
"X+	c #A2A2AF",
"Y+	c #9D9EAC",
"Z+	c #999AA8",
"`+	c #9395A2",
" @	c #9698A5",
".@	c #9496A4",
"+@	c #91939F",
"@@	c #9698A4",
"#@	c #A0A1AF",
"$@	c #A6A8B5",
"%@	c #A6A8B6",
"&@	c #A9ABB9",
"*@	c #AEB0BE",
"=@	c #AAACBB",
"-@	c #A4A6B4",
";@	c #7F818B",
">@	c #2D2E32",
",@	c #0A0B0D",
"'@	c #414247",
")@	c #72737C",
"!@	c #8B8D97",
"~@	c #8A8C98",
"{@	c #8C8D99",
"]@	c #9FA1AE",
"^@	c #AFB1BF",
"/@	c #B2B4C0",
"(@	c #ACAEB9",
"_@	c #B2B4C1",
":@	c #B6B7C6",
"<@	c #B5B6C4",
"[@	c #B1B3C0",
"}@	c #B0B2C0",
"|@	c #B3B4C3",
"1@	c #B2B3C2",
"2@	c #AEB0C0",
"3@	c #6D6E76",
"4@	c #252629",
"5@	c #1F2023",
"6@	c #66676F",
"7@	c #ACAEBB",
"8@	c #BDC0CE",
"9@	c #B5B7C5",
"0@	c #BCBECC",
"a@	c #B8BAC8",
"b@	c #B0B1C1",
"c@	c #B0B2C2",
"d@	c #BABCCA",
"e@	c #73747E",
"f@	c #90929E",
"g@	c #AFB2C1",
"h@	c #AFB1C1",
"i@	c #C0C2D0",
"j@	c #7B7D86",
"k@	c #17181B",
"l@	c #212124",
"m@	c #53545B",
"n@	c #888995",
"o@	c #B4B5C5",
"p@	c #C2C4D1",
"q@	c #B8BBC6",
"r@	c #AFB1BB",
"s@	c #7D7F89",
"t@	c #3C3D43",
"u@	c #08080A",
"v@	c #030304",
"w@	c #161618",
"x@	c #5D5E65",
"y@	c #9496A1",
"z@	c #B2B4C4",
"A@	c #B5B7C7",
"B@	c #BEBFCF",
"C@	c #C2C4D2",
"D@	c #BEC0CD",
"E@	c #B2B5BF",
"F@	c #A7AAB3",
"G@	c #A3A6AE",
"H@	c #A1A3AC",
"I@	c #9A9DA6",
"J@	c #90929C",
"K@	c #787A85",
"L@	c #4A4B53",
"M@	c #0E0E11",
"N@	c #6F7078",
"O@	c #A7A9B5",
"P@	c #B7B9C7",
"Q@	c #B1B2C0",
"R@	c #B1B2BF",
"S@	c #BFC1D1",
"T@	c #C0C2D1",
"U@	c #BBBDCD",
"V@	c #BCBDCC",
"W@	c #C6C8D6",
"X@	c #C3C5D4",
"Y@	c #C4C6D4",
"Z@	c #ACAFBB",
"`@	c #9DA0A9",
" #	c #9598A1",
".#	c #3D3E45",
"+#	c #9597A3",
"@#	c #B2B3C1",
"##	c #BCBDC9",
"$#	c #C2C2CD",
"%#	c #B9B9C6",
"&#	c #B7B8C7",
"*#	c #C2C4D3",
"=#	c #BDBFCD",
"-#	c #AFB1BC",
";#	c #B3B5C1",
">#	c #B0B2BD",
",#	c #B4B6C1",
"'#	c #A6A8B3",
")#	c #A2A5B0",
"!#	c #80848D",
"~#	c #4E5157",
"{#	c #3D3E44",
"]#	c #B8B8C5",
"^#	c #C6C6D1",
"/#	c #CECFD8",
"(#	c #CACBD6",
"_#	c #BFBFCE",
":#	c #B1B3BF",
"<#	c #A0A2AC",
"[#	c #92959D",
"}#	c #9C9EA8",
"|#	c #9B9EA7",
"1#	c #7E818A",
"2#	c #41434A",
"3#	c #292A2E",
"4#	c #66666F",
"5#	c #898994",
"6#	c #ADAFBC",
"7#	c #B0B3C1",
"8#	c #AFB0BC",
"9#	c #C2C3CD",
"0#	c #D5D7E0",
"a#	c #D5D7E3",
"b#	c #C3C4D2",
"c#	c #B7B9C6",
"d#	c #ADAFBB",
"e#	c #9497A0",
"f#	c #8D9098",
"g#	c #686A72",
"h#	c #26272B",
"i#	c #303037",
"j#	c #6F707B",
"k#	c #A1A1AF",
"l#	c #B9B9C9",
"m#	c #C1C2D2",
"n#	c #BEC0D0",
"o#	c #B8BAC6",
"p#	c #C5C7D1",
"q#	c #D1D3DE",
"r#	c #CDD0DB",
"s#	c #B7BAC6",
"t#	c #A5A7B3",
"u#	c #8F929B",
"v#	c #91949D",
"w#	c #9FA2AA",
"x#	c #8A8D94",
"y#	c #5C5E63",
"z#	c #323437",
"A#	c #0F0F11",
"B#	c #101112",
"C#	c #53545C",
"D#	c #9798A5",
"E#	c #BABBCB",
"F#	c #BFC0D0",
"G#	c #BFC1CD",
"H#	c #C0C3CD",
"I#	c #BDC0CA",
"J#	c #9EA1AB",
"K#	c #90939C",
"L#	c #989BA4",
"M#	c #A0A3AB",
"N#	c #A2A4AD",
"O#	c #A3A5AE",
"P#	c #9597A0",
"Q#	c #6E7077",
"R#	c #2E3032",
"S#	c #212225",
"T#	c #71737C",
"U#	c #C1C2D1",
"V#	c #C2C3D2",
"W#	c #BFC0CE",
"X#	c #A8ABB5",
"Y#	c #A1A2AC",
"Z#	c #909099",
"`#	c #7D7D85",
" $	c #6A6A71",
".$	c #0C0D0E",
"+$	c #3A3B40",
"@$	c #9294A0",
"#$	c #B9BBC9",
"$$	c #C1C4D2",
"%$	c #B3B6C2",
"&$	c #92959E",
"*$	c #A4A6B0",
"=$	c #9798A2",
"-$	c #84848D",
";$	c #6D6C74",
">$	c #57575D",
",$	c #3A3A3E",
"'$	c #202023",
")$	c #0F0F12",
"!$	c #61626B",
"~$	c #A5A7B4",
"{$	c #BDBFCF",
"]$	c #C5C7D6",
"^$	c #A4A7B0",
"/$	c #9699A2",
"($	c #A1A4AC",
"_$	c #A3A5AF",
":$	c #9DA1AA",
"<$	c #8C8E96",
"[$	c #77787F",
"}$	c #616269",
"|$	c #47474D",
"1$	c #161518",
"2$	c #3C3E42",
"3$	c #A7AAB7",
"4$	c #C2C4D4",
"5$	c #C4C6D5",
"6$	c #BFC1CF",
"7$	c #ABADB9",
"8$	c #9FA2AD",
"9$	c #9498A1",
"0$	c #A3A4AE",
"a$	c #A5A6AF",
"b$	c #95969E",
"c$	c #80828A",
"d$	c #696B71",
"e$	c #53545A",
"f$	c #323336",
"g$	c #1F2022",
"h$	c #81838C",
"i$	c #A7A9B6",
"j$	c #BBBDCB",
"k$	c #BABCC9",
"l$	c #A4A6AF",
"m$	c #9EA1A8",
"n$	c #9799A3",
"o$	c #9C9CA7",
"p$	c #90909A",
"q$	c #787880",
"r$	c #5E5E65",
"s$	c #434348",
"t$	c #0F1012",
"u$	c #4D4F55",
"v$	c #878A94",
"w$	c #9396A1",
"x$	c #9DA0AB",
"y$	c #9D9FAA",
"z$	c #9A9DA8",
"A$	c #9EA0AB",
"B$	c #818390",
"C$	c #989AA8",
"D$	c #AAADB7",
"E$	c #9EA1A9",
"F$	c #85868F",
"G$	c #7C7C84",
"H$	c #67676D",
"I$	c #39393D",
"J$	c #71747C",
"K$	c #898C95",
"L$	c #8D9099",
"M$	c #8A8D97",
"N$	c #828490",
"O$	c #878996",
"P$	c #9EA0AE",
"Q$	c #B2B5C2",
"R$	c #A2A5AD",
"S$	c #757880",
"T$	c #62646A",
"U$	c #494A4E",
"V$	c #333337",
"W$	c #55585D",
"X$	c #7D8088",
"Y$	c #8C8F98",
"Z$	c #8E909A",
"`$	c #868894",
" %	c #80828E",
".%	c #A3A5B3",
"+%	c #A8AAB5",
"@%	c #94969D",
"#%	c #717379",
"$%	c #4D4F54",
"%%	c #333438",
"&%	c #060707",
"*%	c #292A2D",
"=%	c #64676D",
"-%	c #878A92",
";%	c #888A96",
">%	c #9193A0",
",%	c #AAACBA",
"'%	c #94969F",
")%	c #93969E",
"!%	c #878991",
"~%	c #787981",
"{%	c #696A70",
"]%	c #696C72",
"^%	c #67696E",
"/%	c #5C5E62",
"(%	c #353538",
"_%	c #0B0B0D",
":%	c #38393D",
"<%	c #898C94",
"[%	c #898C96",
"}%	c #81838F",
"|%	c #7F828C",
"1%	c #9EA0AC",
"2%	c #A5A8B2",
"3%	c #84868E",
"4%	c #777981",
"5%	c #6D6F75",
"6%	c #5F6066",
"7%	c #4D4F53",
"8%	c #3B3C40",
"9%	c #18181A",
"0%	c #1C1D1F",
"a%	c #2D2E31",
"b%	c #3E3F43",
"c%	c #75777F",
"d%	c #868993",
"e%	c #828590",
"f%	c #838591",
"g%	c #7F828D",
"h%	c #6F7177",
"i%	c #65676C",
"j%	c #53555A",
"k%	c #3C3D41",
"l%	c #343438",
"m%	c #242427",
"n%	c #6D6F76",
"o%	c #878992",
"p%	c #858891",
"q%	c #82858F",
"r%	c #6B6C77",
"s%	c #010000",
"t%	c #585A61",
"u%	c #38393E",
"v%	c #2C2D32",
"w%	c #1C1D20",
"x%	c #1E2022",
". . . . . . . . . . . . . . . . . . . . . . . . . . . . . . . . . . . . . . . . . . . . . . . . . . . . . . . . . . . . . . . . ",
". . . . . . . . . . . . . . . . . . . . . . . . . . . . . . . . . . . . . . . . . . . . . . . . . . . . . . . . . . . . . . . . ",
". . . . . . . . . . . . . . . . . . . . . . . . . . . . . . . . . . . . . . . . . . . . . . . . . . . . . . . . . . . . . . . . ",
". . . . . . . . . . . . . . . . . . . . . . . . . . . . . . . . . . . . . . . . . . . . . . . . . . . . . . . . . . . . . . . . ",
". . . . . . . . . . . . . . . . . . . . . . . . . . . . . . . . . . . . . . . . . . . . . . . . . . . . . . . . . . . . . . . . ",
". . . . . . . . . . . . . . . . . . . . . . . . . . . . . . . . . . . . . . . . . . . . . . . . . . . . . . . . . . . . . . . . ",
". . . . . . . . . . . . . . . . . . . . . . . . . . . . . . . . . . . . . . . . . . . . . . . . . . . . . . . . . . . . . . . . ",
". . . . . . . . . . . . . . . . . . . . . . . . . . . . . . . . . . . . . . . . . . . . . . . . . . . . . . . . . . . . . . . . ",
". . . . . . . . . . . . . . . . . . . . . . . . . . . . . . . . . . . . . . . . . . . . . . . . . . . . . . . . . . . . . . . . ",
". . . . . . . . . . . . . . . . . + @ # . . . . . . . . . . . . . . . . . . . . . . . . . . . . . . . . . . . . . . . . . . . . ",
". . . . . . . . . . . . . $ % & * = - ; > , ' . . . . . . . . . . . . . . . . . . . . . . . . . . . . . . . . . . . . . . . . . ",
". . . . . . . . . . . ) ! ~ { ] ^ / ( _ : < [ } | . . . . . . . . . . . . . . . . . . . . . . . . . . . . . . . . . . . . . . . ",
". . . . . . . . . . . 1 2 3 4 5 6 7 8 9 0 a b c d e f . . . . . . . . . . . . . . . . . . . . . . . . . . . . . . . . . . . . . ",
". . . . . . . . . . g h i j 6 6 6 6 k l l m n o p q r s t . . . . . . . . . . . . . . . . . . . . . . . . . . . . . . . . . . . ",
". . . . . . . . . . t u v 8 w x 6 6 y ( z A l B C D E F G H . . . . . . . . . . . . . . . . . . . . . . . . . . . . . . . . . . ",
". . . . . . . . . . I J K L M x N O P Q R S T U V m W X Y Z `  .. . . . . . . . . . . . . . . . . . . . . . . . . . . . . . . . ",
". . . . . . . . . . ..+.@.#.$.i %.&.*.=.-.;.>.,.'.).U m !.~.{.> ].^.. . . . . . . . . . . . . . . . . . . . . . . . . . . . . . ",
". . . . . . . . . . /.(._.:.<.[.}.|.1.2.3.2.4.5.6.7.8.8 0 l 4 9.0.a.. . . . . . . . . . . . . . . . . . . . . . . . . . . . . . ",
". . . . . . . . . . . b.c.d.e.f.2.2.2.2.2.g.5.5.|.1.%.h.i.j.i.0 k.l.. . . . . . . . . . . . . . . . . . . . . . . . . . . . . . ",
". . . . . . . . . . . m.n.o.p.q.r.s.t.3.2.u.5.u.2.2.|.v.w.x.y.z.A.. . . . . . . . . . . . . . . . . . . . . . . . . . . . . . . ",
". . . . . . . . . . . . . B.. C.D.E.F.G.H.I.J.K.L.|.|.M.2.|.N.O.P.Q.. . . . . . . . . . . . . . . . . . . . . . . . . . . . . . ",
". . . . . . . . . . . . . . . . . R.t S.T.U.V.W.X.Y.Z.`. +.+++@+#+. . . . . . . . . . . . . . . . . . . . . . . . . . . . . . . ",
". . . . . . . . . . . . . . . . . . . . f $+%+Q.& &+*+=+-+;+` B.>+. . . . . . . . . . . . . . . . . . . . . . . . . . . . . . . ",
". . . . . . . . . . . . . . . . . . . . . . . . . . . . ,+Q.Q.. . . . . . . . . . . . . . . . . . . . . . . . . . . . . . . . . ",
". . . . . . . . . . . . . . . . . . . . . . . . . . . . . . . . . . . . . . . . . . . . . . . . . . . . . . . . . . . . . . . . ",
". . . . . . . . . . . . . . . . . . . . . . . . . . . . . . . . . . . . . . . . . . . . . . . . . . . . . . . . . . . . . . . . ",
". . . . . . . . . . . . . . . . . . . . . . . . . . . . . . . . . . . . . . . . . . . . . . . . . . . . . . . . . . . . . . . . ",
". . . . . . . . . . . . . . . . . . . . . . . . . . . . . . . . . . . . . . . . . . . . . . . . . . . . . . . . . . . . . . . . ",
". . . . . . . . . . . . . . . . . . . . . . . . . . . . . . . . . . . . . . . . . . . . . . . . . . . . . . . . . . . . . . . . ",
". . . . . . . . . . . . . . . . . . . . . . . . . . . . . . . . . . . . . . . . . . . . . . . . . . . . . . . . . . . . . . . . ",
". . . . . . . . . . . . . . . . . . . . . . . . . . . . . . . . . . . . . . . . . . . . . . . . . . . . . . . . . . . . . . . . ",
". . . . . . . . . . . . . . . . . . . . . . . . . . . . . . . . . Q.. . . . . . . . . . . . . . . . . . . . . . . . . . . . . . ",
". . . . . . . . . . . . . . . . . . . . . . . . . . . . . . . '+. . ,+t . . . . . . . . Q.. . Q.. . )+)+. . . . !+. . . . . . . ",
". . . . . . . . . . . . . . . . . . . . . . . . . . Q.. #+~+{+]+^+/+(+_+. :+. <+[+. }+|+. f @ [+1+2+3+4+. 5+6+7+8+9+. . . . . . ",
". . . . . . . . . . . . . . . . . . . . . Q.. 0+a+b+c+d+e+f+g+h+i+j+k+l+m+n+o+p+q+r+s+t+u+v+w+x+y+z+A+B+C+D+E+F+G+H+. . . . . . ",
". . . . . . . . . . . . . . . . . . Q.. I+J+K+L+M+N+F.O+P+Q+R+_ S+T+U+V+W+X+Y+Z+`+ @.@+@@@c @@#@D ~.$@%@&@*@=@-@;@>@. . . . . . ",
". . . . . . . . . . . . . . . . . Q.,@'@)@!@~@{@]@^@/@(@_@:@<@U ).B ,.[@}@|@1@C ).l C B ^@C 2@l V l l V m m 9 9 3@4@b+. . . . . ",
". . . . . . . . . . . . . . . . . . 5@6@7@8@9@7 6 0@a@9@i ).V l b@}@}@}@l l l l l l l l l l m c@l l C C l ).d@B e@@ . . . . . . ",
". . . . . . . . . . . . . . . . b+5@6+f@5 w 6 6 T 0 V m m g@g@l l l l l l l l l l l l l C C l l h@l m ).k i@S 6.j@k@. . . . . . ",
". . . . . . . . . . . . . . . . l@m@n@^@7 6 6 T V l l l l l l l l l l l l l l C C m V V ).).o@o@o@y 0@p@q@r@1.5.s@t@u@. . . . . ",
". . . . . . . . . . . . . . v@w@x@y@M 7 6 6 7 5 V l l l l l l l l ).V m ).).z@A@9 y T 7 w N w B@C@D@E@F@G@H@I@J@K@L@^.. . . . . ",
". . . . . . . . . . . . . . M@N@O@P@w w 6 6 7 y m l l l Q@R@}@l ).8 S@T@8 T U@U@V@0@i@W@X@Y@X@5 Z@}.1.|.`@2.|. #A+.#R.)+. . . . ",
". . . . . . . . . . . . . . y++#P@6 6 6 6 6 w 5 l l Q@@###$#%#&#T@*#i@=#A _@_ ,.-#;#&.>#,#>#'#)#w.`@|.2.2.2.1.I@!#~#k@Q.. . . . ",
". . . . . . . . . . . . . {#:.^@w w 6 6 6 6 6 k ).l }@]#^#/#(#_#C@0@:#[.<#u.[#}#1.2.2.1.1.H@|.|.|.2.2.2.2.2.3.|#1#2#,@. . . . . ",
". . . . . . . . . Q.. 3#4#5#6#8 6 6 6 6 6 6 6 8 9 7#^@8#9#0#a#b#c#d#v.e#f#J.5.|#2.2.|.2.|.|.2.2.2.2.2.2.2.2.3.K.g#h#I+. . . . . ",
". . . . . . . . . b+i#j#k#l#m#n#6 6 6 6 6 6 6 w 8 9 0 o#p#q#r#s#t#`@`@e#u#J.v#I@|.2.2.2.2.2.2.2.2.2.2.w#w#|.x#y#z#A#. . . . . . ",
". . . . . . . . Q.B#C#D#E#F#6 6 6 6 6 6 6 6 6 6 6 6 6 G#H#I#V+3.J#2.2.4.v#J.K#L#2.2.2.2.2.2.2.2.2.w#M#N#O#P#Q#R#. . . . . . . . ",
". . . . . . . . . S#T#B S@6 6 6 6 6 6 7 6 w x x U#V#W#Q 7.X#1.2.2.2.2.|#v#J.u# #2.2.2.2.2.2.w#w#H@O#Y#Z#`# $'@.$. . . . . . . . ",
". . . . . . . Q.b++$@$#$w 6 6 6 7 7 w T@N N X@X@$$O %$X#2.2.2.2.2.2.2.|.&$J.u# #`@2.2.2.w#M#N#*$=$-$;$>$,$'$^.. . . . . . . . . ",
". . . . . . . . )$!$~$7 x w 6 {$T@N X@]$]$Y@*#D@;.^$2.2.2.2.2.2.2.2.2.`@ #u#K#/$`@2.w#($_$:$<$[$}$|$1$. 1+. . . . . . . . . . . ",
". . . . . . . . u@2$3$x X@T@4$4$*#Y@Y@5$]$6$7$8$2.|.|.2.2.2.2.2.2.2.2.|.4.K#J.9$w.0$a$b$c$d$e$f$. . . . . . . . . . . . . . . . ",
". . . . . . . . . g$h$i$i P@j$7 M ( B 9@N k$l$m$|.2.2.2.2.2.2.2.2.2.2.2.L#&$K#n$o$p$q$r$s$t . . . . . . . . . . . . . . . . . . ",
". . . . . . . . . t$u$v$w$x$y$z$A$+@B$C$2@U D$E$2.2.2.2.2.2.2.2.2.2.2.2.|#e#@.F$G$H$I$. . . . . . . . . . . . . . . . . . . . . ",
". . . . . . . . . . &+J$K$L$u#u#u#M$N$O$P$C Q$|.2.2.2.2.2.2.2.2.2.3.3.3.R$D+S$T$U$V$... . . . . . . . . . . . . . . . . . . . . ",
". . . . . . . . . . ..W$X$Y$K#u#u#Z$`$ %<..%Q$+%2.2.2.2.2.2.g.`@2. #e#t.@%#%$%%%&%. . . . . . . . . . . . . . . . . . . . . . . ",
". . . . . . . . . . 2+*%=%-%K#u#u#z.;%N$e.>%,%%$2.2.3.N.'%)%!%~%{%d$]%^%/%(%. . . . . . . . . . . . . . . . . . . . . . . . . . ",
". . . . . . . . . . . _%:%q.<%K#K#J.[%N$}%|%1%c#2%[#3%4%5%6%7%8%9%0%a%. . . . . . . . . . . . . . . . . . . . . . . . . . . . . ",
". . . . . . . . . . . Q.m.b%c%K$&$L$d%e%f%g%E+] h%i%j%k%l%m%. . . . . . . . . . . . . . . . . . . . . . . . . . . . . . . . . . ",
". . . . . . . . . . . . . . ;+n%o%p%q% %r%s+r l.4@C.S#9+. . . . . . . . . . . . . . . . . . . . . . . . . . . . . . . . . . . . ",
". . . . . . . . . . . . . . s%e+y+h t%u%v%& . . . . . . . . . . . . . . . . . . . . . . . . . . . . . . . . . . . . . . . . . . ",
". . . . . . . . . . . . . . . t w%'$x%$ . . . . . . . . . . . . . . . . . . . . . . . . . . . . . . . . . . . . . . . . . . . . ",
". . . . . . . . . . . . . . . . I+. . . . . . . . . . . . . . . . . . . . . . . . . . . . . . . . . . . . . . . . . . . . . . . ",
". . . . . . . . . . . . . . . . . . . . . . . . . . . . . . . . . . . . . . . . . . . . . . . . . . . . . . . . . . . . . . . . ",
". . . . . . . . . . . . . . . . . . . . . . . . . . . . . . . . . . . . . . . . . . . . . . . . . . . . . . . . . . . . . . . . "};
