/* XPM */
static char * enemy1_xpm[] = {
"64 64 538 2",
"  	c #000000",
". 	c #020202",
"+ 	c #030303",
"@ 	c #0F0F0F",
"# 	c #040404",
"$ 	c #010101",
"% 	c #121212",
"& 	c #171717",
"* 	c #060606",
"= 	c #141414",
"- 	c #0B0B0B",
"; 	c #1B1B1B",
"> 	c #0D0D0D",
", 	c #181818",
"' 	c #1D1D1D",
") 	c #1F2020",
"! 	c #202020",
"~ 	c #1C1C1C",
"{ 	c #080808",
"] 	c #050202",
"^ 	c #39171A",
"/ 	c #6B1822",
"( 	c #7E1625",
"_ 	c #3D171A",
": 	c #0F0607",
"< 	c #2E0206",
"[ 	c #5B0514",
"} 	c #70081B",
"| 	c #74091B",
"1 	c #010000",
"2 	c #170102",
"3 	c #6C101F",
"4 	c #681520",
"5 	c #5B171F",
"6 	c #671620",
"7 	c #68111E",
"8 	c #320409",
"9 	c #220104",
"0 	c #6F0819",
"a 	c #9D0F28",
"b 	c #AD122D",
"c 	c #B1122F",
"d 	c #B2132F",
"e 	c #0D0203",
"f 	c #49191E",
"g 	c #3B1E20",
"h 	c #221F1F",
"i 	c #391E20",
"j 	c #45191D",
"k 	c #210709",
"l 	c #260104",
"m 	c #7F0A1F",
"n 	c #AE122D",
"o 	c #BC1532",
"p 	c #B2142F",
"q 	c #AC132E",
"r 	c #B91431",
"s 	c #171B1B",
"t 	c #1A1B1B",
"u 	c #381819",
"v 	c #241B1B",
"w 	c #151A1A",
"x 	c #050707",
"y 	c #72081B",
"z 	c #AE122E",
"A 	c #BB1431",
"B 	c #9E1A2E",
"C 	c #6F282E",
"D 	c #83222D",
"E 	c #B1132F",
"F 	c #1D1A1A",
"G 	c #580C13",
"H 	c #35191B",
"I 	c #1D1F1F",
"J 	c #3E030B",
"K 	c #9A0F28",
"L 	c #BD1432",
"M 	c #A01A2E",
"N 	c #612A2E",
"O 	c #313434",
"P 	c #73282F",
"Q 	c #AF132E",
"R 	c #232323",
"S 	c #1E1A1A",
"T 	c #610913",
"U 	c #3B1A1C",
"V 	c #202121",
"W 	c #0C0C0C",
"X 	c #680618",
"Y 	c #AC122D",
"Z 	c #79262F",
"` 	c #363434",
" .	c #313736",
"..	c #74282F",
"+.	c #670618",
"@.	c #1E1B1B",
"#.	c #5B0A12",
"$.	c #371A1C",
"%.	c #000807",
"&.	c #7B0D1F",
"*.	c #B41330",
"=.	c #9E1A2D",
"-.	c #592D30",
";.	c #333636",
">.	c #313636",
",.	c #201F1F",
"'.	c #391516",
").	c #2A1F1F",
"!.	c #222222",
"~.	c #0E1B1A",
"{.	c #811525",
"].	c #B71230",
"^.	c #90202E",
"/.	c #403031",
"(.	c #353636",
"_.	c #68272D",
":.	c #970E26",
"<.	c #242424",
"[.	c #262626",
"}.	c #222424",
"|.	c #1B1F1F",
"1.	c #5A2127",
"2.	c #7D212C",
"3.	c #62292E",
"4.	c #353333",
"5.	c #363636",
"6.	c #343736",
"7.	c #5B2629",
"8.	c #880519",
"9.	c #5A2126",
"0.	c #292929",
"a.	c #111010",
"b.	c #272424",
"c.	c #302E2E",
"d.	c #313131",
"e.	c #333333",
"f.	c #353535",
"g.	c #4E2829",
"h.	c #800916",
"i.	c #323232",
"j.	c #302F2F",
"k.	c #272727",
"l.	c #0A0A0A",
"m.	c #240C0E",
"n.	c #4E2225",
"o.	c #42282A",
"p.	c #282A2A",
"q.	c #2F2F2F",
"r.	c #343434",
"s.	c #3D3132",
"t.	c #56282A",
"u.	c #42292B",
"v.	c #1B1C1C",
"w.	c #2D0A0E",
"x.	c #5D1E24",
"y.	c #4B2124",
"z.	c #202323",
"A.	c #303030",
"B.	c #323535",
"C.	c #4B2125",
"D.	c #232222",
"E.	c #33191A",
"F.	c #221718",
"G.	c #060707",
"H.	c #231213",
"I.	c #472628",
"J.	c #3B2627",
"K.	c #252626",
"L.	c #2E2E2E",
"M.	c #2F3434",
"N.	c #472528",
"O.	c #232121",
"P.	c #481216",
"Q.	c #2A1415",
"R.	c #040606",
"S.	c #212121",
"T.	c #252424",
"U.	c #4A3031",
"V.	c #79252E",
"W.	c #212021",
"X.	c #222121",
"Y.	c #39181A",
"Z.	c #241718",
"`.	c #292323",
" +	c #262122",
".+	c #333535",
"++	c #4E2C2D",
"@+	c #771C26",
"#+	c #A6142D",
"$+	c #111717",
"%+	c #5A1A21",
"&+	c #501B20",
"*+	c #2A2E2E",
"=+	c #3A3131",
"-+	c #711B21",
";+	c #93081F",
">+	c #AF122E",
",+	c #711C21",
"'+	c #131313",
")+	c #1A1A1A",
"!+	c #252525",
"~+	c #151515",
"{+	c #0B1616",
"]+	c #731622",
"^+	c #651720",
"/+	c #272E2D",
"(+	c #432E2E",
"_+	c #7F161F",
":+	c #9A0920",
"<+	c #AE132E",
"[+	c #7F1720",
"}+	c #432E2F",
"|+	c #323434",
"1+	c #282C2C",
"2+	c #171A1A",
"3+	c #721622",
"4+	c #262D2D",
"5+	c #422A2B",
"6+	c #7F111B",
"7+	c #9B0820",
"8+	c #7F121C",
"9+	c #422B2C",
"0+	c #282828",
"a+	c #222323",
"b+	c #181A1A",
"c+	c #1F1F1F",
"d+	c #362E2E",
"e+	c #52282A",
"f+	c #5B2326",
"g+	c #412122",
"h+	c #161010",
"i+	c #232929",
"j+	c #3A2F2F",
"k+	c #672528",
"l+	c #811A25",
"m+	c #98192C",
"n+	c #672529",
"o+	c #3A2F30",
"p+	c #292727",
"q+	c #392021",
"r+	c #2A2020",
"s+	c #1E1E1E",
"t+	c #502224",
"u+	c #7C101E",
"v+	c #86051C",
"w+	c #6A171F",
"x+	c #371718",
"y+	c #010606",
"z+	c #222828",
"A+	c #323332",
"B+	c #3A3132",
"C+	c #4A2B2D",
"D+	c #5E292E",
"E+	c #3A3232",
"F+	c #323333",
"G+	c #361718",
"H+	c #87051C",
"I+	c #2A2929",
"J+	c #442021",
"K+	c #73121B",
"L+	c #521C1F",
"M+	c #232423",
"N+	c #1F2121",
"O+	c #5A1D21",
"P+	c #840E1F",
"Q+	c #8D0A20",
"R+	c #74141E",
"S+	c #411D1F",
"T+	c #0A1010",
"U+	c #0A1615",
"V+	c #262C2B",
"W+	c #2B2B2B",
"X+	c #2B2C2C",
"Y+	c #2C2F2F",
"Z+	c #8E0A20",
"`+	c #471F21",
" @	c #77121B",
".@	c #551B1E",
"+@	c #2C2525",
"@@	c #161616",
"#@	c #422829",
"$@	c #751621",
"%@	c #83061B",
"&@	c #612125",
"*@	c #322828",
"=@	c #151D1D",
"-@	c #731823",
";@	c #282E2D",
">@	c #2A2626",
",@	c #2B2727",
"'@	c #3B2223",
")@	c #302122",
"!@	c #391F20",
"~@	c #302627",
"{@	c #2B2F2F",
"]@	c #821F2B",
"^@	c #970B25",
"/@	c #63292E",
"(@	c #282D2D",
"_@	c #212626",
":@	c #701A24",
"<@	c #61171F",
"[@	c #292E2D",
"}@	c #302D2D",
"|@	c #2E2B2B",
"1@	c #2C2C2C",
"2@	c #2A2223",
"3@	c #3F2021",
"4@	c #322727",
"5@	c #2A2A2A",
"6@	c #93202F",
"7@	c #AC102C",
"8@	c #6F2A30",
"9@	c #282E2E",
"0@	c #262928",
"a@	c #532025",
"b@	c #491D20",
"c@	c #2B2E2D",
"d@	c #303131",
"e@	c #1E1A1B",
"f@	c #1C1B1B",
"g@	c #262727",
"h@	c #AB0F2C",
"i@	c #252828",
"j@	c #202222",
"k@	c #2D2F2F",
"l@	c #53282B",
"m@	c #2D302F",
"n@	c #1F1D1E",
"o@	c #42171B",
"p@	c #311A1B",
"q@	c #1E1C1C",
"r@	c #2E2F2F",
"s@	c #343535",
"t@	c #3D3D3D",
"u@	c #3C3D3D",
"v@	c #322F30",
"w@	c #831B29",
"x@	c #831C29",
"y@	c #323030",
"z@	c #3C3C3C",
"A@	c #201E1E",
"B@	c #5C131C",
"C@	c #411317",
"D@	c #201A1B",
"E@	c #3E3535",
"F@	c #463637",
"G@	c #423B3B",
"H@	c #3A2D2E",
"I@	c #96162A",
"J@	c #5C141D",
"K@	c #411116",
"L@	c #1F1A1A",
"M@	c #232424",
"N@	c #AC0F2C",
"O@	c #272E2E",
"P@	c #2F3030",
"Q@	c #3D2D2D",
"R@	c #4D1D1F",
"S@	c #55161A",
"T@	c #4E2729",
"U@	c #403738",
"V@	c #971B2D",
"W@	c #961B2D",
"X@	c #403838",
"Y@	c #702A30",
"Z@	c #1A1717",
"`@	c #5D1720",
" #	c #421519",
".#	c #201B1B",
"+#	c #2D3030",
"@#	c #84222E",
"##	c #99142A",
"$#	c #652C31",
"%#	c #2A2F2E",
"&#	c #2C2E2E",
"*#	c #5B1F25",
"=#	c #690111",
"-#	c #68010E",
";#	c #6B151E",
">#	c #522D30",
",#	c #3D3333",
"'#	c #982332",
")#	c #3D3334",
"!#	c #522E30",
"~#	c #0A0405",
"{#	c #5D161F",
"]#	c #43191C",
"^#	c #201A1A",
"/#	c #313232",
"(#	c #562D30",
"_#	c #5F282C",
":#	c #473233",
"<#	c #71212A",
"[#	c #7D0519",
"}#	c #770312",
"|#	c #801824",
"1#	c #612C31",
"2#	c #3C3334",
"3#	c #982634",
"4#	c #080202",
"5#	c #5D171F",
"6#	c #43191D",
"7#	c #180F10",
"8#	c #191919",
"9#	c #70212A",
"0#	c #760312",
"a#	c #7F1824",
"b#	c #602C31",
"c#	c #982633",
"d#	c #070101",
"e#	c #5C151D",
"f#	c #110607",
"g#	c #602D31",
"h#	c #3D3434",
"i#	c #702029",
"j#	c #292D2D",
"k#	c #060001",
"l#	c #5B101A",
"m#	c #401116",
"n#	c #0F0404",
"o#	c #222727",
"p#	c #6F1C26",
"q#	c #612D32",
"r#	c #7D061A",
"s#	c #6E1924",
"t#	c #1E2423",
"u#	c #060000",
"v#	c #5B0A16",
"w#	c #3F070E",
"x#	c #0E0102",
"y#	c #2D2D2D",
"z#	c #051212",
"A#	c #6D101E",
"B#	c #7D071A",
"C#	c #7F1623",
"D#	c #602A2F",
"E#	c #3C3233",
"F#	c #6D0B1B",
"G#	c #000B0A",
"H#	c #040000",
"I#	c #500410",
"J#	c #360208",
"K#	c #0A0001",
"L#	c #101010",
"M#	c #5F0616",
"N#	c #760618",
"O#	c #770E1C",
"P#	c #532024",
"Q#	c #392E2E",
"R#	c #760E1C",
"S#	c #600615",
"T#	c #230104",
"U#	c #130002",
"V#	c #280105",
"W#	c #53020B",
"X#	c #63020D",
"Y#	c #50070F",
"Z#	c #281416",
"`#	c #362829",
" $	c #982533",
".$	c #271416",
"+$	c #290105",
"@$	c #0E0E0E",
"#$	c #090909",
"$$	c #100001",
"%$	c #170001",
"&$	c #140B0B",
"*$	c #282014",
"=$	c #554528",
"-$	c #982430",
";$	c #982330",
">$	c #554428",
",$	c #292014",
"'$	c #9B6C1C",
")$	c #A08A32",
"!$	c #A13C2D",
"~$	c #A13F2E",
"{$	c #A18B33",
"]$	c #0A0100",
"^$	c #E79B29",
"/$	c #D6B73E",
"($	c #B56C33",
"_$	c #B66D33",
":$	c #D6B73F",
"<$	c #E39929",
"[$	c #080100",
"}$	c #642302",
"|$	c #F2A02B",
"1$	c #EBBA3B",
"2$	c #C4993A",
"3$	c #C59A3A",
"4$	c #EBBB3B",
"5$	c #5D1F02",
"6$	c #812F04",
"7$	c #F29927",
"8$	c #F2AF30",
"9$	c #E0BB3E",
"0$	c #F29827",
"a$	c #802903",
"b$	c #F2851F",
"c$	c #F2AE30",
"d$	c #F2B031",
"e$	c #751F01",
"f$	c #EE6511",
"g$	c #F2A82E",
"h$	c #ED6411",
"i$	c #721D01",
"j$	c #DC550B",
"k$	c #F2831E",
"l$	c #F2821E",
"m$	c #DC540B",
"n$	c #631801",
"o$	c #C04207",
"p$	c #F2620F",
"q$	c #F29425",
"r$	c #360900",
"s$	c #A63003",
"t$	c #E55A0D",
"u$	c #F2630F",
"v$	c #902702",
"w$	c #BC4006",
"x$	c #F1620F",
"y$	c #912802",
"z$	c #5D1601",
"A$	c #A62F03",
"B$	c #D44F0A",
"C$	c #D34F0A",
"D$	c #5F1701",
"E$	c #050000",
"F$	c #A83003",
"G$	c #A73003",
"H$	c #490F01",
"I$	c #A42E03",
"J$	c #480F01",
"K$	c #792002",
"L$	c #781F01",
"M$	c #150200",
"                                                                                                                                ",
"                                                                                                                                ",
"                                                                                                                                ",
"                                                                                                                                ",
"                                                                                                                                ",
"            .                                                                                                     .             ",
"          + @ # . $                                                                                         $ . # @ +           ",
"        $ % & * = - $                                                                                     $ - = * & % $         ",
"        . ; ; > ; , *                                                                                     * , ; > ; ; .         ",
"        . ' ) ' ! ~ {                                                                                     { ~ ! ' ) ' .         ",
"        ] ^ / ( / _ :                                   < [ } | | } [ <                                   : _ / ( / ^ ]         ",
"      1 2 3 4 5 6 7 8                               9 0 a b c d d c b a 0 9                               8 7 6 5 4 3 2 1       ",
"        e f g h i j k                             l m n o p q r r q p o n m l                             k j i h g f e         ",
"        . s t u v w x                             y z A B C D E E D C B A z y                             x w v u t s .         ",
"        + ! F G H I -                           J K L M N O P Q Q P O N M L K J                           - I H G F ! +         ",
"        + R S T U V W                           X Y p Z `  ...Q Q .. .` Z p Y +.                          W V U T S R +         ",
"        + R @.#.$.V W                       # %.&.*.=.-.;.>...Q Q ..>.;.-.=.*.&.%.#                       W V $.#.@.R +         ",
"        + R ,.'.).!.W                       @ ~.{.].^./.(.;._.:.:._.;.(./.^.].{.~.@                       W !.).'.,.R +         ",
"        + <.[.}.[.R W                       % |.1.2.3.4.5.6.7.8.8.7.6.5.4.3.2.9.|.%                       W R [.}.[.<.+         ",
"        + <.0.0.0.<.W                       a.b.c.d.e.f.5.(.g.h.h.g.(.5.f.e.i.j.b.a.                      W <.0.0.0.<.+         ",
"        + <.0.0.k.! l.                      m.n.o.p.q.r.5.5.s.t.t.s.5.5.r.q.p.u.n.m.                      l.! k.0.0.<.+         ",
"        + <.0.[.V v.{                       w.x.y.z.[.A.5.5.(.B.B.(.5.5.A.[.z.C.x.w.                      { v.V [.0.<.+         ",
"        + <.0.D.E.F.G.                      H.I.J.K.<.L.5.5.(.M.M.(.5.5.L.<.K.J.N.H.                      G.F.E.D.0.<.+         ",
"        + <.0.O.P.Q.R.                      W S.T.[.<.L.5.;.U.V.V.U.;.5.L.<.[.T.W.W                       R.Q.P.O.0.<.+         ",
"        + <.0.X.Y.Z.G.                        l.v.`. +L..+++@+#+#+@+++.+L. +`.v.l.                        G.Z.Y.X.0.<.+         ",
"        + <.0.S.I v.{ + { { .     { l..         $+%+&+*+=+-+;+>+>+;+,+=+*+&+%+$+        . l.{     . { { + { v.I S.0.<.+         ",
"        + <.0.S.S.' { > '+= l.$   )+k.!+~++     {+]+^+/+(+_+:+<+<+:+[+}+/+^+]+{+    + ~+!+k.)+  $ l.= '+> { ' S.S.0.<.+         ",
"        + <.0.<.! ; { ' !.S., *   S.e.|+1+2+#   {+3+^+4+5+6+7+>+>+7+8+9+4+^+3+{+  # 2+1+|+e.S.  * , S.!.' { ; ! <.0.<.+         ",
"        + <.0.0+<.a+b+a+k.k.c+l.  S.d+e+f+g+h+  {+3+^+i+j+k+l+m+m+l+n+o+i+^+3+{+  h+g+f+e+d+S.  l.c+k.k.a+b+a+<.0+0.<.+         ",
"        + <.0.0.0.p+q+r+!.!+s+l.  V t+u+v+w+x+y+{+3+^+z+A+B+C+D+D+C+E+F+z+^+3+{+y+G+w+H+u+t+V   l.s+!+!.r+q+p+0.0.0.<.+         ",
"        + <.0.0.I+J+K+L+`.M+; *   N+O+P+Q+R+S+T+U+3+^+V+d.W+X+Y+Y+X+W+d.V+^+3+U+T+S+R+Z+P+O+N+  * ; M+`.L+K+J+I+0.0.<.+         ",
"        + <.0.0.I+`+ @.@+@K.s+@@= <.#@$@%@&@*@v.=@-@^+;@i.>@,@L.L.,@>@i.;@^+-@=@v.*@&@%@$@#@<.= @@s+K.+@.@ @`+I+0.0.<.+         ",
"        + <.0.0.0.p+'@)@!@~@0+[.!+0.{@]@^@/@(@[._@:@<@[@r.}@|@1@1@|@}@r.[@<@:@_@[.(@/@^@]@{@0.!+[.0+~@!@)@'@p+0.0.0.<.+         ",
"        + <.0.0.k.<.}.2@3@4@0.0.0.5@{@6@7@8@9@0.0@a@b@c@r.d@L.p.p.L.d.r.c@b@a@0@0.9@8@7@6@{@5@0.0.0.4@3@2@}.<.k.0.0.<.+         ",
"        + <.0.0.S.e@f@) g@0.0.0.0.5@{@6@h@8@9@0.0.i@j@1@r.i.k@l@l@m@i.r.1@j@i@0.0.9@8@h@6@{@5@0.0.0.0.g@) f@e@S.0.0.<.+         ",
"        + c+!+[.n@o@p@q@[.0.0.0.0.5@{@6@h@8@9@0.0+5@r@s@t@u@v@w@x@y@z@u@s@r@5@0+0.9@8@h@6@{@5@0.0.0.0.[.q@p@o@n@[.!+c++         ",
"        . , s+S.A@B@C@D@[.0.0.0.0.5@{@6@h@8@9@0.W+d@E@F@G@u@H@I@I@H@u@G@F@E@d@W+0.9@8@h@6@{@5@0.0.0.0.[.D@C@B@A@S.s+, .         ",
"        $ = ~ s+A@J@K@L@M@0+0.0.0.5@{@6@N@8@O@0.P@Q@R@S@T@U@s.V@W@s.X@T@S@R@Q@P@0.O@Y@N@6@{@5@0.0.0.0+M@L@K@J@A@s+~ = $         ",
"          . > ~+Z@`@ #.#c+!.<.!+[.0.+#@###$#%#0.&#*#=#-#;#>#,#'#'#)#!#;#-#=#*#&#0.%#$###@#+#0.[.!+<.!.c+.# #`@Z@~+> .           ",
"                ~#{#]#^#s+s+s+c+! k./#(#_#:#r@0.*+<#[#}#|#1#2#3#3#2#1#|#}#[#<#*+0.r@:#_#(#/#k.! c+s+s+s+^#]#{#~#                ",
"                4#5#6#7#'+8#' c+c+k.e.(.(.5.q.0.*+9#[#0#a#b#2#c#c#2#b#a#0#[#9#*+0.q.5.(.(.e.k.c+c+' 8#'+7#6#5#4#                ",
"                d#e#o@f#  + > '+= <.e.5.5.5.q.0.*+9#[#0#a#g#h#c#c#h#g#a#0#[#i#j#0.q.5.5.5.e.<.= '+> +   f#o@e#d#                ",
"                k#l#m#n#          S.i.5.5.5.q.!+o#p#[#0#a#q#h#c#c#h#q#a#0#r#s#t#!+q.5.5.5.i.S.          n#m#l#k#                ",
"                u#v#w#x#          S.i.5.5.5.y#~ z#A#B#0#C#D#E#3#3#E#D#C#0#B#F#G#~ y#5.5.5.i.S.          x#w#v#u#                ",
"                H#I#J#K#          ; W+L.L.L.[.L#  M#N#0#O#P#Q#3#3#Q#P#R#0#N#S#  L#[.L.L.L.W+;           K#J#I#H#                ",
"                1 T#U#1           { = & & & L#+   V#W#X#Y#Z#`# $ $`#.$Y#X#W#+$  + L#& & & = {           1 U#T#1                 ",
"                                  . @$= = '+#$      $$%$&$*$=$-$;$>$,$&$%$$$      #$'+= = @$.                                   ",
"                                                        + '$)$!$~${$'$+                                                         ",
"                                                        ]$^$/$($_$:$<$[$                                                        ",
"                                                        }$|$1$2$3$4$|$5$                                                        ",
"                                                        6$7$8$9$9$8$0$6$                                                        ",
"                                                        a$b$c$d$d$c$b$a$                                                        ",
"                                                        e$f$g$c$c$g$h$e$                                                        ",
"                                                        i$j$k$c$c$l$m$i$                                                        ",
"                                                        n$o$p$q$q$p$o$n$                                                        ",
"                                                        r$s$t$u$u$t$s$r$                                                        ",
"                                                          v$w$x$x$w$y$                                                          ",
"                                                          z$A$B$C$A$D$                                                          ",
"                                                          E$y$F$G$y$E$                                                          ",
"                                                            H$I$I$J$                                                            ",
"                                                              K$L$                                                              ",
"                                                              M$M$                                                              ",
"                                                                                                                                ",
"                                                                                                                                "};
