/* XPM */
static char * player_up0_xpm[] = {
"64 64 300 2",
"  	c #000000",
". 	c #010203",
"+ 	c #010102",
"@ 	c #000101",
"# 	c #030403",
"$ 	c #0D1419",
"% 	c #030303",
"& 	c #090808",
"* 	c #2C2C2C",
"= 	c #324047",
"- 	c #080808",
"; 	c #040404",
"> 	c #262727",
", 	c #232323",
"' 	c #222222",
") 	c #23272A",
"! 	c #25292C",
"~ 	c #191818",
"{ 	c #101010",
"] 	c #0F0F0F",
"^ 	c #24292C",
"/ 	c #334048",
"( 	c #2C363B",
"_ 	c #4B6776",
": 	c #2D363C",
"< 	c #171717",
"[ 	c #1A1A1A",
"} 	c #181716",
"| 	c #4C6776",
"1 	c #2D383D",
"2 	c #4E6B7A",
"3 	c #2E393E",
"4 	c #181818",
"5 	c #1F1F1F",
"6 	c #181616",
"7 	c #2D373D",
"8 	c #4F6B7A",
"9 	c #283134",
"0 	c #425865",
"a 	c #293135",
"b 	c #1E1E1E",
"c 	c #181919",
"d 	c #283034",
"e 	c #425965",
"f 	c #222324",
"g 	c #292E30",
"h 	c #232526",
"i 	c #1C1C1C",
"j 	c #1F1E1E",
"k 	c #292E31",
"l 	c #020202",
"m 	c #252524",
"n 	c #242424",
"o 	c #1C1C1D",
"p 	c #171817",
"q 	c #1B1F21",
"r 	c #171818",
"s 	c #1D1D1D",
"t 	c #212121",
"u 	c #152127",
"v 	c #205874",
"w 	c #205873",
"x 	c #162127",
"y 	c #1D1C1C",
"z 	c #202020",
"A 	c #1B1A19",
"B 	c #1B3543",
"C 	c #2C87B4",
"D 	c #1B3643",
"E 	c #1C1A19",
"F 	c #1E1F20",
"G 	c #18262E",
"H 	c #1D526C",
"I 	c #1D516C",
"J 	c #18262D",
"K 	c #1E2021",
"L 	c #22272B",
"M 	c #193543",
"N 	c #1D3D4D",
"O 	c #2C404B",
"P 	c #2E424D",
"Q 	c #1E3E4F",
"R 	c #1A3644",
"S 	c #22282B",
"T 	c #202F36",
"U 	c #1C516C",
"V 	c #265972",
"W 	c #476475",
"X 	c #4B6A7C",
"Y 	c #295D78",
"Z 	c #1B516C",
"` 	c #202F37",
" .	c #030405",
"..	c #030506",
"+.	c #21323A",
"@.	c #1B4960",
"#.	c #1B3442",
"$.	c #242D32",
"%.	c #262F34",
"&.	c #1C3543",
"*.	c #010202",
"=.	c #020405",
"-.	c #010101",
";.	c #020303",
">.	c #1F2B32",
",.	c #183341",
"'.	c #1C2225",
").	c #1B1A1A",
"!.	c #1C2224",
"~.	c #183340",
"{.	c #1F2B31",
"].	c #121212",
"^.	c #242627",
"/.	c #1F2325",
"(.	c #212527",
"_.	c #151515",
":.	c #131313",
"<.	c #272727",
"[.	c #212122",
"}.	c #2D393F",
"|.	c #222122",
"1.	c #111111",
"2.	c #212020",
"3.	c #2D2C2C",
"4.	c #2E3134",
"5.	c #212A2E",
"6.	c #29373E",
"7.	c #3E4E56",
"8.	c #191919",
"9.	c #1A252B",
"0.	c #225B77",
"a.	c #366C88",
"b.	c #79AAC6",
"c.	c #292929",
"d.	c #282828",
"e.	c #1B1B1B",
"f.	c #050505",
"g.	c #1C3746",
"h.	c #2B83B0",
"i.	c #3C7E9F",
"j.	c #82B8D5",
"k.	c #1A1817",
"l.	c #1D3A49",
"m.	c #2B84B0",
"n.	c #3C7D9E",
"o.	c #82B6D3",
"p.	c #262626",
"q.	c #252525",
"r.	c #201E1D",
"s.	c #1D3A48",
"t.	c #82B6D4",
"u.	c #1C3847",
"v.	c #2A80AC",
"w.	c #3A799A",
"x.	c #7FB1CE",
"y.	c #201F1E",
"z.	c #19272E",
"A.	c #20495E",
"B.	c #284859",
"C.	c #496473",
"D.	c #284959",
"E.	c #204A5F",
"F.	c #2C353A",
"G.	c #48626F",
"H.	c #4F6B7B",
"I.	c #496270",
"J.	c #2C353B",
"K.	c #1F2020",
"L.	c #222121",
"M.	c #333D43",
"N.	c #55717F",
"O.	c #5B7A8B",
"P.	c #546F7F",
"Q.	c #323C41",
"R.	c #252626",
"S.	c #2E363B",
"T.	c #202325",
"U.	c #282827",
"V.	c #2D2D2D",
"W.	c #282727",
"X.	c #242525",
"Y.	c #2E383D",
"Z.	c #212526",
"`.	c #252424",
" +	c #303030",
".+	c #2F2F2F",
"++	c #343536",
"@+	c #2E2E2E",
"#+	c #2B2B2B",
"$+	c #060606",
"%+	c #2A2A2A",
"&+	c #3C3C3C",
"*+	c #323232",
"=+	c #333333",
"-+	c #383838",
";+	c #343434",
">+	c #3F3F3E",
",+	c #3A3A39",
"'+	c #373C3E",
")+	c #363C3F",
"!+	c #2C2E2E",
"~+	c #3A3A3A",
"{+	c #313131",
"]+	c #010000",
"^+	c #4D6978",
"/+	c #597B8F",
"(+	c #425A67",
"_+	c #292F32",
":+	c #363636",
"<+	c #2F3031",
"[+	c #373737",
"}+	c #3B3B3B",
"|+	c #393939",
"1+	c #353738",
"2+	c #3D3D3D",
"3+	c #404040",
"4+	c #3D3C3B",
"5+	c #343534",
"6+	c #383939",
"7+	c #3F3F3F",
"8+	c #23282C",
"9+	c #313F47",
"0+	c #283B44",
"a+	c #303437",
"b+	c #3C3C3D",
"c+	c #2F3437",
"d+	c #283B43",
"e+	c #313F46",
"f+	c #274B5D",
"g+	c #214D62",
"h+	c #3E3E3E",
"i+	c #333D42",
"j+	c #2F3C42",
"k+	c #3B3D3E",
"l+	c #201D17",
"m+	c #35322B",
"n+	c #42413E",
"o+	c #DCB93E",
"p+	c #43423D",
"q+	c #DDBA3E",
"r+	c #E6BB3C",
"s+	c #47443D",
"t+	c #E8B337",
"u+	c #4C473C",
"v+	c #ECB638",
"w+	c #EAA930",
"x+	c #EDAB30",
"y+	c #EC9D29",
"z+	c #ED9E2A",
"A+	c #121111",
"B+	c #1D1211",
"C+	c #361A12",
"D+	c #E98D22",
"E+	c #EA8E23",
"F+	c #351A12",
"G+	c #C9520C",
"H+	c #E57B1B",
"I+	c #E37A1A",
"J+	c #C8510C",
"K+	c #000001",
"L+	c #090100",
"M+	c #2C0400",
"N+	c #772202",
"O+	c #BB4308",
"P+	c #DF6613",
"Q+	c #EF7F1C",
"R+	c #F1801C",
"S+	c #DE6613",
"T+	c #BB4208",
"U+	c #2C0500",
"V+	c #040000",
"W+	c #1A0200",
"X+	c #631A01",
"Y+	c #A53504",
"Z+	c #D1510A",
"`+	c #EA6410",
" @	c #4D1100",
".@	c #8B2802",
"+@	c #BD4107",
"@@	c #D9520A",
"#@	c #370800",
"$@	c #6E1C01",
"%@	c #A43404",
"&@	c #C24106",
"*@	c #6F1C01",
"=@	c #210300",
"-@	c #4E1000",
";@	c #882502",
">@	c #A53103",
",@	c #A43103",
"'@	c #862502",
")@	c #2A0500",
"!@	c #6B1B01",
"~@	c #8A2501",
"{@	c #892501",
"]@	c #050000",
"^@	c #4C1000",
"/@	c #671900",
"(@	c #240400",
"_@	c #340800",
"                                                                                                                                ",
"                                                        . +         @ +                                                         ",
"                                                      # $ $ @       $ $ %                                                       ",
"                                                    & * = $ @       $ = * -                                                     ",
"                                                  ; * > , * %     % * ' > * ;                                                   ",
"                                                  * ) = ! ~ { * * ] ~ ^ / ) *                                                   ",
"                                                  * ( _ : ~ < [ [ < } ( | ( *                                                   ",
"                                                  * 1 2 3 ~ 4 5 5 4 6 7 8 1 *                                                   ",
"                                                  * 9 0 a ~ 4 b b c ~ d e d *                                                   ",
"                                                  * f g h i 4 j j 4 i h k f *                                                   ",
"                                                  l * m n o p q q r s n m * l                                                   ",
"                                                    % * t i u v w x y z * %                                                     ",
"                                                    l * [ A B C C D E [ * l                                                     ",
"                                                    % * t F G H I J K t * %                                                     ",
"                                                    % * L M N O P Q R S * %                                                     ",
"                                                    % * T U V W X Y Z ` * %                                                     ",
"                   ....                             % * +.@.#.$.%.&.@.+.* %                             *.=. .                  ",
"                -.  ;.                              % * >.,.'.).A !.~.{.* %                             -..   -.                ",
"              -.* ].* @                             % * ^./.s (.(.s /.^.* %                             @ * ].* -.              ",
"            -.* _.i :.*                             % * <.t [.}.}.|.t <.* %                             * :.i _.* -.            ",
"          -.* _.b = b 1.*                   -.* *   % * n 2.3.4.4.3.2.n * %   * * -.                  * 1.b = b _.* -.          ",
"          * 1.b _ a _ [ 1.*                 * { ] * % * b 5.6.7.7.6.5.b * % * ] { *                 * 1.[ _ a _ b 1.*           ",
"          * 8.<._ a _ , 8.1.*             * ] :.:.* % * 9.0.a.b.b.a.0.9.* % * :.:.] *             * 1.8., _ a _ <.8.*           ",
"          * 5 c.d.2 c.c., 8.1.*           * e.[ e.* f.* g.h.i.j.j.i.h.g.* f.* e.[ e.*           * 1.8., c.c.2 d.c.5 *           ",
"          l * 5 z <.c.c.c., 8.1.*         * i e.e.* * k.l.m.n.o.o.n.m.l.k.* * e.e.i *         * 1.8., c.c.c.<.z 5 * l           ",
"            % * * p.q., <.c., 8.1.*       * i e.4 8., r.s.m.n.t.t.n.m.s.r., 8.4 e.i *       * 1.8., c.<., q.p.* * %             ",
"              -.* t e.4 b d.c.n 8.1.*     * i < 4 ' c.r.s.m.n.t.t.n.m.s.r.c.' 4 < i *     * 1.8.n c.d.b 4 e.t * -.              ",
"                ; * e.b 8.b d.d.n 8.1.*   * 8.< , d.c.r.s.m.n.t.t.n.m.s.r.c.d., < 8.*   * 1.8.n d.d.b 8.b e.* ;                 ",
"                  % * 5 5 8.b d.c., 8.1.* * _., d.d.c.r.u.v.w.x.x.w.v.u.r.c.d.d., _.* * 1.8., c.d.b 8.5 5 * %                   ",
"                    ; * 5 5 8.b d.c., 8.1.{ t d.d.d.d.y.z.A.B.C.C.D.E.z.y.d.d.d.d.t { 1.8., c.d.b 8.5 5 * ;                     ",
"                      ; * 5 5 8.5 <.c., < < n <.d.d.<.z l.F.G.H.H.I.J.l.z <.d.d.<.n < < , c.<.5 8.5 5 * ;                       ",
"                        ; * 5 5 8.5 d.c.t e.[.K.p.c.n t L.M.N.O.O.P.Q.L.t n c.p.K.[.e.t c.d.5 8.5 5 * ;                         ",
"                          ; * 5 e.[ <.c.q.R.S.T.n d., q.U.V.l.l.l.l.3.W.q., d.n T.S.R.q.c.<.[ e.5 * ;                           ",
"                            ; * 8.t d.c.n X.Y.Z.`.<.' c.c. +.+q.q..+ +c.c.' <.`.Z.Y.X.n c.d.t 8.* ;                             ",
"                              ; * p.c.p.b p.++> n q.' V.c.@+<.#+#+<.@+c.V.' q.n > ++p.b p.c.p.* ;                               ",
"                                $+* , , %+V.&+%+n n n *+c.d.d.q.q.d.d.c.*+n n n %+&+V.%+, , *                                   ",
"                                  * s =+-+.+&+%+, , d.;+d.' * n n * ' d.;+d., , %+&+.+-+=+s *                                   ",
"                                  * @+>+,+.+&+#+, ' V.;+n ' * #+#+* ' n ;+V.' , #+&+.+,+>+@+*                                   ",
"                                -.* '+l.)+!+~+c.z t  +*+5 n #+{+*+#+n 5 *+ +t z c.~+!+)+l.'+*                                   ",
"                                ]+* ^+/+(+_+@+p.t , %+c.e.d.c.:+:+c.d.e.c.%+, t p.@+_+(+/+^+*                                   ",
"                                  * * l.* <+[+}+}+}+&+|+<.* c.~+~+c.#+p.|+&+}+}+}+[+<+* l.* *                                   ",
"                                      * [+1+2+3+3+3+3+2+* * #+&+&+#+* * 2+3+3+3+3+2+1+[+* ]+                                    ",
"                                  -.* 4+5+^ 6+7+3+7+3+~+c.#+* 2+2+* #+c.~+3+7+3+7+6+8+5+4+* l                                   ",
"                                  * |+9+0+a+b+7+7+3+2+%+b c.@+2+2+@+c.b %+2+3+7+7+b+c+d+e+|+*                                   ",
"                                * [ a f+g+a >+7+3+2+* e.i d..+h+h+.+d.i e.* 2+3+7+>+a g+f+a [ *                                 ",
"                                * [ h+i+j+k+7+3+2+* s e.4 l+m+>+>+m+l+4 e.s * 2+3+7+k+j+i+h+[ *                                 ",
"                                * [ 3+h+h+7+3+2+* i i 8.b * * n+n+* * b 8.i i * 2+3+7+h+h+3+[ *                                 ",
"                                * [ 3+3+3+3+2+* i i 8.z p.* o+p+p+q+* p.z 8.i i * 2+3+3+3+3+[ * -.                              ",
"                              -.* [ 3+3+3+2+* i s [ 5 d.<.* r+s+s+r+* <.d.5 [ s i * 2+3+3+3+[ *                                 ",
"                              -.* [ 7+7+h+V.i i _.s c.c.<.* t+u+u+v+* <.c.c.s _.i i V.h+7+7+[ *                                 ",
"                              -.* [ 7+7+=+b i * * e., , t * w+* * x+* t , , e.* * i b =+7+7+[ *                                 ",
"                              -.* [ 3+}+n e.*   * ].4 4 < * y+* * z+* < 4 4 ].* -.* e.n }+3+[ *                                 ",
"                              + * [ [ [ [ *     * { A+B+C+* D+* * E+* F+B+A+{ *   -.* [ [ [ [ *                                 ",
"                              @   * * * * -.      * * * * G+H+* * I+J+* * * * -.    -.* * * *                                   ",
"                                  K+                L+M+N+O+P+Q+R+S+T+N+U+L+                *.@                                 ",
"                                                    V+W+X+Y+Z+`+`+Z+Y+X+W+V+                                                    ",
"                                                         @.@+@@@@@+@.@ @                                                        ",
"                                                        #@$@%@&@&@%@*@#@                                                        ",
"                                                        =@-@;@>@,@'@-@=@                                                        ",
"                                                        V+)@!@~@{@!@)@V+                                                        ",
"                                                          ]@^@/@/@^@]@                                                          ",
"                                                            (@_@_@(@                                                            ",
"                                                            ]@]@]@]@                                                            ",
"                                                                                                                                "};
