/* XPM */
static char *_46052805f7d4025d09920ca2108701dIWsulMsfaY5x9Hkz[] = {
/* columns rows colors chars-per-pixel */
"64 64 168 2 ",
"   c None",
".  c #0B0B0B",
"X  c #0C0C0C",
"o  c #0E0E0E",
"O  c gray6",
"+  c #101010",
"@  c #101011",
"#  c #111111",
"$  c #131110",
"%  c gray7",
"&  c #131312",
"*  c #131313",
"=  c #141413",
"-  c #161413",
";  c gray8",
":  c #151514",
">  c #151515",
",  c #161616",
"<  c gray9",
"1  c #191716",
"2  c #181717",
"3  c #181818",
"4  c #191918",
"5  c #191919",
"6  c gray10",
"7  c #1B1B1B",
"8  c #1C1B1B",
"9  c #1A1B1C",
"0  c #1D1C1C",
"q  c #1D1D1D",
"w  c #1C1E1F",
"e  c #1E1E1E",
"r  c gray12",
"t  c #1C1E20",
"y  c #1C1F20",
"u  c #1E2224",
"i  c #1D2326",
"p  c #1B252A",
"a  c #1C2429",
"s  c #1B2B34",
"d  c #1A313D",
"f  c #1A323E",
"g  c #202020",
"h  c #212020",
"j  c gray13",
"k  c #232120",
"l  c #222121",
"z  c #232221",
"x  c #212122",
"c  c #212222",
"v  c #222222",
"b  c #222223",
"n  c #232323",
"m  c #252322",
"M  c #252323",
"N  c #242423",
"B  c #202224",
"V  c #212425",
"C  c #232424",
"Z  c #232425",
"A  c gray14",
"S  c #242425",
"D  c #242525",
"F  c #252525",
"G  c #252526",
"H  c #242627",
"J  c #252627",
"K  c gray15",
"L  c #272726",
"P  c #272727",
"I  c #222629",
"U  c #232729",
"Y  c #20282C",
"T  c #242B2E",
"R  c #282828",
"E  c gray16",
"W  c #2A2A2A",
"Q  c gray17",
"!  c #2A2C2D",
"~  c #282D2F",
"^  c #2C2C2C",
"/  c #2D2D2D",
"(  c #2E2E2D",
")  c gray18",
"_  c #2F2F2F",
"`  c #302F2F",
"'  c #202F36",
"]  c #282F32",
"[  c #282F33",
"{  c #2D2F30",
"}  c #2A3033",
"|  c #283034",
" . c #293034",
".. c #2C3134",
"X. c #2D3337",
"o. c #213038",
"O. c gray19",
"+. c #313132",
"@. c #313233",
"#. c #323232",
"$. c gray20",
"%. c #323334",
"&. c #343434",
"*. c #353535",
"=. c #363737",
"-. c #373737",
";. c #32383B",
":. c #373A3B",
">. c #363B3E",
",. c gray22",
"<. c #393939",
"1. c #3A3A3A",
"2. c #3B3A3A",
"3. c gray23",
"4. c #383B3C",
"5. c #3B3D3E",
"6. c #3C3C3C",
"7. c #3C3D3D",
"8. c gray24",
"9. c #3F3E3D",
"0. c #3E3E3E",
"q. c #3F3F3F",
"w. c #403F3F",
"e. c #193746",
"r. c #1D3B49",
"t. c #1E3B4A",
"y. c #2C3A41",
"u. c #2F3A40",
"i. c #233B48",
"p. c #233C49",
"a. c #303B41",
"s. c #383D40",
"d. c #1E485D",
"f. c #3C4042",
"g. c #374248",
"h. c #36464E",
"j. c #37464E",
"k. c #254657",
"l. c #284554",
"z. c #294554",
"x. c #284654",
"c. c #264758",
"v. c #394953",
"b. c #394A53",
"n. c #1D5570",
"m. c #1E5672",
"M. c #3D5A6A",
"N. c gray25",
"B. c #41535D",
"V. c #42545E",
"C. c #415A68",
"Z. c #475F6B",
"A. c #475F6C",
"S. c #406070",
"D. c #496473",
"F. c #4A6473",
"G. c #4F6B7B",
"H. c #256B8E",
"J. c #256B8F",
"K. c #286B8D",
"L. c #2D82AD",
"P. c #2F84AF",
"I. c #2F86B1",
"U. c #5E8093",
"Y. c #6D9EB9",
"T. c #71A4C0",
"R. c #73A7C3",
"E. c #73A7C4",
/* pixels */
"                                                                                                                                ",
"                                                                                                                                ",
"                                                                                                                                ",
"                                                                                                                                ",
"                                                                                                                                ",
"                                                                                                                                ",
"                                                                                                                                ",
"                                                                                                                                ",
"                                                                                                                                ",
"                                                                                                                                ",
"                                                                                                                                ",
"                                                                                                                                ",
"                                                                                                                                ",
"                                                          Y         p                                                           ",
"                                                        g V +     O g g                                                         ",
"                                                      - h. .< > * <  .j.-                                                       ",
"                                                      > Z.a.3 r 0 1 a.A.>                                                       ",
"                                                      - b. .3 0 y 3 [ b.-                                                       ",
"                                                        V F 3 0 0 8 F V                                                         ",
"                                                        > g 0 d.d.9 g >                                                         ",
"                                                        > 0 y J.H.u 8 >                                                         ",
"                                                        3 I d i.p.d U 1                                                         ",
"                                                        1 o.n.M.S.n.o.1                                                         ",
"                                p                       1 ' e.y y e.' 1                       p                                 ",
"                              + +                       3 P u V V u F 3                       + *                               ",
"                            + 0 0 o                     3 L z X.X.g R 3                     X 0 0 +                             ",
"                          o 3 W F 3 +             o +   3 g T g.g.T g 1   + o             + < F F 0 o                           ",
"                          > W W W F > +           > > + + s K.Y.Y.K.s * + > >           + < F W W P >                           ",
"                          3 F F W W g 3 +         0 0 3 > t.I.R.R.I.t.- 3 0 0         + 3 z W W F F 3                           ",
"                            + g W g W F 3 +       0 3 7 z t.P.R.R.P.t.z 0 3 0       + < F W V P g +                             ",
"                              3 3 3 g W F 3 +     3 0 F m t.P.R.R.P.t.m L 7 9     + 1 m W 0 3 0 3                               ",
"                                > g 0 g W g 3 +   9 W W m t.L.T.T.L.t.g W W 9   + 1 V R u 0 g >                                 ",
"                                  > k 9 0 W F 3 > F W W m a k.C.C.c.p m W W F > 1 F W g 0 u >                                   ",
"                                    > g 9 k W g 3 g F W g k V.U.U.V.g n W F n 3 g W r 3 r 1                                     ",
"                                      < 0 7 R R P  .g W m W @...{ @.R n W g  .J W R 3 0 >                                       ",
"                                        > g W F J ..V F L W { W R O.W L F V ..F F W V -                                         ",
"                                          0 F F ( =.F g ( W W F F W Q ( F F =.^ F V 0                                           ",
"                                            R 6.@.<.F F @.W F W W L R @.z F ,.@.5.L                                             ",
"                                            <.s.@.=.g F =.g W ( ( R F %.M z ,.@.f.<.                                            ",
"                                            G.F.] ( F W ( 0 W $.$.W 0 ( W F ( ] F.G.                                            ",
"                                              ~ =.8.w.q.q.( Q =.-.Q ^ s.w.w.q.=.~                                               ",
"                                            O.2.~ 8.N.N.w.~ Q <.<.^ ( w.N.N.5.~ 2.O.                                            ",
"                                          R 5.l.;.w.N.N.` r Q 3.<.^ e ` w.N.f.;.l.:.W                                           ",
"                                          *.5.l.s.N.N.{ 0 3 m 8.8.z 8 0 { w.w.5.l.5.=.                                          ",
"                                          <.N.w.w.N.O.0 3 0 3 <.3.3 0 9 0 @.w.w.w.w.<.                                          ",
"                                          <.N.N.N.{ 0 7 g W 3 <.<.3 R g 3 0 O.w.w.w.8.                                          ",
"                                          6.N.N.@.0 3 g W W > <.<.> R W g < 0 ` N.N.<.                                          ",
"                                          2.N.<.0 3 o 3 g 0 o %.$.o 0 g 0 . 3 u <.q.2.                                          ",
"                                          >.8.W >     > > > o ( ( o > > >     < F 8.5.                                          ",
"                                          y.g +               B u               * g y.                                          ",
"                                                                                                                                ",
"                                                                                                                                ",
"                                                                                                                                ",
"                                                                                                                                ",
"                                                                                                                                ",
"                                                                                                                                ",
"                                                                                                                                ",
"                                                                                                                                ",
"                                                                                                                                ",
"                                                                                                                                ",
"                                                                                                                                ",
"                                                                                                                                ",
"                                                                                                                                ",
"                                                                                                                                "
};
