/* XPM */
static char * player_down1_xpm[] = {
"64 64 408 2",
"  	c #000000",
". 	c #050000",
"+ 	c #230400",
"@ 	c #310700",
"# 	c #010000",
"$ 	c #140100",
"% 	c #440D00",
"& 	c #5B1400",
"* 	c #070000",
"= 	c #2D0600",
"- 	c #661901",
"; 	c #832301",
"> 	c #030000",
", 	c #220300",
"' 	c #4D1100",
") 	c #842502",
"! 	c #A23103",
"~ 	c #090100",
"{ 	c #370900",
"] 	c #6B1C01",
"^ 	c #A03204",
"/ 	c #BD4006",
"( 	c #6C1C01",
"_ 	c #380900",
": 	c #100100",
"< 	c #4C1100",
"[ 	c #872802",
"} 	c #BA4207",
"| 	c #D8520B",
"1 	c #BB4207",
"2 	c #872702",
"3 	c #4C1000",
"4 	c #190200",
"5 	c #601901",
"6 	c #A03505",
"7 	c #CD540C",
"8 	c #E76913",
"9 	c #CE540C",
"0 	c #260500",
"a 	c #712202",
"b 	c #B44408",
"c 	c #DB6914",
"d 	c #EE821D",
"e 	c #090000",
"f 	c #300700",
"g 	c #7D2E04",
"h 	c #C3570E",
"i 	c #E3801D",
"j 	c #F19B28",
"k 	c #E37F1D",
"l 	c #010101",
"m 	c #070808",
"n 	c #070707",
"o 	c #060606",
"p 	c #070606",
"q 	c #100707",
"r 	c #340F07",
"s 	c #81380C",
"t 	c #CB6915",
"u 	c #E69124",
"v 	c #E9A52E",
"w 	c #E8A42E",
"x 	c #060607",
"y 	c #0C0C0C",
"z 	c #272727",
"A 	c #292929",
"B 	c #292828",
"C 	c #2B2928",
"D 	c #523628",
"E 	c #C3731F",
"F 	c #DC962A",
"G 	c #6E512C",
"H 	c #DE982A",
"I 	c #C4741F",
"J 	c #262626",
"K 	c #1E1E1E",
"L 	c #202020",
"M 	c #171717",
"N 	c #151515",
"O 	c #191615",
"P 	c #2F2018",
"Q 	c #654A2A",
"R 	c #D7A032",
"S 	c #55442D",
"T 	c #54442D",
"U 	c #D59F32",
"V 	c #302118",
"W 	c #1A1615",
"X 	c #070708",
"Y 	c #3B3B3B",
"Z 	c #383838",
"` 	c #1F1F1F",
" .	c #121212",
"..	c #161616",
"+.	c #181818",
"@.	c #191919",
"#.	c #1C1B1A",
"$.	c #52452C",
"%.	c #D1A737",
"&.	c #53462D",
"*.	c #D1A637",
"=.	c #1D1B1A",
"-.	c #111111",
";.	c #080808",
">.	c #212121",
",.	c #3D3D3D",
"'.	c #3E3E3E",
").	c #333333",
"!.	c #282828",
"~.	c #1D1D1D",
"{.	c #222222",
"].	c #232323",
"^.	c #50452D",
"/.	c #C8A739",
"(.	c #52482F",
"_.	c #51472F",
":.	c #C6A538",
"<.	c #4F452D",
"[.	c #3F3F3F",
"}.	c #3C3C3C",
"|.	c #2E2E2E",
"1.	c #4A432D",
"2.	c #B79D37",
"3.	c #5B533B",
"4.	c #B49A37",
"5.	c #4A422D",
"6.	c #404040",
"7.	c #2D2D2D",
"8.	c #1C1C1C",
"9.	c #1B1B1B",
"0.	c #413B2C",
"a.	c #96822F",
"b.	c #514C3C",
"c.	c #95812F",
"d.	c #403B2C",
"e.	c #33312A",
"f.	c #5D5121",
"g.	c #42413B",
"h.	c #5C5121",
"i.	c #3D3D3E",
"j.	c #3E3E3F",
"k.	c #3D3E3F",
"l.	c #1A1A1A",
"m.	c #2A2A2A",
"n.	c #33312C",
"o.	c #3A3B3C",
"p.	c #343E44",
"q.	c #313E44",
"r.	c #3A3D3E",
"s.	c #2C2C2C",
"t.	c #1F2020",
"u.	c #2B3439",
"v.	c #294857",
"w.	c #24495B",
"x.	c #2D363B",
"y.	c #3D3E3D",
"z.	c #2F2F2F",
"A.	c #294858",
"B.	c #353738",
"C.	c #313F46",
"D.	c #2A3C44",
"E.	c #2F3538",
"F.	c #3B3C3C",
"G.	c #2A3C45",
"H.	c #313F47",
"I.	c #0E0D0D",
"J.	c #2B2B2B",
"K.	c #393A39",
"L.	c #333536",
"M.	c #292D30",
"N.	c #383939",
"O.	c #393939",
"P.	c #2A2E30",
"Q.	c #0D0D0D",
"R.	c #2C2E2F",
"S.	c #353536",
"T.	c #343637",
"U.	c #282929",
"V.	c #2D3338",
"W.	c #293F4C",
"X.	c #2F3438",
"Y.	c #303132",
"Z.	c #373737",
"`.	c #3A3A3A",
" +	c #2D3134",
".+	c #48616F",
"++	c #507082",
"@+	c #405662",
"#+	c #2D3437",
"$+	c #242424",
"%+	c #353535",
"&+	c #080707",
"*+	c #2B2C2D",
"=+	c #373F44",
"-+	c #2C424F",
";+	c #363E43",
">+	c #2E3131",
",+	c #303030",
"'+	c #313131",
")+	c #2F3030",
"!+	c #3B3C3D",
"~+	c #323232",
"{+	c #252525",
"]+	c #363636",
"^+	c #101010",
"/+	c #0E0E0E",
"(+	c #272828",
"_+	c #323435",
":+	c #272829",
"<+	c #252728",
"[+	c #2D3539",
"}+	c #232728",
"|+	c #252424",
"1+	c #2A2929",
"2+	c #2D2F30",
"3+	c #26282A",
"4+	c #2A2A29",
"5+	c #252727",
"6+	c #2B3237",
"7+	c #222527",
"8+	c #242425",
"9+	c #282727",
"0+	c #2D2F31",
"a+	c #273F4C",
"b+	c #27414F",
"c+	c #283F4C",
"d+	c #2D3032",
"e+	c #282827",
"f+	c #222324",
"g+	c #212222",
"h+	c #242629",
"i+	c #343F45",
"j+	c #4F6978",
"k+	c #567485",
"l+	c #4F6A78",
"m+	c #344046",
"n+	c #242729",
"o+	c #202325",
"p+	c #1F3642",
"q+	c #2E3C45",
"r+	c #47606E",
"s+	c #4F6B7B",
"t+	c #46606D",
"u+	c #202121",
"v+	c #1B2E38",
"w+	c #234D63",
"x+	c #315366",
"y+	c #4E6C7D",
"z+	c #315365",
"A+	c #234C62",
"B+	c #212223",
"C+	c #1E3F52",
"D+	c #2A78A1",
"E+	c #417D9D",
"F+	c #78A9C5",
"G+	c #417C9D",
"H+	c #212224",
"I+	c #1F4255",
"J+	c #2C7FA8",
"K+	c #4483A5",
"L+	c #7EB2D0",
"M+	c #1F4355",
"N+	c #2C7FA9",
"O+	c #4484A5",
"P+	c #202123",
"Q+	c #232324",
"R+	c #2B2F32",
"S+	c #29292A",
"T+	c #1E2022",
"U+	c #1E4256",
"V+	c #7EB2CF",
"W+	c #282829",
"X+	c #2F363B",
"Y+	c #455E6A",
"Z+	c #30373C",
"`+	c #141414",
" @	c #282A2C",
".@	c #1F4052",
"+@	c #2B7CA5",
"@@	c #4483A4",
"#@	c #7DB3D0",
"$@	c #2A2E32",
"%@	c #455D6B",
"&@	c #33424A",
"*@	c #455D6A",
"=@	c #272C2F",
"-@	c #131313",
";@	c #292A2A",
">@	c #1D2E38",
",@	c #245B76",
"'@	c #3D708B",
")@	c #72A2BD",
"!@	c #23292C",
"~@	c #445D6A",
"{@	c #303E45",
"]@	c #445C6A",
"^@	c #21262A",
"/@	c #0F0F0F",
"(@	c #202224",
"_@	c #223038",
":@	c #2D3F49",
"<@	c #435762",
"[@	c #1B1C1C",
"}@	c #242A2E",
"|@	c #2E3A40",
"1@	c #191A1A",
"2@	c #0A0A0A",
"3@	c #222223",
"4@	c #1D1F20",
"5@	c #090909",
"6@	c #232425",
"7@	c #2C363B",
"8@	c #2B363B",
"9@	c #242728",
"0@	c #1F2427",
"a@	c #1E1F20",
"b@	c #212628",
"c@	c #030303",
"d@	c #010202",
"e@	c #202C32",
"f@	c #1A323F",
"g@	c #1C2529",
"h@	c #1D1E1E",
"i@	c #1C1E1F",
"j@	c #1C252A",
"k@	c #1A3240",
"l@	c #202C33",
"m@	c #292A2B",
"n@	c #020304",
"o@	c #21333C",
"p@	c #1C455B",
"q@	c #1E3A49",
"r@	c #29363D",
"s@	c #27343B",
"t@	c #1D3847",
"u@	c #1B455B",
"v@	c #010203",
"w@	c #030405",
"x@	c #21323C",
"y@	c #1D4D66",
"z@	c #2A5971",
"A@	c #446274",
"B@	c #415E6F",
"C@	c #27556C",
"D@	c #21323B",
"E@	c #222A2E",
"F@	c #1B3746",
"G@	c #204051",
"H@	c #2F4755",
"I@	c #2D4553",
"J@	c #1F3E4F",
"K@	c #1B3645",
"L@	c #22292E",
"M@	c #1D2326",
"N@	c #1A2F3B",
"O@	c #20546F",
"P@	c #1F546F",
"Q@	c #1D2225",
"R@	c #1C3D4E",
"S@	c #297CA5",
"T@	c #1B1D1F",
"U@	c #1D1D1E",
"V@	c #182A34",
"W@	c #205772",
"X@	c #205773",
"Y@	c #172A34",
"Z@	c #1C1D1E",
"`@	c #181B1C",
" #	c #1B262D",
".#	c #1C1C1D",
"+#	c #2A3134",
"@#	c #242628",
"##	c #2A2A2B",
"$#	c #3E535E",
"%#	c #2A3338",
"&#	c #1B1B1C",
"*#	c #3E525E",
"=#	c #2B3539",
"-#	c #2A2B2C",
";#	c #303D43",
">#	c #496371",
",#	c #2F3B42",
"'#	c #1A1B1C",
")#	c #191818",
"!#	c #1B1C1D",
"~#	c #303C43",
"{#	c #2A2B2B",
"]#	c #2F3A40",
"^#	c #465F6C",
"/#	c #2E393F",
"(#	c #1A1B1B",
"_#	c #2E3940",
":#	c #323F47",
"<#	c #262B2F",
"[#	c #323F46",
"}#	c #282A2B",
"|#	c #252729",
"1#	c #2D383E",
"2#	c #141B1F",
"3#	c #020303",
"4#	c #111010",
"5#	c #0A0B0C",
"6#	c #11181D",
"7#	c #0C1217",
"8#	c #010303",
"9#	c #000001",
"0#	c #020305",
"a#	c #000101",
"                                                          . + @ @ + .                                                           ",
"                                                        # $ % & & % $ #                                                         ",
"                                                        * = - ; ; - = *                                                         ",
"                                                      > , ' ) ! ! ) ' , >                                                       ",
"                                                      ~ { ] ^ / / ^ ( _ ~                                                       ",
"                                                      : < [ } | | 1 2 3 :                                                       ",
"                                                    # 4 5 6 7 8 8 9 6 5 4 #                                                     ",
"                                                    . 0 a b c d d c b a 0 .                                                     ",
"                                                    e f g h i j j k h g f e                                                     ",
"                                l m n n o l     l p q r s t u v w u t s r q p l     l o n n x l                                 ",
"                              l y z A A z y l l y z B C D E F G G H I D C B J y l l y z A A z y l                               ",
"                              o z K L L K J y n z M N O P Q R S T U Q V W N M J n y J K L L K z X                               ",
"                              n A L Y Z J ` J  .A ..+.@.#.$.%.&.&.*.$.=.@.+...A -.J ` J Z Y L A ;.                              ",
"                              n A >.,.'.).>.` !.A ~.{.].{.^./.(._.:.<.{.].{.~.A !.` >.).'.,.>.A ;.                              ",
"                              n A >.,.[.}.|.` ~.@.~.z !.z 1.2.3.3.4.5.z !.z ~.@.~.` |.}.[.,.>.A ;.                              ",
"                              n A >.'.6.6.Y 7.` 8.9.L z z 0.a.b.b.c.d.z z L 9.8.` 7.Y 6.6.'.>.A ;.                              ",
"                              ;.A >.'.6.6.[.Y 7.` 8.9.L J e.f.g.g.h.e.J L 9.8.` 7.Y [.6.6.'.>.A n                               ",
"                              n A >.i.j.k.[.[.Y 7.` 8.l.` m.n.,.,.n.m.` l.8.` 7.Y [.[.k.j.i.>.A n                               ",
"                              n A L o.p.q.r.[.[.Y 7.L 9.@.8.s.,.,.s.8.@.9.L 7.Y [.[.r.q.p.o.L A n                               ",
"                              o z t.u.v.w.x.y.[.[.Y 7.K ~.z z.,.,.z.z ~.K 7.Y [.[.y.x.w.A.u.t.z o                               ",
"                              l y !.B.C.D.E.F.[.[.[.Y s.>.A z.}.}.z.A >.s.Y [.[.[.F.E.G.H.B.!.y l                               ",
"                                l I.J.K.L.M.N.[.6.[.[.O.m.J.|.}.}.|.J.m.O.[.[.6.[.N.P.L.K.J.Q.l                                 ",
"                                l n  .R.S.T.}.[.6.6.[.Y 7.s.7.Y Y 7.s.7.}.[.6.6.[.}.T.S.R. .n l                                 ",
"                                o U.V.W.X.Y.Z.`.`.`.Y Z.!.m.J.O.O.J.J.A Z.Y `.`.`.Z.Y.X.W.V.U.o                                 ",
"                                n  +.+++@+#+z.A $+J s.m.` z m.%+%+m.z ` m.s.J $+A z.#+@+++.+ +&+                                ",
"                                n *+=+-+;+>+Z.m.>.].|.,+>.$+J.'+'+J.$+>.,+|.].>.m.Z.>+;+-+=+*+;.                                ",
"                                n m.)+!+O.'+`.s.].].7.~+{+].J.J.J.J.].{+~+7.].].s.`.'+O.!+)+m.n                                 ",
"                                n A ].~+]+'+`.J.$+].A ~+A $+m.{+{+m.$+A ~+A ].$+J.`.'+]+~+].A n                                 ",
"                              l y A $+{+m.|.O.J.$+$+J ,+m.!.!.J J !.!.m.,+J $+$+J.O.|.m.{+$+A ^+l                               ",
"                            l /+z z !.J >.(+_+:+$+{+].s.m.7.A m.m.A 7.m.s.].{+$+:+_+(+>.J !.z z /+l                             ",
"                          l /+J ~.>.!.!.$+<+[+}+|+J ].!.1+z.2+3+3+2+z.4+!.].J |+}+[+<+$+!.!.>.~.J /+l                           ",
"                        l /+z >.9.8.J A {+5+6+7+8+z $+{+9+0+a+b+b+c+d+e+{+$+z 8+7+6+5+{+A J 8.9.>.z /+l                         ",
"                      l /+z >.K 9.L z !.>.~.f+g+J !.$+{.h+i+j+k+k+l+m+n+{.$+!.J g+f+~.>.!.z L 9.K >.z /+l                       ",
"                    l /+z >.K 9.L J !.].@.+.].J !.!.J o+p+q+r+s+s+t+q+p+o+J !.!.J ].+.@.].!.J L 9.K >.z /+l                     ",
"                  l /+z >.K 9.` z !.].l.N ..L z !.!.z u+v+w+x+y+y+z+A+v+u+z !.!.z L ..N l.].!.z ` 9.K >.z /+l                   ",
"                l /+J >.K 9.` z !.].l.+.z A l.{.z !.!.B+C+D+E+F+F+G+D+C+B+!.!.z {.l.A z +.l.].!.z ` 9.K >.J /+l                 ",
"              l /+z K ~.9.` z z ].l.+.{+-.A 9.@.{.z !.H+I+J+K+L+L+K+J+I+H+!.z {.@.9.A -.{++.l.].z z ` 9.~.K z /+l               ",
"            l Q.!.].8.l.` z !.].l.+.{+y n A ~.+.l.{.z H+M+N+O+L+L+O+N+M+H+z {.l.+.~.A n y {++.l.].!.z ` l.8.].!.Q.l             ",
"          l /+z J.J {+].J !.].l.+.{+y l n A K 9.@.8.].P+M+N+O+L+L+O+N+M+P+].8.@.9.K A n l y {++.l.].!.J ].{+J J.z /+l           ",
"        l Q.z {.Q+R+S+A !.].l.+.{+y l   n A K 9.8.m.B T+U+N+O+V+V+O+N+U+T+B m.8.9.K A n   l y {++.l.].!.A S+R+Q+{.z Q.l         ",
"        o z {.W+X+Y+Z+U.].l.+.{+y l     n A 8.l.8.A `+ @.@+@@@#@#@@@+@.@ @`+A 8.l.8.A n     l y {++.l.].U.Z+Y+X+W+{.z o         ",
"        n A 8.$@%@&@*@=@l.+.{+y l       o J M -@..!.^+;@>@,@'@)@)@'@,@>@;@^+!...-@M J o       l y {++.l.=@*@&@%@$@8.A n         ",
"        o z +.!@~@{@]@^@+.{+y l         l y {+....z /@A (@_@:@<@<@:@_@(@A /@z ....{+y l         l y {++.^@]@{@~@!@+.z o         ",
"        l y {+[@}@|@}@1@{+y l             l y J J y 2@A $+3@*+X.X.*+3@$+A 2@y J J y l             l y {+1@}@|@}@[@{+y l         ",
"          l y J 9.4@l.{+y l                 l o o l 5@m.z {.6@7@8@6@g+z m.5@l o o l                 l y {+l.4@9.J y l           ",
"            l y {+M {+y l                           5@;@9@0@a@b@b@a@0@9@;@5@                          l y {+M {+y l             ",
"              l n c@m d@                            5@;@e@f@g@h@i@j@k@l@m@5@                            l ;.c@n l               ",
"                  n@n@d@                            5@m@o@p@q@r@s@t@u@o@m@5@                            v@w@n@                  ",
"                                                    5@m@x@y@z@A@B@C@y@D@m@5@                                                    ",
"                                                    5@;@E@F@G@H@I@J@K@L@;@5@                                                    ",
"                                                    5@A B+M@N@O@P@N@Q@B+A 5@                                                    ",
"                                                    5@A ~.i@R@S@S@R@T@~.A 5@                                                    ",
"                                                  l /+A >.U@V@W@X@Y@Z@>.A /+l                                                   ",
"                                                l Q.z J Q+~.`@ # #`@.#Q+J z Q.l                                                 ",
"                                                o (+<++#@#.#@.K K @..#9@+#<+(+o                                                 ",
"                                                n ##u.$#%#&#@.K K @.&#u.*#=###n                                                 ",
"                                                n -#;#>#,#'#)#K K @.!#~#>#;#-#n                                                 ",
"                                                n {#]#^#/#(#M 8.8.M !#_#^#]#{#n                                                 ",
"                                                o !.=@:#<#9.-@z z `+&#<#[#=@!.o                                                 ",
"                                                l /+!.}#<+z 2@n n 2@z |#}#!./+l                                                 ",
"                                                  l ^+}#1#2#3#    n@2#1#}#4#l                                                   ",
"                                                    l 5#6#7#d@    8#7#6#5#l                                                     ",
"                                                      9#n@8#        n@0#a#                                                      ",
"                                                                                                                                "};
