/* XPM */
static char * player_right0_xpm[] = {
"64 64 405 2",
"  	c #000000",
". 	c #010101",
"+ 	c #060606",
"@ 	c #070707",
"# 	c #0D0D0D",
"$ 	c #272727",
"% 	c #292929",
"& 	c #0C0C0C",
"* 	c #0E0E0E",
"= 	c #222222",
"- 	c #1C1C1C",
"; 	c #181818",
"> 	c #252525",
", 	c #282829",
"' 	c #2A2E32",
") 	c #23292C",
"! 	c #1B1C1C",
"~ 	c #262626",
"{ 	c #282828",
"] 	c #2B2B2B",
"^ 	c #232324",
"/ 	c #2F363B",
"( 	c #455D6B",
"_ 	c #445D6A",
": 	c #242A2E",
"< 	c #1B1B1B",
"[ 	c #232323",
"} 	c #2B2F32",
"| 	c #455E6A",
"1 	c #33424A",
"2 	c #303E45",
"3 	c #2E3A40",
"4 	c #1D1F20",
"5 	c #171717",
"6 	c #030303",
"7 	c #020304",
"8 	c #1E1E1E",
"9 	c #29292A",
"0 	c #30373C",
"a 	c #455D6A",
"b 	c #445C6A",
"c 	c #1A1A1A",
"d 	c #080808",
"e 	c #030405",
"f 	c #212121",
"g 	c #1D1D1D",
"h 	c #282929",
"i 	c #272C2F",
"j 	c #21262A",
"k 	c #191A1A",
"l 	c #010203",
"m 	c #1F1F1F",
"n 	c #070708",
"o 	c #080707",
"p 	c #101010",
"q 	c #202020",
"r 	c #060607",
"s 	c #1F2020",
"t 	c #2D3134",
"u 	c #2B2C2D",
"v 	c #2A2A2A",
"w 	c #3B3B3B",
"x 	c #3D3D3D",
"y 	c #3E3E3E",
"z 	c #3D3D3E",
"A 	c #3A3B3C",
"B 	c #2B3439",
"C 	c #353738",
"D 	c #121212",
"E 	c #2D3338",
"F 	c #48616F",
"G 	c #373F44",
"H 	c #2F3030",
"I 	c #242424",
"J 	c #383838",
"K 	c #3F3F3F",
"L 	c #404040",
"M 	c #3E3E3F",
"N 	c #343E44",
"O 	c #294858",
"P 	c #313F47",
"Q 	c #393A39",
"R 	c #2C2E2F",
"S 	c #293F4C",
"T 	c #507082",
"U 	c #2C424F",
"V 	c #3B3C3D",
"W 	c #323232",
"X 	c #333333",
"Y 	c #3C3C3C",
"Z 	c #3D3E3F",
"` 	c #313E44",
" .	c #24495B",
"..	c #2A3C45",
"+.	c #333536",
"@.	c #353536",
"#.	c #2F3438",
"$.	c #405662",
"%.	c #363E43",
"&.	c #393939",
"*.	c #363636",
"=.	c #191919",
"-.	c #151515",
";.	c #111111",
">.	c #2E2E2E",
",.	c #3A3D3E",
"'.	c #2D363B",
").	c #2F3538",
"!.	c #2A2E30",
"~.	c #343637",
"{.	c #303132",
"].	c #2D3437",
"^.	c #2E3131",
"/.	c #313131",
"(.	c #272828",
"_.	c #252728",
":.	c #252727",
"<.	c #161616",
"[.	c #2D2D2D",
"}.	c #3D3E3D",
"|.	c #3B3C3C",
"1.	c #383939",
"2.	c #373737",
"3.	c #2F2F2F",
"4.	c #3A3A3A",
"5.	c #323435",
"6.	c #2D3539",
"7.	c #2B3237",
"8.	c #222324",
"9.	c #2C2C2C",
"0.	c #272829",
"a.	c #232728",
"b.	c #222527",
"c.	c #212222",
"d.	c #131313",
"e.	c #252424",
"f.	c #242425",
"g.	c #070606",
"h.	c #272626",
"i.	c #2A2A2B",
"j.	c #2A2B2C",
"k.	c #2A2B2B",
"l.	c #010000",
"m.	c #060000",
"n.	c #120807",
"o.	c #292828",
"p.	c #161515",
"q.	c #141414",
"r.	c #0F0F0F",
"s.	c #0A0A0A",
"t.	c #090909",
"u.	c #2B3539",
"v.	c #303D43",
"w.	c #2F3A40",
"x.	c #111010",
"y.	c #040000",
"z.	c #0B0100",
"A.	c #140200",
"B.	c #260500",
"C.	c #340D07",
"D.	c #2C2928",
"E.	c #201615",
"F.	c #1A1919",
"G.	c #303030",
"H.	c #202325",
"I.	c #202121",
"J.	c #212223",
"K.	c #212224",
"L.	c #202123",
"M.	c #1E2022",
"N.	c #282A2C",
"O.	c #292A2A",
"P.	c #292A2B",
"Q.	c #2A3134",
"R.	c #3E525E",
"S.	c #496371",
"T.	c #465F6C",
"U.	c #323F46",
"V.	c #282A2B",
"W.	c #0A0B0C",
"X.	c #000101",
"Y.	c #0D0100",
"Z.	c #270400",
"`.	c #3C0A00",
" +	c #521300",
".+	c #671C01",
"++	c #762508",
"@+	c #4F2E27",
"#+	c #351E18",
"$+	c #1D1A1A",
"%+	c #1A1A19",
"&+	c #2A2A29",
"*+	c #282827",
"=+	c #242729",
"-+	c #1F3642",
";+	c #1B2E38",
">+	c #1E3F52",
",+	c #1F4255",
"'+	c #1F4355",
")+	c #1E4256",
"!+	c #1F4052",
"~+	c #1D2E38",
"{+	c #202224",
"]+	c #242728",
"^+	c #202C33",
"/+	c #21333C",
"(+	c #21323B",
"_+	c #22292E",
":+	c #303C43",
"<+	c #2E3940",
"[+	c #262B2F",
"}+	c #252729",
"|+	c #2D383E",
"1+	c #11181D",
"2+	c #020305",
"3+	c #170200",
"4+	c #340800",
"5+	c #531200",
"6+	c #711E01",
"7+	c #8D2A02",
"8+	c #A53704",
"9+	c #B94509",
"0+	c #BD5114",
"a+	c #653E28",
"b+	c #553F2A",
"c+	c #55422C",
"d+	c #55452D",
"e+	c #54472D",
"f+	c #4F452D",
"g+	c #2F2D2A",
"h+	c #23211D",
"i+	c #2D3032",
"j+	c #344046",
"k+	c #2E3C45",
"l+	c #234C62",
"m+	c #2A78A1",
"n+	c #2C7FA8",
"o+	c #2C7FA9",
"p+	c #2B7CA5",
"q+	c #245B76",
"r+	c #223038",
"s+	c #222223",
"t+	c #1F2427",
"u+	c #1A3240",
"v+	c #1B455B",
"w+	c #1D4D66",
"x+	c #1B3645",
"y+	c #1D2225",
"z+	c #1B1D1F",
"A+	c #1C1D1E",
"B+	c #1C1C1D",
"C+	c #1B1B1C",
"D+	c #1B1C1D",
"E+	c #141B1F",
"F+	c #0C1217",
"G+	c #090000",
"H+	c #270500",
"I+	c #4D1000",
"J+	c #6B1B01",
"K+	c #882602",
"L+	c #A33404",
"M+	c #BC4207",
"N+	c #D0520B",
"O+	c #DC6613",
"P+	c #DA741C",
"Q+	c #D88324",
"R+	c #DA912A",
"S+	c #D89C30",
"T+	c #D7A636",
"U+	c #D5AD3B",
"V+	c #C5A63B",
"W+	c #4E452F",
"X+	c #34312C",
"Y+	c #2D2F30",
"Z+	c #283F4C",
"`+	c #4F6A78",
" @	c #46606D",
".@	c #315365",
"+@	c #417C9D",
"@@	c #4483A5",
"#@	c #4484A5",
"$@	c #4483A4",
"%@	c #3D708B",
"&@	c #2D3F49",
"*@	c #232425",
"=@	c #1E1F20",
"-@	c #1C252A",
";@	c #1D3847",
">@	c #27556C",
",@	c #1F3E4F",
"'@	c #1A2F3B",
")@	c #1C3D4E",
"!@	c #172A34",
"~@	c #181B1C",
"{@	c #010303",
"]@	c #370900",
"^@	c #661900",
"/@	c #882501",
"(@	c #A33103",
"_@	c #C04006",
":@	c #D7510A",
"<@	c #E76410",
"[@	c #E5771C",
"}@	c #6D422A",
"|@	c #553C2B",
"1@	c #56402C",
"2@	c #57452E",
"3@	c #65563B",
"4@	c #63563D",
"5@	c #5C533D",
"6@	c #43423D",
"7@	c #3E3E3D",
"8@	c #353535",
"9@	c #26282A",
"0@	c #27414F",
"a@	c #567485",
"b@	c #4F6B7B",
"c@	c #4E6C7D",
"d@	c #78A9C5",
"e@	c #7EB2D0",
"f@	c #7EB2CF",
"g@	c #7DB3D0",
"h@	c #72A2BD",
"i@	c #435762",
"j@	c #2B363B",
"k@	c #212628",
"l@	c #1C1E1F",
"m@	c #27343B",
"n@	c #415E6F",
"o@	c #2D4553",
"p@	c #1F546F",
"q@	c #297CA5",
"r@	c #205773",
"s@	c #1B262D",
"t@	c #872501",
"u@	c #E7781C",
"v@	c #58452E",
"w@	c #66563B",
"x@	c #63573D",
"y@	c #5C543D",
"z@	c #2C363B",
"A@	c #1D1E1E",
"B@	c #29363D",
"C@	c #446274",
"D@	c #2F4755",
"E@	c #20546F",
"F@	c #205772",
"G@	c #862602",
"H@	c #D9731B",
"I@	c #D98424",
"J@	c #DB922A",
"K@	c #DB9E30",
"L@	c #DAA937",
"M@	c #C6A73B",
"N@	c #273F4C",
"O@	c #4F6978",
"P@	c #47606E",
"Q@	c #315366",
"R@	c #417D9D",
"S@	c #1C2529",
"T@	c #1E3A49",
"U@	c #2A5971",
"V@	c #204051",
"W@	c #182A34",
"X@	c #191818",
"Y@	c #020303",
"Z@	c #010202",
"`@	c #721E01",
" #	c #B94409",
".#	c #BC5014",
"+#	c #563F2B",
"@#	c #56432C",
"##	c #56462D",
"$#	c #2D2F31",
"%#	c #343F45",
"&#	c #234D63",
"*#	c #1A323F",
"=#	c #1C455B",
"-#	c #1B3746",
";#	c #1D2326",
">#	c #1D1D1E",
",#	c #1A1B1C",
"'#	c #1A1B1B",
")#	c #3D0A00",
"!#	c #341E18",
"~#	c #2A2929",
"{#	c #282727",
"]#	c #242629",
"^#	c #202C32",
"/#	c #21323C",
"(#	c #222A2E",
"_#	c #242628",
":#	c #2A3338",
"<#	c #2F3B42",
"[#	c #2E393F",
"}#	c #340E07",
"|#	c #3E535E",
"1#	c #323F47",
"2#	c #000001",
"3#	c #292D30",
"4#	c #2A3C44",
"5#	c #294857",
"6#	c #313F46",
"7#	c #070808",
"8#	c #0E0D0D",
"                                                                                                                                ",
"                                                                                                                                ",
"                                                                                                                                ",
"                                                                                                                                ",
"                                                                              . + @ + .                                         ",
"                                                                            . # $ % $ & .                                       ",
"                                                                          . * $ = - ; > & .                                     ",
"                                                                        . # $ = , ' ) ! ~ & .                                   ",
"                                                                      . * { ] ^ / ( _ : < > @                                   ",
"                                                                    . * $ [ ~ } | 1 2 3 4 5 6 7                                 ",
"                                                                  . * ~ 8 - > 9 0 a b : c > d e                                 ",
"                                                                . * $ f g c [ % h i j k > & . l                                 ",
"                                                              . * $ f 8 < m ~ { [ c ; > & .                                     ",
"                                                            . * $ f 8 < m $ { [ c ; > & .                                       ",
"                                                          . * $ f 8 < m $ { [ c ; > & .                                         ",
"                    . n d d d d @ @ @ + .               . * ~ f 8 < m $ $ [ c ; > & .                                           ",
"                  . & $ % % % % % % % $ & . . + o d @ @ p $ g < < q $ { [ c ; > & .                                             ",
"                  r $ 8 q f f f f f q s { # @ h t u v % % $ f - q ~ { [ c ; > & .                                               ",
"                  @ % q w x x y y z A B C ] D E F G H [ I { { ~ $ { [ c ; > & .                                                 ",
"                  @ % q J y K L L M N O P Q R S T U V W > ~ { % { [ c ; > & .                                                   ",
"                  + $ 8 ~ X Y L L Z `  ...+.@.#.$.%.&.*.v f I > f =.-.$ ;.@ @ @ @ + .                                           ",
"                  . & ~ m f >.w K K ,.'.).!.~.{.].^././.>.(._.:.g ; <.% % % % % % ~ & .                                         ",
"                    . & ~ m m [.w K K }.|.1.Y 2.3.2.4.4.&.5.6.7.8.[ q c < g 8 8 - 5 > & .                                       ",
"                    . @ ;.{ g m [.w K K K K K 4.% v 9.] ] 0.a.b.c.~ $ = =.; < < c d.<.~ +                                       ",
"                  . & ~ % % =.- m [.w K K L L 4.I f [ I I I e.f.~ { { $ = c =.- - <.<.~ +                 . + @ @ @ + .         ",
"                  g.h.5 <.g g < - m [.w K K L 4.~ [ [ [ I > ~ $ { { { { $ = - v % { $ & .               . # (.i.j.k.{ * .       ",
"              l.m.n.o.p.; = $ q < - q [.w K K w 9.>.[.% ~ [ [ I I ~ $ { { $ [ o.q.p r.s.t.t.t.t.t.t.t.t.* $ _.u.v.w.i { x..     ",
"        l.y.z.A.B.C.D.E.F.[ { $ q c < 8 9.&.Y 2.v G.W W G.9.{ > = H.I.J.K.K.L.M.N.O.% % v O.P.P.P.O.% % % ~ Q.R.S.T.U.V.V.W.X.  ",
"      l.Y.Z.`. +.+++@+#+$+= $ $ ~ m %+g f v [.% m f > % v v &+*+=+-+;+>+,+'+'+)+!+~+{+I $ ]+^+/+(+_+J.g f ^ ]+B :+<+[+}+|+1+2+  ",
"  l.m.3+4+5+6+7+8+9+0+a+b+c+d+e+f+g+h+$ % ] 9.] $ I [ I { [.3.i+j+k+l+m+n+o+o+o+p+q+r+s+c.t+u+v+w+x+y+z+A+B+B+C+D+D+C+$ E+F+7   ",
"  G+H+I+J+K+L+M+N+O+P+Q+R+S+T+U+V+W+X+G.3.>.[.] v ] ] v { % Y+Z+`+ @.@+@@@#@#@#@$@%@&@u *@=@-@;@>@,@'@)@!@~@=.=.=.5 q.s.7 {@    ",
"  Y.]@^@/@(@_@:@<@[@}@|@1@2@3@4@5@6@7@x Y Y w &.8@/.] > ~ v 9@0@a@b@c@d@e@e@e@f@g@h@i@#.j@k@l@m@n@o@p@q@r@s@8 8 8 - $ @         ",
"  Y.]@^@t@(@_@:@<@u@}@|@1@v@w@x@y@6@7@x Y Y w &.8@/.] > ~ v 9@0@a@b@c@d@e@e@e@f@g@h@i@#.z@k@A@B@C@D@E@q@F@s@8 8 8 - $ @         ",
"  G+H+I+J+G@L+M+N+O+H@I@J@K@L@U+M@W+X+G.3.>.[.] v ] ] v { % Y+N@O@P@Q@R@@@#@#@#@$@%@&@u *@=@S@T@U@V@'@)@W@~@=.=.X@5 d.s.Y@Z@    ",
"  l.m.3+4+5+`@7+8+ #.#a++#@###e+f+g+h+$ % ] 9.v $ I [ I { [.3.$#%#k+&#m+n+o+o+o+p+q+r+s+= t+*#=#w+-#;#l@>#g B+C+,#'#< $ E+F+{@  ",
"      l.Y.Z.)# +.+++@+!#$+= $ $ ~ m %+g f v [.{ m f > % v v ~#{#]#-+;+>+,+'+'+)+!+~+{+I $ ]+^#/+/#(#J.g f ^ _#:#<#[#[+_.|+1+7   ",
"        l.y.z.A.B.}#D.E.F.[ { $ q c < 8 9.&.w 2.v G.W W G.9.{ > = H.I.J.K.K.L.M.N.O.% % v O.O.P.P.O.% % % ~ Q.|#S.T.1#V.V.W.2#  ",
"              l.m.n.o.p.; = $ q < - q [.w K K w 9.>.[.% ~ [ [ I I ~ $ { { $ [ o.q.p r.s.t.t.t.t.t.t.t.t.* $ _.B v.w.i { p .     ",
"                  g.$ 5 <.g g < - m [.w K K L 4.~ [ [ [ I > ~ $ { { { { $ = - v % { $ & .               . # (.i.j.k.{ * .       ",
"                  . & $ % % =.- m [.w K K L L 4.I f [ I I I e.f.~ { { $ = c =.- - <.<.~ +                 . + @ @ @ + .         ",
"                    . @ D { g m [.w K K K K K 4.% v 9.] ] 0.a.b.c.~ $ = =.; < < c d.<.~ +                                       ",
"                    . & ~ m m [.w K K }.|.1.Y 2.3.2.4.4.&.5.6.7.8.[ q c < g 8 8 - 5 > & .                                       ",
"                  . & ~ m f >.w K K ,.'.).3#~.{.].^././.>.(._.:.g ; <.% % % % % % ~ & .                                         ",
"                  + $ 8 ~ X Y L L Z `  .4#+.@.#.$.%.&.*.v f I > f =.-.$ ;.@ @ @ @ + .                                           ",
"                  @ % q J y K L L M N 5#6#Q R S T U V W > ~ { % { [ c ; > & .                                                   ",
"                  @ % q w x x y y z A B C ] D E F G H [ I { { ~ $ { [ c ; > & .                                                 ",
"                  7#$ 8 q f f f f f q s { 8#@ h t u v % % $ f - q ~ { [ c ; > & .                                               ",
"                  . & $ % % % % % % % $ & . . + @ @ @ @ & $ g < < q $ { [ c ; > & .                                             ",
"                    . + @ @ @ @ d @ @ + .               . * ~ f 8 < m $ $ [ c ; > & .                                           ",
"                                                          . * $ f 8 < m $ { [ c ; > & .                                         ",
"                                                            . * $ f 8 < m $ { [ c ; > & .                                       ",
"                                                              . * $ f 8 < m ~ { [ c ; > & .                                     ",
"                                                                . * $ f g c [ % h i j k > & Z@Z@                                ",
"                                                                  . * ~ 8 - > 9 0 a b : c > 7#7                                 ",
"                                                                    . * $ [ ~ } | 1 2 3 4 5 6 7                                 ",
"                                                                      . * { ] ^ / ( _ : < > @                                   ",
"                                                                        . # $ = , ' ) ! ~ & .                                   ",
"                                                                          . * $ = - ; > & .                                     ",
"                                                                            . # $ % $ & .                                       ",
"                                                                              . + @ + .                                         ",
"                                                                                                                                ",
"                                                                                                                                ",
"                                                                                                                                ",
"                                                                                                                                "};
