/* XPM */
static char * player_left0_xpm[] = {
"64 64 405 2",
"  	c #000000",
". 	c #010101",
"+ 	c #060606",
"@ 	c #070707",
"# 	c #0C0C0C",
"$ 	c #272727",
"% 	c #292929",
"& 	c #0D0D0D",
"* 	c #252525",
"= 	c #181818",
"- 	c #1C1C1C",
"; 	c #222222",
"> 	c #0E0E0E",
", 	c #262626",
"' 	c #1B1C1C",
") 	c #23292C",
"! 	c #2A2E32",
"~ 	c #282829",
"{ 	c #1B1B1B",
"] 	c #242A2E",
"^ 	c #445D6A",
"/ 	c #455D6B",
"( 	c #2F363B",
"_ 	c #232324",
": 	c #2B2B2B",
"< 	c #282828",
"[ 	c #020304",
"} 	c #030303",
"| 	c #171717",
"1 	c #1D1F20",
"2 	c #2E3A40",
"3 	c #303E45",
"4 	c #33424A",
"5 	c #455E6A",
"6 	c #2B2F32",
"7 	c #232323",
"8 	c #070808",
"9 	c #1A1A1A",
"0 	c #445C6A",
"a 	c #455D6A",
"b 	c #30373C",
"c 	c #29292A",
"d 	c #1E1E1E",
"e 	c #010202",
"f 	c #191A1A",
"g 	c #21262A",
"h 	c #272C2F",
"i 	c #282929",
"j 	c #1D1D1D",
"k 	c #212121",
"l 	c #1F1F1F",
"m 	c #080808",
"n 	c #202020",
"o 	c #2A2A2A",
"p 	c #2B2C2D",
"q 	c #2D3134",
"r 	c #0E0D0D",
"s 	c #1F2020",
"t 	c #242424",
"u 	c #2F3030",
"v 	c #373F44",
"w 	c #48616F",
"x 	c #2D3338",
"y 	c #121212",
"z 	c #353738",
"A 	c #2B3439",
"B 	c #3A3B3C",
"C 	c #3D3D3E",
"D 	c #3E3E3E",
"E 	c #3D3D3D",
"F 	c #3B3B3B",
"G 	c #323232",
"H 	c #3B3C3D",
"I 	c #2C424F",
"J 	c #507082",
"K 	c #293F4C",
"L 	c #2C2E2F",
"M 	c #393A39",
"N 	c #313F46",
"O 	c #294857",
"P 	c #343E44",
"Q 	c #3E3E3F",
"R 	c #404040",
"S 	c #3F3F3F",
"T 	c #383838",
"U 	c #111111",
"V 	c #151515",
"W 	c #191919",
"X 	c #363636",
"Y 	c #393939",
"Z 	c #363E43",
"` 	c #405662",
" .	c #2F3438",
"..	c #353536",
"+.	c #333536",
"@.	c #2A3C44",
"#.	c #24495B",
"$.	c #313E44",
"%.	c #3D3E3F",
"&.	c #3C3C3C",
"*.	c #333333",
"=.	c #161616",
"-.	c #252727",
";.	c #252728",
">.	c #272828",
",.	c #2E2E2E",
"'.	c #313131",
").	c #2E3131",
"!.	c #2D3437",
"~.	c #303132",
"{.	c #343637",
"].	c #292D30",
"^.	c #2F3538",
"/.	c #2D363B",
"(.	c #3A3D3E",
"_.	c #222324",
":.	c #2B3237",
"<.	c #2D3539",
"[.	c #323435",
"}.	c #3A3A3A",
"|.	c #373737",
"1.	c #2F2F2F",
"2.	c #383939",
"3.	c #3B3C3C",
"4.	c #3D3E3D",
"5.	c #2D2D2D",
"6.	c #131313",
"7.	c #212222",
"8.	c #222527",
"9.	c #232728",
"0.	c #272829",
"a.	c #2C2C2C",
"b.	c #242425",
"c.	c #252424",
"d.	c #2A2B2B",
"e.	c #2A2B2C",
"f.	c #2A2A2B",
"g.	c #070606",
"h.	c #101010",
"i.	c #2F3A40",
"j.	c #303D43",
"k.	c #090909",
"l.	c #0A0A0A",
"m.	c #0F0F0F",
"n.	c #141414",
"o.	c #292828",
"p.	c #161515",
"q.	c #120807",
"r.	c #060000",
"s.	c #010000",
"t.	c #000001",
"u.	c #0A0B0C",
"v.	c #282A2B",
"w.	c #323F47",
"x.	c #465F6C",
"y.	c #496371",
"z.	c #3E535E",
"A.	c #2A3134",
"B.	c #292A2A",
"C.	c #292A2B",
"D.	c #282A2C",
"E.	c #1E2022",
"F.	c #202123",
"G.	c #212224",
"H.	c #212223",
"I.	c #202121",
"J.	c #202325",
"K.	c #303030",
"L.	c #1A1919",
"M.	c #201615",
"N.	c #2C2928",
"O.	c #340E07",
"P.	c #260500",
"Q.	c #140200",
"R.	c #0B0100",
"S.	c #040000",
"T.	c #11181D",
"U.	c #2D383E",
"V.	c #262B2F",
"W.	c #2E393F",
"X.	c #2F3B42",
"Y.	c #2A3338",
"Z.	c #242628",
"`.	c #222A2E",
" +	c #21323C",
".+	c #21333C",
"++	c #202C32",
"@+	c #242728",
"#+	c #202224",
"$+	c #1D2E38",
"%+	c #1F4052",
"&+	c #1E4256",
"*+	c #1F4355",
"=+	c #1F4255",
"-+	c #1E3F52",
";+	c #1B2E38",
">+	c #1F3642",
",+	c #242629",
"'+	c #282727",
")+	c #2A2929",
"!+	c #1A1A19",
"~+	c #1D1A1A",
"{+	c #341E18",
"]+	c #4F2E27",
"^+	c #762508",
"/+	c #671C01",
"(+	c #521300",
"_+	c #3D0A00",
":+	c #270400",
"<+	c #0D0100",
"[+	c #010303",
"}+	c #0C1217",
"|+	c #141B1F",
"1+	c #1A1B1B",
"2+	c #1A1B1C",
"3+	c #1B1B1C",
"4+	c #1C1C1D",
"5+	c #1D1D1E",
"6+	c #1C1E1F",
"7+	c #1D2326",
"8+	c #1B3746",
"9+	c #1D4D66",
"0+	c #1C455B",
"a+	c #1A323F",
"b+	c #1F2427",
"c+	c #222223",
"d+	c #223038",
"e+	c #245B76",
"f+	c #2B7CA5",
"g+	c #2C7FA9",
"h+	c #2C7FA8",
"i+	c #2A78A1",
"j+	c #234D63",
"k+	c #2E3C45",
"l+	c #343F45",
"m+	c #2D2F31",
"n+	c #23211D",
"o+	c #2F2D2A",
"p+	c #4F452D",
"q+	c #54472D",
"r+	c #56462D",
"s+	c #56432C",
"t+	c #563F2B",
"u+	c #653E28",
"v+	c #BC5014",
"w+	c #B94409",
"x+	c #A53704",
"y+	c #8D2A02",
"z+	c #721E01",
"A+	c #531200",
"B+	c #340800",
"C+	c #170200",
"D+	c #020303",
"E+	c #191818",
"F+	c #181B1C",
"G+	c #182A34",
"H+	c #1C3D4E",
"I+	c #1A2F3B",
"J+	c #204051",
"K+	c #2A5971",
"L+	c #1E3A49",
"M+	c #1C2529",
"N+	c #1E1F20",
"O+	c #232425",
"P+	c #2D3F49",
"Q+	c #3D708B",
"R+	c #4483A4",
"S+	c #4484A5",
"T+	c #4483A5",
"U+	c #417D9D",
"V+	c #315366",
"W+	c #47606E",
"X+	c #4F6978",
"Y+	c #273F4C",
"Z+	c #2D2F30",
"`+	c #34312C",
" @	c #4E452F",
".@	c #C6A73B",
"+@	c #D5AD3B",
"@@	c #DAA937",
"#@	c #DB9E30",
"$@	c #DB922A",
"%@	c #D98424",
"&@	c #D9731B",
"*@	c #DC6613",
"=@	c #D0520B",
"-@	c #BC4207",
";@	c #A33404",
">@	c #862602",
",@	c #6B1B01",
"'@	c #4D1000",
")@	c #270500",
"!@	c #090000",
"~@	c #1B262D",
"{@	c #205772",
"]@	c #297CA5",
"^@	c #20546F",
"/@	c #2F4755",
"(@	c #446274",
"_@	c #29363D",
":@	c #1D1E1E",
"<@	c #212628",
"[@	c #2C363B",
"}@	c #435762",
"|@	c #72A2BD",
"1@	c #7DB3D0",
"2@	c #7EB2CF",
"3@	c #7EB2D0",
"4@	c #78A9C5",
"5@	c #4E6C7D",
"6@	c #4F6B7B",
"7@	c #567485",
"8@	c #27414F",
"9@	c #26282A",
"0@	c #353535",
"a@	c #3E3E3D",
"b@	c #43423D",
"c@	c #5C543D",
"d@	c #63573D",
"e@	c #66563B",
"f@	c #58452E",
"g@	c #56402C",
"h@	c #553C2B",
"i@	c #6D422A",
"j@	c #E7781C",
"k@	c #E76410",
"l@	c #D7510A",
"m@	c #C04006",
"n@	c #A33103",
"o@	c #872501",
"p@	c #661900",
"q@	c #370900",
"r@	c #205773",
"s@	c #1F546F",
"t@	c #2D4553",
"u@	c #415E6F",
"v@	c #27343B",
"w@	c #2B363B",
"x@	c #5C533D",
"y@	c #63563D",
"z@	c #65563B",
"A@	c #57452E",
"B@	c #E5771C",
"C@	c #882501",
"D@	c #172A34",
"E@	c #1F3E4F",
"F@	c #27556C",
"G@	c #1D3847",
"H@	c #1C252A",
"I@	c #417C9D",
"J@	c #315365",
"K@	c #46606D",
"L@	c #4F6A78",
"M@	c #283F4C",
"N@	c #C5A63B",
"O@	c #D7A636",
"P@	c #D89C30",
"Q@	c #DA912A",
"R@	c #D88324",
"S@	c #DA741C",
"T@	c #882602",
"U@	c #1B1C1D",
"V@	c #1C1D1E",
"W@	c #1B1D1F",
"X@	c #1D2225",
"Y@	c #1B3645",
"Z@	c #1B455B",
"`@	c #1A3240",
" #	c #234C62",
".#	c #344046",
"+#	c #2D3032",
"@#	c #55452D",
"##	c #55422C",
"$#	c #553F2A",
"%#	c #BD5114",
"&#	c #B94509",
"*#	c #711E01",
"=#	c #020305",
"-#	c #252729",
";#	c #2E3940",
">#	c #303C43",
",#	c #22292E",
"'#	c #21323B",
")#	c #202C33",
"!#	c #242729",
"~#	c #282827",
"{#	c #2A2A29",
"]#	c #351E18",
"^#	c #3C0A00",
"/#	c #000101",
"(#	c #323F46",
"_#	c #3E525E",
":#	c #340D07",
"<#	c #111010",
"[#	c #2B3539",
"}#	c #272626",
"|#	c #2A2E30",
"1#	c #2A3C45",
"2#	c #313F47",
"3#	c #294858",
"4#	c #060607",
"5#	c #080707",
"6#	c #070708",
"7#	c #010203",
"8#	c #030405",
"                                                                                                                                ",
"                                                                                                                                ",
"                                                                                                                                ",
"                                                                                                                                ",
"                                        . + @ + .                                                                               ",
"                                      . # $ % $ & .                                                                             ",
"                                    . # * = - ; $ > .                                                                           ",
"                                  . # , ' ) ! ~ ; $ & .                                                                         ",
"                                  @ * { ] ^ / ( _ : < > .                                                                       ",
"                                [ } | 1 2 3 4 5 6 , 7 $ > .                                                                     ",
"                                [ 8 * 9 ] 0 a b c * - d , > .                                                                   ",
"                                e e # * f g h i % 7 9 j k $ > .                                                                 ",
"                                    . # * = 9 7 < , l { d k $ > .                                                               ",
"                                      . # * = 9 7 < $ l { d k $ > .                                                             ",
"                                        . # * = 9 7 < $ l { d k $ > .                                                           ",
"                                          . # * = 9 7 $ $ l { d k , > .               . + @ @ m @ @ @ @ + .                     ",
"                                            . # * = 9 7 < $ n { { j $ # @ @ @ @ + . . # $ % % % % % % % $ # .                   ",
"                                              . # * = 9 7 < , n - k $ % % o p q i @ r < s n k k k k k n d $ 8                   ",
"                                                . # * = 9 7 < $ , < < t 7 u v w x y : z A B C D D E E F n % @                   ",
"                                                  . # * = 9 7 < % < , * G H I J K L M N O P Q R R S D T n % @                   ",
"                                          . + @ @ @ @ U $ V W k * t k o X Y Z `  ...+.@.#.$.%.R R &.*., d $ +                   ",
"                                        . # , % % % % % % =.= j -.;.>.,.'.'.).!.~.{.].^./.(.S S F ,.k l , # .                   ",
"                                      . # * | - d d j { 9 n 7 _.:.<.[.Y }.}.|.1.|.&.2.3.4.S S F 5.l l , # .                     ",
"                                      + , =.6.9 { { = W ; $ , 7.8.9.0.: : a.o % }.S S S S S F 5.l j < y @ .                     ",
"        . + @ @ @ + .                 + , =.=.- - W 9 ; $ < < , b.c.t t t 7 k t }.R R S S F 5.l - W % % $ # .                   ",
"      . > < d.e.f.>.& .               . # $ < % o - ; $ < < < < $ , * t 7 7 7 , }.R S S F 5.l - { j j =.| $ g.                  ",
"    . h.< h i.j.A ;.$ > k.k.k.k.k.k.k.k.l.m.h.n.o.7 $ < < $ , t t 7 7 , % 5.,.a.F S S F 5.n - { n $ ; = p.o.q.r.s.              ",
"  t.u.v.v.w.x.y.z.A., % % % B.C.C.B.B.o % % B.D.E.F.G.G.H.I.J.; * < a.K.G G K.o |.F Y a.d { 9 n $ < 7 L.M.N.O.P.Q.R.S.s.        ",
"  [ T.U.;.V.W.X.Y.Z._ k j H.`. +.+++@+$ t #+$+%+&+*+*+=+-+;+>+,+'+)+o o % * k l < 5.o k j !+l , $ $ ; ~+{+]+^+/+(+_+:+<+s.      ",
"  [+}+|+$ { 1+2+3+4+j 5+6+7+8+9+0+a+b+; c+d+e+f+g+g+g+h+i+j+k+l+m+1.5.< t 7 t $ o a.: % $ n+o+p+q+r+s+t+u+v+w+x+y+z+A+B+C+r.s.  ",
"    e D+l.6.| E+W W F+G+H+I+J+K+L+M+N+O+p P+Q+R+S+S+S+T+U+V+W+X+Y+Z+% < o : : o : 5.,.1.K.`+ @.@+@@@#@$@%@&@*@=@-@;@>@,@'@)@!@  ",
"        @ $ - d d d ~@{@]@^@/@(@_@:@<@[@ .}@|@1@2@3@3@3@4@5@6@7@8@9@o , * : '.0@Y F &.&.E a@b@c@d@e@f@g@h@i@j@k@l@m@n@o@p@q@<+  ",
"        @ $ - d d d ~@r@]@s@t@u@v@6+<@w@ .}@|@1@2@3@3@3@4@5@6@7@8@9@o , * : '.0@Y F &.&.E a@b@x@y@z@A@g@h@i@B@k@l@m@n@C@p@q@<+  ",
"    [+[ l.n.| W W W F+D@H+I+E@F@G@H@N+O+p P+Q+R+S+S+S+T+I@J@K@L@M@Z+% < o : : o : 5.,.1.K.`+ @N@+@O@P@Q@R@S@*@=@-@;@T@,@'@)@!@  ",
"  [ }+|+$ 3+U@U@3+4+4+V@W@X@Y@9+Z@`@b+7.c+d+e+f+g+g+g+h+i+ #k+.#+#1.5.< t 7 t $ : a.: % $ n+o+p+q+@###$#u+%#&#x+y+*#A+B+C+r.s.  ",
"  =#T.U.-#V.;#>#A @+_ k j H.,#'#.+)#@+$ t #+$+%+&+*+*+=+-+;+>+!#~#{#o o % * k l % 5.o k j !+l , $ $ ; ~+]#]+^+/+(+^#:+<+s.      ",
"  /#u.v.v.(#x.y._#A., % % % B.C.C.C.B.o % % B.D.E.F.G.G.H.I.J.; * < a.K.G G K.o |.&.Y a.d { 9 n $ < 7 L.M.N.:#P.Q.R.S.s.        ",
"    . <#< h i.j.[#;.$ > k.k.k.k.k.k.k.k.l.m.h.n.o.7 $ < < $ , t t 7 7 , % 5.,.a.F S S F 5.n - { n $ ; = p.o.q.r.s.              ",
"      . > < d.e.f.>.& .               . # $ < % o - ; $ < < < < $ , * t 7 7 7 , }.R S S F 5.l - { j j =.| }#g.                  ",
"        . + @ @ @ + .                 + , =.=.- - W 9 ; $ < < , b.c.t t t 7 k t }.R R S S F 5.l - W % % , # .                   ",
"                                      + , =.6.9 { { = W ; $ , 7.8.9.0.: : a.o % }.S S S S S F 5.l j < U @ .                     ",
"                                      . # * | - d d j { 9 n 7 _.:.<.[.Y }.}.|.1.|.&.2.3.4.S S F 5.l l , # .                     ",
"                                        . # , % % % % % % =.= j -.;.>.,.'.'.).!.~.{.|#^./.(.S S F ,.k l , # .                   ",
"                                          . + @ @ @ @ U $ V W k * t k o X Y Z `  ...+.1##.$.%.R R &.*., d $ +                   ",
"                                                  . # * = 9 7 < % < , * G H I J K L M 2#3#P Q R R S D T n % @                   ",
"                                                . # * = 9 7 < $ , < < t 7 u v w x y : z A B C D D E E F n % @                   ",
"                                              . # * = 9 7 < , n - k $ % % o p q i @ & < s n k k k k k n d $ 4#                  ",
"                                            . # * = 9 7 < $ n { { j $ h.@ @ m 5#+ . . # $ % % % % % % % $ # .                   ",
"                                          . # * = 9 7 $ $ l { d k , > .               . + @ @ @ m m m m 6#.                     ",
"                                        . # * = 9 7 < $ l { d k $ > .                                                           ",
"                                      . # * = 9 7 < $ l { d k $ > .                                                             ",
"                                    . # * = 9 7 < , l { d k $ > .                                                               ",
"                                7#. # * f g h i % 7 9 j k $ > .                                                                 ",
"                                8#m * 9 ] 0 a b c * - d , > .                                                                   ",
"                                [ } | 1 2 3 4 5 6 , 7 $ > .                                                                     ",
"                                  @ * { ] ^ / ( _ : < > .                                                                       ",
"                                  . # , ' ) ! ~ ; $ & .                                                                         ",
"                                    . # * = - ; $ > .                                                                           ",
"                                      . # $ % $ & .                                                                             ",
"                                        . + @ + .                                                                               ",
"                                                                                                                                ",
"                                                                                                                                ",
"                                                                                                                                ",
"                                                                                                                                "};
