/* XPM */
static char * player_left1_xpm[] = {
"64 64 408 2",
"  	c #000000",
". 	c #010101",
"+ 	c #060606",
"@ 	c #070707",
"# 	c #0C0C0C",
"$ 	c #272727",
"% 	c #292929",
"& 	c #0D0D0D",
"* 	c #252525",
"= 	c #181818",
"- 	c #1C1C1C",
"; 	c #222222",
"> 	c #0E0E0E",
", 	c #262626",
"' 	c #1B1C1C",
") 	c #23292C",
"! 	c #2A2E32",
"~ 	c #282829",
"{ 	c #1B1B1B",
"] 	c #242A2E",
"^ 	c #445D6A",
"/ 	c #455D6B",
"( 	c #2F363B",
"_ 	c #232324",
": 	c #2B2B2B",
"< 	c #282828",
"[ 	c #020304",
"} 	c #030303",
"| 	c #171717",
"1 	c #1D1F20",
"2 	c #2E3A40",
"3 	c #303E45",
"4 	c #33424A",
"5 	c #455E6A",
"6 	c #2B2F32",
"7 	c #232323",
"8 	c #070808",
"9 	c #1A1A1A",
"0 	c #445C6A",
"a 	c #455D6A",
"b 	c #30373C",
"c 	c #29292A",
"d 	c #1E1E1E",
"e 	c #010202",
"f 	c #191A1A",
"g 	c #21262A",
"h 	c #272C2F",
"i 	c #282929",
"j 	c #1D1D1D",
"k 	c #212121",
"l 	c #1F1F1F",
"m 	c #080808",
"n 	c #202020",
"o 	c #2A2A2A",
"p 	c #2B2C2D",
"q 	c #2D3134",
"r 	c #0E0D0D",
"s 	c #1F2020",
"t 	c #242424",
"u 	c #2F3030",
"v 	c #373F44",
"w 	c #48616F",
"x 	c #2D3338",
"y 	c #121212",
"z 	c #353738",
"A 	c #2B3439",
"B 	c #3A3B3C",
"C 	c #3D3D3E",
"D 	c #3E3E3E",
"E 	c #3D3D3D",
"F 	c #3B3B3B",
"G 	c #323232",
"H 	c #3B3C3D",
"I 	c #2C424F",
"J 	c #507082",
"K 	c #293F4C",
"L 	c #2C2E2F",
"M 	c #393A39",
"N 	c #313F46",
"O 	c #294857",
"P 	c #343E44",
"Q 	c #3E3E3F",
"R 	c #404040",
"S 	c #3F3F3F",
"T 	c #383838",
"U 	c #111111",
"V 	c #151515",
"W 	c #191919",
"X 	c #363636",
"Y 	c #393939",
"Z 	c #363E43",
"` 	c #405662",
" .	c #2F3438",
"..	c #353536",
"+.	c #333536",
"@.	c #2A3C44",
"#.	c #24495B",
"$.	c #313E44",
"%.	c #3D3E3F",
"&.	c #3C3C3C",
"*.	c #333333",
"=.	c #161616",
"-.	c #252727",
";.	c #252728",
">.	c #272828",
",.	c #2E2E2E",
"'.	c #313131",
").	c #2E3131",
"!.	c #2D3437",
"~.	c #303132",
"{.	c #343637",
"].	c #292D30",
"^.	c #2F3538",
"/.	c #2D363B",
"(.	c #3A3D3E",
"_.	c #222324",
":.	c #2B3237",
"<.	c #2D3539",
"[.	c #323435",
"}.	c #3A3A3A",
"|.	c #373737",
"1.	c #2F2F2F",
"2.	c #383939",
"3.	c #3B3C3C",
"4.	c #3D3E3D",
"5.	c #2D2D2D",
"6.	c #131313",
"7.	c #212222",
"8.	c #222527",
"9.	c #232728",
"0.	c #272829",
"a.	c #2C2C2C",
"b.	c #242425",
"c.	c #252424",
"d.	c #2A2B2B",
"e.	c #2A2B2C",
"f.	c #2A2A2B",
"g.	c #070606",
"h.	c #101010",
"i.	c #2F3A40",
"j.	c #303D43",
"k.	c #090909",
"l.	c #0A0A0A",
"m.	c #0F0F0F",
"n.	c #141414",
"o.	c #292828",
"p.	c #100707",
"q.	c #090000",
"r.	c #050000",
"s.	c #010000",
"t.	c #000001",
"u.	c #0A0B0C",
"v.	c #282A2B",
"w.	c #323F47",
"x.	c #465F6C",
"y.	c #496371",
"z.	c #3E535E",
"A.	c #2A3134",
"B.	c #292A2A",
"C.	c #292A2B",
"D.	c #282A2C",
"E.	c #1E2022",
"F.	c #202123",
"G.	c #212224",
"H.	c #212223",
"I.	c #202121",
"J.	c #202325",
"K.	c #303030",
"L.	c #191615",
"M.	c #2B2928",
"N.	c #340F07",
"O.	c #300700",
"P.	c #260500",
"Q.	c #190200",
"R.	c #100100",
"S.	c #090100",
"T.	c #030000",
"U.	c #11181D",
"V.	c #2D383E",
"W.	c #262B2F",
"X.	c #2E393F",
"Y.	c #2F3B42",
"Z.	c #2A3338",
"`.	c #242628",
" +	c #222A2E",
".+	c #21323C",
"++	c #21333C",
"@+	c #202C32",
"#+	c #242728",
"$+	c #202224",
"%+	c #1D2E38",
"&+	c #1F4052",
"*+	c #1E4256",
"=+	c #1F4355",
"-+	c #1F4255",
";+	c #1E3F52",
">+	c #1B2E38",
",+	c #1F3642",
"'+	c #242629",
")+	c #282727",
"!+	c #2A2929",
"~+	c #1C1B1A",
"{+	c #2F2018",
"]+	c #523628",
"^+	c #81380C",
"/+	c #7D2E04",
"(+	c #712202",
"_+	c #601901",
":+	c #4C1100",
"<+	c #370900",
"[+	c #220300",
"}+	c #070000",
"|+	c #010303",
"1+	c #0C1217",
"2+	c #141B1F",
"3+	c #1A1B1B",
"4+	c #1A1B1C",
"5+	c #1B1B1C",
"6+	c #1C1C1D",
"7+	c #1D1D1E",
"8+	c #1C1E1F",
"9+	c #1D2326",
"0+	c #1B3746",
"a+	c #1D4D66",
"b+	c #1C455B",
"c+	c #1A323F",
"d+	c #1F2427",
"e+	c #222223",
"f+	c #223038",
"g+	c #245B76",
"h+	c #2B7CA5",
"i+	c #2C7FA9",
"j+	c #2C7FA8",
"k+	c #2A78A1",
"l+	c #234D63",
"m+	c #2E3C45",
"n+	c #343F45",
"o+	c #2D2F31",
"p+	c #33312A",
"q+	c #413B2C",
"r+	c #4A432D",
"s+	c #50452D",
"t+	c #52452C",
"u+	c #654A2A",
"v+	c #C3731F",
"w+	c #CB6915",
"x+	c #C3570E",
"y+	c #B44408",
"z+	c #A03505",
"A+	c #872802",
"B+	c #6B1C01",
"C+	c #4D1100",
"D+	c #2D0600",
"E+	c #140100",
"F+	c #020303",
"G+	c #191818",
"H+	c #181B1C",
"I+	c #182A34",
"J+	c #1C3D4E",
"K+	c #1A2F3B",
"L+	c #204051",
"M+	c #2A5971",
"N+	c #1E3A49",
"O+	c #1C2529",
"P+	c #1E1F20",
"Q+	c #232425",
"R+	c #2D3F49",
"S+	c #3D708B",
"T+	c #4483A4",
"U+	c #4484A5",
"V+	c #4483A5",
"W+	c #417D9D",
"X+	c #315366",
"Y+	c #47606E",
"Z+	c #4F6978",
"`+	c #273F4C",
" @	c #2D2F30",
".@	c #33312C",
"+@	c #5D5121",
"@@	c #96822F",
"#@	c #B79D37",
"$@	c #C8A739",
"%@	c #D1A737",
"&@	c #D7A032",
"*@	c #DC962A",
"=@	c #E69124",
"-@	c #E3801D",
";@	c #DB6914",
">@	c #CD540C",
",@	c #BA4207",
"'@	c #A03204",
")@	c #842502",
"!@	c #661901",
"~@	c #440D00",
"{@	c #230400",
"]@	c #1B262D",
"^@	c #205772",
"/@	c #297CA5",
"(@	c #20546F",
"_@	c #2F4755",
":@	c #446274",
"<@	c #29363D",
"[@	c #1D1E1E",
"}@	c #212628",
"|@	c #2C363B",
"1@	c #435762",
"2@	c #72A2BD",
"3@	c #7DB3D0",
"4@	c #7EB2CF",
"5@	c #7EB2D0",
"6@	c #78A9C5",
"7@	c #4E6C7D",
"8@	c #4F6B7B",
"9@	c #567485",
"0@	c #27414F",
"a@	c #26282A",
"b@	c #353535",
"c@	c #42413B",
"d@	c #514C3C",
"e@	c #5B533B",
"f@	c #52482F",
"g@	c #53462D",
"h@	c #55442D",
"i@	c #6E512C",
"j@	c #E9A52E",
"k@	c #F19B28",
"l@	c #EE821D",
"m@	c #E76913",
"n@	c #D8520B",
"o@	c #BD4006",
"p@	c #A23103",
"q@	c #832301",
"r@	c #5B1400",
"s@	c #310700",
"t@	c #205773",
"u@	c #1F546F",
"v@	c #2D4553",
"w@	c #415E6F",
"x@	c #27343B",
"y@	c #2B363B",
"z@	c #51472F",
"A@	c #54442D",
"B@	c #E8A42E",
"C@	c #172A34",
"D@	c #1F3E4F",
"E@	c #27556C",
"F@	c #1D3847",
"G@	c #1C252A",
"H@	c #417C9D",
"I@	c #315365",
"J@	c #46606D",
"K@	c #4F6A78",
"L@	c #283F4C",
"M@	c #5C5121",
"N@	c #95812F",
"O@	c #B49A37",
"P@	c #C6A538",
"Q@	c #D1A637",
"R@	c #D59F32",
"S@	c #DE982A",
"T@	c #E37F1D",
"U@	c #CE540C",
"V@	c #BB4207",
"W@	c #1B1C1D",
"X@	c #1C1D1E",
"Y@	c #1B1D1F",
"Z@	c #1D2225",
"`@	c #1B3645",
" #	c #1B455B",
".#	c #1A3240",
"+#	c #234C62",
"@#	c #344046",
"##	c #2D3032",
"$#	c #403B2C",
"%#	c #4A422D",
"&#	c #4F452D",
"*#	c #C4741F",
"=#	c #872702",
"-#	c #6C1C01",
";#	c #020305",
">#	c #252729",
",#	c #2E3940",
"'#	c #303C43",
")#	c #22292E",
"!#	c #21323B",
"~#	c #202C33",
"{#	c #242729",
"]#	c #282827",
"^#	c #2A2A29",
"/#	c #1D1B1A",
"(#	c #302118",
"_#	c #4C1000",
":#	c #380900",
"<#	c #000101",
"[#	c #323F46",
"}#	c #3E525E",
"|#	c #1A1615",
"1#	c #111010",
"2#	c #2B3539",
"3#	c #2A2E30",
"4#	c #2A3C45",
"5#	c #313F47",
"6#	c #294858",
"7#	c #060607",
"8#	c #080707",
"9#	c #070708",
"0#	c #010203",
"a#	c #030405",
"                                                                                                                                ",
"                                                                                                                                ",
"                                                                                                                                ",
"                                                                                                                                ",
"                                        . + @ + .                                                                               ",
"                                      . # $ % $ & .                                                                             ",
"                                    . # * = - ; $ > .                                                                           ",
"                                  . # , ' ) ! ~ ; $ & .                                                                         ",
"                                  @ * { ] ^ / ( _ : < > .                                                                       ",
"                                [ } | 1 2 3 4 5 6 , 7 $ > .                                                                     ",
"                                [ 8 * 9 ] 0 a b c * - d , > .                                                                   ",
"                                e e # * f g h i % 7 9 j k $ > .                                                                 ",
"                                    . # * = 9 7 < , l { d k $ > .                                                               ",
"                                      . # * = 9 7 < $ l { d k $ > .                                                             ",
"                                        . # * = 9 7 < $ l { d k $ > .                                                           ",
"                                          . # * = 9 7 $ $ l { d k , > .               . + @ @ m @ @ @ @ + .                     ",
"                                            . # * = 9 7 < $ n { { j $ # @ @ @ @ + . . # $ % % % % % % % $ # .                   ",
"                                              . # * = 9 7 < , n - k $ % % o p q i @ r < s n k k k k k n d $ 8                   ",
"                                                . # * = 9 7 < $ , < < t 7 u v w x y : z A B C D D E E F n % @                   ",
"                                                  . # * = 9 7 < % < , * G H I J K L M N O P Q R R S D T n % @                   ",
"                                          . + @ @ @ @ U $ V W k * t k o X Y Z `  ...+.@.#.$.%.R R &.*., d $ +                   ",
"                                        . # , % % % % % % =.= j -.;.>.,.'.'.).!.~.{.].^./.(.S S F ,.k l , # .                   ",
"                                      . # * | - d d j { 9 n 7 _.:.<.[.Y }.}.|.1.|.&.2.3.4.S S F 5.l l , # .                     ",
"                                      + , =.6.9 { { = W ; $ , 7.8.9.0.: : a.o % }.S S S S S F 5.l j < y @ .                     ",
"        . + @ @ @ + .                 + , =.=.- - W 9 ; $ < < , b.c.t t t 7 k t }.R R S S F 5.l - W % % $ # .                   ",
"      . > < d.e.f.>.& .               . # $ < % o - ; $ < < < < $ , * t 7 7 7 , }.R S S F 5.l - { j j =.| $ g.                  ",
"    . h.< h i.j.A ;.$ > k.k.k.k.k.k.k.k.l.m.h.n.o.7 $ < < $ , t t 7 7 , % 5.,.a.F S S F 5.n - { n $ ; = V o.p.q.r.s.            ",
"  t.u.v.v.w.x.y.z.A., % % % B.C.C.B.B.o % % B.D.E.F.G.G.H.I.J.; * < a.K.G G K.o |.F Y a.d { 9 n $ < 7 W L.M.N.O.P.Q.R.S.T.      ",
"  [ U.V.;.W.X.Y.Z.`._ k j H. +.+++@+#+$ t $+%+&+*+=+=+-+;+>+,+'+)+!+o o % * k l < 5.o k j W l , $ $ ; ~+{+]+^+/+(+_+:+<+[+}+s.  ",
"  |+1+2+$ { 3+4+5+6+j 7+8+9+0+a+b+c+d+; e+f+g+h+i+i+i+j+k+l+m+n+o+1.5.< t 7 t $ o a.: % $ - o p+q+r+s+t+u+v+w+x+y+z+A+B+C+D+E+r.",
"    e F+l.6.| G+W W H+I+J+K+L+M+N+O+P+Q+p R+S+T+U+U+U+V+W+X+Y+Z+`+ @% < o : : o : 5.,.1.1.a..@+@@@#@$@%@&@*@=@-@;@>@,@'@)@!@~@{@",
"        @ $ - d d d ]@^@/@(@_@:@<@[@}@|@ .1@2@3@4@5@5@5@6@7@8@9@0@a@o , * : '.b@Y F &.&.E E E c@d@e@f@g@h@i@j@k@l@m@n@o@p@q@r@s@",
"        @ $ - d d d ]@t@/@u@v@w@x@8+}@y@ .1@2@3@4@5@5@5@6@7@8@9@0@a@o , * : '.b@Y F &.&.E E E c@d@e@z@g@A@i@B@k@l@m@n@o@p@q@r@s@",
"    |+[ l.n.| W W W H+C@J+K+D@E@F@G@P+Q+p R+S+T+U+U+U+V+H@I@J@K@L@ @% < o : : o : 5.,.1.1.a..@M@N@O@P@Q@R@S@=@T@;@U@V@'@)@!@~@{@",
"  [ 1+2+$ 5+W@W@5+6+6+X@Y@Z@`@a+ #.#d+7.e+f+g+h+i+i+i+j+k++#m+@###1.5.< t 7 t $ : a.: % $ - o p+$#%#&#t+u+*#w+x+y+z+=#-#C+D+E+r.",
"  ;#U.V.>#W.,#'#A #+_ k j H.)#!#++~##+$ t $+%+&+*+=+=+-+;+>+,+{#]#^#o o % * k l % 5.o k j W l , $ $ ; /#(#]+^+/+(+_+_#:#[+}+s.  ",
"  <#u.v.v.[#x.y.}#A., % % % B.C.C.C.B.o % % B.D.E.F.G.G.H.I.J.; * < a.K.G G K.o |.&.Y a.d { 9 n $ < 7 W |#M.N.O.P.Q.R.S.T.      ",
"    . 1#< h i.j.2#;.$ > k.k.k.k.k.k.k.k.l.m.h.n.o.7 $ < < $ , t t 7 7 , % 5.,.a.F S S F 5.n - { n $ ; = V o.p.q.r.s.            ",
"      . > < d.e.f.>.& .               . # $ < % o - ; $ < < < < $ , * t 7 7 7 , }.R S S F 5.l - { j j =.| , g.                  ",
"        . + @ @ @ + .                 + , =.=.- - W 9 ; $ < < , b.c.t t t 7 k t }.R R S S F 5.l - W % % , # .                   ",
"                                      + , =.6.9 { { = W ; $ , 7.8.9.0.: : a.o % }.S S S S S F 5.l j < U @ .                     ",
"                                      . # * | - d d j { 9 n 7 _.:.<.[.Y }.}.|.1.|.&.2.3.4.S S F 5.l l , # .                     ",
"                                        . # , % % % % % % =.= j -.;.>.,.'.'.).!.~.{.3#^./.(.S S F ,.k l , # .                   ",
"                                          . + @ @ @ @ U $ V W k * t k o X Y Z `  ...+.4##.$.%.R R &.*., d $ +                   ",
"                                                  . # * = 9 7 < % < , * G H I J K L M 5#6#P Q R R S D T n % @                   ",
"                                                . # * = 9 7 < $ , < < t 7 u v w x y : z A B C D D E E F n % @                   ",
"                                              . # * = 9 7 < , n - k $ % % o p q i @ & < s n k k k k k n d $ 7#                  ",
"                                            . # * = 9 7 < $ n { { j $ h.@ @ m 8#+ . . # $ % % % % % % % $ # .                   ",
"                                          . # * = 9 7 $ $ l { d k , > .               . + @ @ @ m m m m 9#.                     ",
"                                        . # * = 9 7 < $ l { d k $ > .                                                           ",
"                                      . # * = 9 7 < $ l { d k $ > .                                                             ",
"                                    . # * = 9 7 < , l { d k $ > .                                                               ",
"                                0#. # * f g h i % 7 9 j k $ > .                                                                 ",
"                                a#m * 9 ] 0 a b c * - d , > .                                                                   ",
"                                [ } | 1 2 3 4 5 6 , 7 $ > .                                                                     ",
"                                  @ * { ] ^ / ( _ : < > .                                                                       ",
"                                  . # , ' ) ! ~ ; $ & .                                                                         ",
"                                    . # * = - ; $ > .                                                                           ",
"                                      . # $ % $ & .                                                                             ",
"                                        . + @ + .                                                                               ",
"                                                                                                                                ",
"                                                                                                                                ",
"                                                                                                                                ",
"                                                                                                                                "};
