/* XPM */
static char * player_down0_xpm[] = {
"64 64 405 2",
"  	c #000000",
". 	c #010000",
"+ 	c #090000",
"@ 	c #0D0100",
"# 	c #060000",
"$ 	c #270500",
"% 	c #370900",
"& 	c #170200",
"* 	c #4D1000",
"= 	c #661900",
"- 	c #340800",
"; 	c #6B1B01",
"> 	c #872501",
", 	c #882501",
"' 	c #040000",
") 	c #270400",
"! 	c #531200",
"~ 	c #862602",
"{ 	c #A33103",
"] 	c #882602",
"^ 	c #0B0100",
"/ 	c #3D0A00",
"( 	c #721E01",
"_ 	c #A33404",
": 	c #C04006",
"< 	c #711E01",
"[ 	c #3C0A00",
"} 	c #140200",
"| 	c #521300",
"1 	c #8D2A02",
"2 	c #BC4207",
"3 	c #D7510A",
"4 	c #260500",
"5 	c #671C01",
"6 	c #A53704",
"7 	c #D0520B",
"8 	c #E76410",
"9 	c #010101",
"0 	c #070808",
"a 	c #070707",
"b 	c #060606",
"c 	c #070606",
"d 	c #120807",
"e 	c #340E07",
"f 	c #762508",
"g 	c #B94409",
"h 	c #DC6613",
"i 	c #E7781C",
"j 	c #E5771C",
"k 	c #B94509",
"l 	c #340D07",
"m 	c #060607",
"n 	c #0C0C0C",
"o 	c #272727",
"p 	c #292929",
"q 	c #292828",
"r 	c #2C2928",
"s 	c #4F2E27",
"t 	c #BC5014",
"u 	c #D9731B",
"v 	c #6D422A",
"w 	c #DA741C",
"x 	c #BD5114",
"y 	c #272626",
"z 	c #1E1E1E",
"A 	c #202020",
"B 	c #262626",
"C 	c #171717",
"D 	c #161515",
"E 	c #201615",
"F 	c #341E18",
"G 	c #653E28",
"H 	c #D98424",
"I 	c #553C2B",
"J 	c #D88324",
"K 	c #351E18",
"L 	c #070708",
"M 	c #3B3B3B",
"N 	c #383838",
"O 	c #1F1F1F",
"P 	c #121212",
"Q 	c #161616",
"R 	c #181818",
"S 	c #1A1919",
"T 	c #1D1A1A",
"U 	c #563F2B",
"V 	c #DB922A",
"W 	c #56402C",
"X 	c #DA912A",
"Y 	c #553F2A",
"Z 	c #111111",
"` 	c #080808",
" .	c #212121",
"..	c #3D3D3D",
"+.	c #3E3E3E",
"@.	c #333333",
"#.	c #282828",
"$.	c #1D1D1D",
"%.	c #222222",
"&.	c #232323",
"*.	c #56432C",
"=.	c #DB9E30",
"-.	c #58452E",
";.	c #57452E",
">.	c #D89C30",
",.	c #55422C",
"'.	c #3F3F3F",
").	c #3C3C3C",
"!.	c #2E2E2E",
"~.	c #191919",
"{.	c #56462D",
"].	c #DAA937",
"^.	c #66563B",
"/.	c #65563B",
"(.	c #D7A636",
"_.	c #55452D",
":.	c #404040",
"<.	c #2D2D2D",
"[.	c #1C1C1C",
"}.	c #1B1B1B",
"|.	c #54472D",
"1.	c #D5AD3B",
"2.	c #63573D",
"3.	c #63563D",
"4.	c #4F452D",
"5.	c #C6A73B",
"6.	c #5C543D",
"7.	c #5C533D",
"8.	c #C5A63B",
"9.	c #3D3D3E",
"0.	c #3E3E3F",
"a.	c #3D3E3F",
"b.	c #1A1A1A",
"c.	c #2F2D2A",
"d.	c #4E452F",
"e.	c #43423D",
"f.	c #3A3B3C",
"g.	c #343E44",
"h.	c #313E44",
"i.	c #3A3D3E",
"j.	c #1A1A19",
"k.	c #23211D",
"l.	c #34312C",
"m.	c #3E3E3D",
"n.	c #1F2020",
"o.	c #2B3439",
"p.	c #294857",
"q.	c #24495B",
"r.	c #2D363B",
"s.	c #3D3E3D",
"t.	c #303030",
"u.	c #294858",
"v.	c #353738",
"w.	c #313F46",
"x.	c #2A3C44",
"y.	c #2F3538",
"z.	c #3B3C3C",
"A.	c #2C2C2C",
"B.	c #2F2F2F",
"C.	c #2A3C45",
"D.	c #313F47",
"E.	c #0E0D0D",
"F.	c #2B2B2B",
"G.	c #393A39",
"H.	c #333536",
"I.	c #292D30",
"J.	c #383939",
"K.	c #393939",
"L.	c #2A2A2A",
"M.	c #2A2E30",
"N.	c #0D0D0D",
"O.	c #2C2E2F",
"P.	c #353536",
"Q.	c #343637",
"R.	c #282929",
"S.	c #2D3338",
"T.	c #293F4C",
"U.	c #2F3438",
"V.	c #303132",
"W.	c #373737",
"X.	c #3A3A3A",
"Y.	c #2D3134",
"Z.	c #48616F",
"`.	c #507082",
" +	c #405662",
".+	c #2D3437",
"++	c #242424",
"@+	c #353535",
"#+	c #080707",
"$+	c #2B2C2D",
"%+	c #373F44",
"&+	c #2C424F",
"*+	c #363E43",
"=+	c #2E3131",
"-+	c #313131",
";+	c #2F3030",
">+	c #3B3C3D",
",+	c #323232",
"'+	c #252525",
")+	c #363636",
"!+	c #101010",
"~+	c #0E0E0E",
"{+	c #272828",
"]+	c #323435",
"^+	c #272829",
"/+	c #252728",
"(+	c #2D3539",
"_+	c #232728",
":+	c #252424",
"<+	c #2A2929",
"[+	c #2D2F30",
"}+	c #26282A",
"|+	c #2A2A29",
"1+	c #252727",
"2+	c #2B3237",
"3+	c #222527",
"4+	c #242425",
"5+	c #282727",
"6+	c #2D2F31",
"7+	c #273F4C",
"8+	c #27414F",
"9+	c #283F4C",
"0+	c #2D3032",
"a+	c #282827",
"b+	c #222324",
"c+	c #212222",
"d+	c #242629",
"e+	c #343F45",
"f+	c #4F6978",
"g+	c #567485",
"h+	c #4F6A78",
"i+	c #344046",
"j+	c #242729",
"k+	c #202325",
"l+	c #1F3642",
"m+	c #2E3C45",
"n+	c #47606E",
"o+	c #4F6B7B",
"p+	c #46606D",
"q+	c #151515",
"r+	c #202121",
"s+	c #1B2E38",
"t+	c #234D63",
"u+	c #315366",
"v+	c #4E6C7D",
"w+	c #315365",
"x+	c #234C62",
"y+	c #212223",
"z+	c #1E3F52",
"A+	c #2A78A1",
"B+	c #417D9D",
"C+	c #78A9C5",
"D+	c #417C9D",
"E+	c #212224",
"F+	c #1F4255",
"G+	c #2C7FA8",
"H+	c #4483A5",
"I+	c #7EB2D0",
"J+	c #1F4355",
"K+	c #2C7FA9",
"L+	c #4484A5",
"M+	c #202123",
"N+	c #232324",
"O+	c #2B2F32",
"P+	c #29292A",
"Q+	c #1E2022",
"R+	c #1E4256",
"S+	c #7EB2CF",
"T+	c #282829",
"U+	c #2F363B",
"V+	c #455E6A",
"W+	c #30373C",
"X+	c #141414",
"Y+	c #282A2C",
"Z+	c #1F4052",
"`+	c #2B7CA5",
" @	c #4483A4",
".@	c #7DB3D0",
"+@	c #2A2E32",
"@@	c #455D6B",
"#@	c #33424A",
"$@	c #455D6A",
"%@	c #272C2F",
"&@	c #131313",
"*@	c #292A2A",
"=@	c #1D2E38",
"-@	c #245B76",
";@	c #3D708B",
">@	c #72A2BD",
",@	c #23292C",
"'@	c #445D6A",
")@	c #303E45",
"!@	c #445C6A",
"~@	c #21262A",
"{@	c #0F0F0F",
"]@	c #202224",
"^@	c #223038",
"/@	c #2D3F49",
"(@	c #435762",
"_@	c #1B1C1C",
":@	c #242A2E",
"<@	c #2E3A40",
"[@	c #191A1A",
"}@	c #0A0A0A",
"|@	c #222223",
"1@	c #1D1F20",
"2@	c #090909",
"3@	c #232425",
"4@	c #2C363B",
"5@	c #2B363B",
"6@	c #242728",
"7@	c #1F2427",
"8@	c #1E1F20",
"9@	c #212628",
"0@	c #030303",
"a@	c #010202",
"b@	c #202C32",
"c@	c #1A323F",
"d@	c #1C2529",
"e@	c #1D1E1E",
"f@	c #1C1E1F",
"g@	c #1C252A",
"h@	c #1A3240",
"i@	c #202C33",
"j@	c #292A2B",
"k@	c #020304",
"l@	c #21333C",
"m@	c #1C455B",
"n@	c #1E3A49",
"o@	c #29363D",
"p@	c #27343B",
"q@	c #1D3847",
"r@	c #1B455B",
"s@	c #010203",
"t@	c #030405",
"u@	c #21323C",
"v@	c #1D4D66",
"w@	c #2A5971",
"x@	c #446274",
"y@	c #415E6F",
"z@	c #27556C",
"A@	c #21323B",
"B@	c #222A2E",
"C@	c #1B3746",
"D@	c #204051",
"E@	c #2F4755",
"F@	c #2D4553",
"G@	c #1F3E4F",
"H@	c #1B3645",
"I@	c #22292E",
"J@	c #1D2326",
"K@	c #1A2F3B",
"L@	c #20546F",
"M@	c #1F546F",
"N@	c #1D2225",
"O@	c #1C3D4E",
"P@	c #297CA5",
"Q@	c #1B1D1F",
"R@	c #1D1D1E",
"S@	c #182A34",
"T@	c #205772",
"U@	c #205773",
"V@	c #172A34",
"W@	c #1C1D1E",
"X@	c #181B1C",
"Y@	c #1B262D",
"Z@	c #1C1C1D",
"`@	c #2A3134",
" #	c #242628",
".#	c #2A2A2B",
"+#	c #3E535E",
"@#	c #2A3338",
"##	c #1B1B1C",
"$#	c #3E525E",
"%#	c #2B3539",
"&#	c #2A2B2C",
"*#	c #303D43",
"=#	c #496371",
"-#	c #2F3B42",
";#	c #1A1B1C",
">#	c #191818",
",#	c #1B1C1D",
"'#	c #303C43",
")#	c #2A2B2B",
"!#	c #2F3A40",
"~#	c #465F6C",
"{#	c #2E393F",
"]#	c #1A1B1B",
"^#	c #2E3940",
"/#	c #323F47",
"(#	c #262B2F",
"_#	c #323F46",
":#	c #282A2B",
"<#	c #252729",
"[#	c #2D383E",
"}#	c #141B1F",
"|#	c #020303",
"1#	c #111010",
"2#	c #0A0B0C",
"3#	c #11181D",
"4#	c #0C1217",
"5#	c #010303",
"6#	c #000001",
"7#	c #020305",
"8#	c #000101",
"                                                                                                                                ",
"                                                          . + @ @ + .                                                           ",
"                                                          # $ % % $ #                                                           ",
"                                                        . & * = = * & .                                                         ",
"                                                      . @ - ; > , ; - @ .                                                       ",
"                                                      ' ) ! ~ { { ] ! ) '                                                       ",
"                                                      ^ / ( _ : : _ < [ ^                                                       ",
"                                                    . } | 1 2 3 3 2 1 | } .                                                     ",
"                                                    # 4 5 6 7 8 8 7 6 5 4 #                                                     ",
"                                9 0 a a b 9     9 c d e f g h i j h k f l d c 9     9 b a a m 9                                 ",
"                              9 n o p p o n 9 9 n o q r s t u v v w x s r q y n 9 9 n o p p o n 9                               ",
"                              b o z A A z B n a o C D E F G H I I J G K E D C B a n B z A A z o L                               ",
"                              a p A M N B O B P p Q R S T U V W W X Y T S R Q p Z B O B N M A p `                               ",
"                              a p  ...+.@. .O #.p $.%.&.%.*.=.-.;.>.,.%.&.%.$.p #.O  .@.+... .p `                               ",
"                              a p  ...'.).!.O $.~.$.o #.o {.].^./.(._.o #.o $.~.$.O !.).'... .p `                               ",
"                              a p  .+.:.:.M <.O [.}.A o o |.1.2.3.1.|.o o A }.[.O <.M :.:.+. .p `                               ",
"                              ` p  .+.:.:.'.M <.O [.}.A B 4.5.6.7.8.4.B A }.[.O <.M '.:.:.+. .p a                               ",
"                              a p  .9.0.a.'.'.M <.O [.b.O c.d.e.e.d.c.O b.[.O <.M '.'.a.0.9. .p a                               ",
"                              a p A f.g.h.i.'.'.M <.A }.j.k.l.m.m.l.k.j.}.A <.M '.'.i.h.g.f.A p a                               ",
"                              b o n.o.p.q.r.s.'.'.M <.z $.o t.....t.o $.z <.M '.'.s.r.q.u.o.n.o b                               ",
"                              9 n #.v.w.x.y.z.'.'.'.M A. .p B.).).B.p  .A.M '.'.'.z.y.C.D.v.#.n 9                               ",
"                                9 E.F.G.H.I.J.'.:.'.'.K.L.F.!.).).!.F.L.K.'.'.:.'.J.M.H.G.F.N.9                                 ",
"                                9 a P O.P.Q.).'.:.:.'.M <.A.<.M M <.A.<.).'.:.:.'.).Q.P.O.P a 9                                 ",
"                                b R.S.T.U.V.W.X.X.X.M W.#.L.F.K.K.F.F.p W.M X.X.X.W.V.U.T.S.R.b                                 ",
"                                a Y.Z.`. +.+B.p ++B A.L.O o L.@+@+L.o O L.A.B ++p B..+ +`.Z.Y.#+                                ",
"                                a $+%+&+*+=+W.L. .&.!.t. .++F.-+-+F.++ .t.!.&. .L.W.=+*+&+%+$+`                                 ",
"                                a L.;+>+K.-+X.A.&.&.<.,+'+&.F.F.F.F.&.'+,+<.&.&.A.X.-+K.>+;+L.a                                 ",
"                                a p &.,+)+-+X.F.++&.p ,+p ++L.'+'+L.++p ,+p &.++F.X.-+)+,+&.p a                                 ",
"                              9 n p ++'+L.!.K.F.++++B t.L.#.#.B B #.#.L.t.B ++++F.K.!.L.'+++p !+9                               ",
"                            9 ~+o o #.B  .{+]+^+++'+&.A.L.<.p L.L.p <.L.A.&.'+++^+]+{+ .B #.o o ~+9                             ",
"                          9 ~+B $. .#.#.++/+(+_+:+B &.#.<+B.[+}+}+[+B.|+#.&.B :+_+(+/+++#.#. .$.B ~+9                           ",
"                        9 ~+o  .}.[.B p '+1+2+3+4+o ++'+5+6+7+8+8+9+0+a+'+++o 4+3+2+1+'+p B [.}. .o ~+9                         ",
"                      9 ~+o  .z }.A o #. .$.b+c+B #.++%.d+e+f+g+g+h+i+j+%.++#.B c+b+$. .#.o A }.z  .o ~+9                       ",
"                    9 ~+o  .z }.A B #.&.~.R &.B #.#.B k+l+m+n+o+o+p+m+l+k+B #.#.B &.R ~.&.#.B A }.z  .o ~+9                     ",
"                  9 ~+o  .z }.O o #.&.b.q+Q A o #.#.o r+s+t+u+v+v+w+x+s+r+o #.#.o A Q q+b.&.#.o O }.z  .o ~+9                   ",
"                9 ~+B  .z }.O o #.&.b.R o p b.%.o #.#.y+z+A+B+C+C+D+A+z+y+#.#.o %.b.p o R b.&.#.o O }.z  .B ~+9                 ",
"              9 ~+o z $.}.O o o &.b.R '+Z p }.~.%.o #.E+F+G+H+I+I+H+G+F+E+#.o %.~.}.p Z '+R b.&.o o O }.$.z o ~+9               ",
"            9 N.#.&.[.b.O o #.&.b.R '+n a p $.R b.%.o E+J+K+L+I+I+L+K+J+E+o %.b.R $.p a n '+R b.&.#.o O b.[.&.#.N.9             ",
"          9 ~+o F.B '+&.B #.&.b.R '+n 9 a p z }.~.[.&.M+J+K+L+I+I+L+K+J+M+&.[.~.}.z p a 9 n '+R b.&.#.B &.'+B F.o ~+9           ",
"        9 N.o %.N+O+P+p #.&.b.R '+n 9   a p z }.[.L.q Q+R+K+L+S+S+L+K+R+Q+q L.[.}.z p a   9 n '+R b.&.#.p P+O+N+%.o N.9         ",
"        b o %.T+U+V+W+R.&.b.R '+n 9     a p [.b.[.p X+Y+Z+`+ @.@.@ @`+Z+Y+X+p [.b.[.p a     9 n '+R b.&.R.W+V+U+T+%.o b         ",
"        a p [.+@@@#@$@%@b.R '+n 9       b B C &@Q #.!+*@=@-@;@>@>@;@-@=@*@!+#.Q &@C B b       9 n '+R b.%@$@#@@@+@[.p a         ",
"        b o R ,@'@)@!@~@R '+n 9         9 n '+Q Q o {@p ]@^@/@(@(@/@^@]@p {@o Q Q '+n 9         9 n '+R ~@!@)@'@,@R o b         ",
"        9 n '+_@:@<@:@[@'+n 9             9 n B B n }@p ++|@$+U.U.$+|@++p }@n B B n 9             9 n '+[@:@<@:@_@'+n 9         ",
"          9 n B }.1@b.'+n 9                 9 b b 9 2@L.o %.3@4@5@3@c+o L.2@9 b b 9                 9 n '+b.1@}.B n 9           ",
"            9 n '+C '+n 9                           2@*@6@7@8@9@9@8@7@6@*@2@                          9 n '+C '+n 9             ",
"              9 a 0@0 a@                            2@*@b@c@d@e@f@g@h@i@j@2@                            9 ` 0@a 9               ",
"                  k@k@a@                            2@j@l@m@n@o@p@q@r@l@j@2@                            s@t@k@                  ",
"                                                    2@j@u@v@w@x@y@z@v@A@j@2@                                                    ",
"                                                    2@*@B@C@D@E@F@G@H@I@*@2@                                                    ",
"                                                    2@p y+J@K@L@M@K@N@y+p 2@                                                    ",
"                                                    2@p $.f@O@P@P@O@Q@$.p 2@                                                    ",
"                                                  9 ~+p  .R@S@T@U@V@W@ .p ~+9                                                   ",
"                                                9 N.o B N+$.X@Y@Y@X@Z@N+B o N.9                                                 ",
"                                                b {+/+`@ #Z@~.z z ~.Z@6@`@/+{+b                                                 ",
"                                                a .#o.+#@###~.z z ~.##o.$#%#.#a                                                 ",
"                                                a &#*#=#-#;#>#z z ~.,#'#=#*#&#a                                                 ",
"                                                a )#!#~#{#]#C [.[.C ,#^#~#!#)#a                                                 ",
"                                                b #.%@/#(#}.&@o o X+##(#_#%@#.b                                                 ",
"                                                9 ~+#.:#/+o }@a a }@o <#:##.~+9                                                 ",
"                                                  9 !+:#[#}#|#    k@}#[#:#1#9                                                   ",
"                                                    9 2#3#4#a@    5#4#3#2#9                                                     ",
"                                                      6#k@5#        k@7#8#                                                      ",
"                                                                                                                                "};
