/* XPM */
static char * tile_xpm[] = {
"64 64 94 2",
"  	c #000000",
". 	c #A6A6A6",
"+ 	c #D9D9D9",
"@ 	c #C3C3C3",
"# 	c #424242",
"$ 	c #D5D5D5",
"% 	c #868686",
"& 	c #707070",
"* 	c #3D3D3D",
"= 	c #9B9B9B",
"- 	c #C1C1C1",
"; 	c #D2D2D2",
"> 	c #D7D7D7",
", 	c #CFCFCF",
"' 	c #B7B7B7",
") 	c #757575",
"! 	c #797979",
"~ 	c #B6B6B6",
"{ 	c #CECECE",
"] 	c #D4D4D4",
"^ 	c #C9C9C9",
"/ 	c #B9B9B9",
"( 	c #888888",
"_ 	c #2E2E2E",
": 	c #747474",
"< 	c #D1D1D1",
"[ 	c #A8A8A8",
"} 	c #A2A2A2",
"| 	c #A1A1A1",
"1 	c #636363",
"2 	c #CBCBCB",
"3 	c #494949",
"4 	c #1C1C1C",
"5 	c #585858",
"6 	c #A9A9A9",
"7 	c #959595",
"8 	c #646464",
"9 	c #B4B4B4",
"0 	c #6B6B6B",
"a 	c #595959",
"b 	c #7D7D7D",
"c 	c #B1B1B1",
"d 	c #999999",
"e 	c #444444",
"f 	c #9F9F9F",
"g 	c #D3D3D3",
"h 	c #323232",
"i 	c #0D0D0D",
"j 	c #616161",
"k 	c #2A2A2A",
"l 	c #818181",
"m 	c #919191",
"n 	c #222222",
"o 	c #A0A0A0",
"p 	c #5E5E5E",
"q 	c #C0C0C0",
"r 	c #838383",
"s 	c #D8D8D8",
"t 	c #ACACAC",
"u 	c #979797",
"v 	c #CACACA",
"w 	c #B0B0B0",
"x 	c #A5A5A5",
"y 	c #AEAEAE",
"z 	c #5D5D5D",
"A 	c #A4A4A4",
"B 	c #C4C4C4",
"C 	c #CCCCCC",
"D 	c #676767",
"E 	c #A3A3A3",
"F 	c #737373",
"G 	c #808080",
"H 	c #6E6E6E",
"I 	c #C2C2C2",
"J 	c #C6C6C6",
"K 	c #383838",
"L 	c #909090",
"M 	c #565656",
"N 	c #353535",
"O 	c #767676",
"P 	c #C8C8C8",
"Q 	c #3A3A3A",
"R 	c #8D8D8D",
"S 	c #474747",
"T 	c #464646",
"U 	c #D0D0D0",
"V 	c #262626",
"W 	c #6C6C6C",
"X 	c #ABABAB",
"Y 	c #929292",
"Z 	c #BBBBBB",
"` 	c #9A9A9A",
" .	c #606060",
"..	c #ADADAD",
"                                                                                                                                ",
"                                                                                                                                ",
"                                                                                                                                ",
"                                                                                                                                ",
"                                                                                                                                ",
"                                                                                                                                ",
"                                                                                                                                ",
"                                                                                                                                ",
"                                                                                                                                ",
"                                                                                                                                ",
"                                                                                                                                ",
"                                                                                                                                ",
"                                                                                                                                ",
"                                                                                                                                ",
"                                                                                                                                ",
"                                                                                                                                ",
"                                                                                                                                ",
"                                                                                                                                ",
"                                                                                                                                ",
"                                                                                                                                ",
"                                                                                                                                ",
"                                        . + @         . + @                                                                     ",
"    # + + + + + + + + + + + + + + + $   . + @         . + @                                                                     ",
"    # + + + + + + + + + + + + + + + $   . + @         . + @                                                                     ",
"                  % + + &                             . + @                                                                     ",
"                  % + + &                             . + @                                                                     ",
"                  % + + &                             . + @                                                                     ",
"                  % + + &               . + @         . + @             * = - ; > , ' )               ! ~ { > ] ^ / ( _         ",
"                  % + + &               . + @         . + @           : < + + + + + + + [           } + + + + + + + + |         ",
"                  % + + &               . + @         . + @         1 ] + 2 ( 3 4 5 6 + + 7       8 + + 9 0 * _ a b c d         ",
"                  % + + &               . + @         . + @         - + , e           f + g h     7 + { i                       ",
"                  % + + &               . + @         . + @       j + + (             k ] + l     m + { n                       ",
"                  % + + &               . + @         . + @       m + + e               - + o     p > + q r *                   ",
"                  % + + &               . + @         . + @       | + + s s s s s + + + + + t       u s + + + v w r 4           ",
"                  % + + &               . + @         . + @       x + + + + + + + + + + + + y         z A B > + + + C D         ",
"                  % + + &               . + @         . + @       7 + ] i                                   _ & E ] + { n       ",
"                  % + + &               . + @         . + @       D + + F                                         G + + H       ",
"                  % + + &               . + @         . + @         I + J K                                       & + + H       ",
"                  % + + &               . + @         . + @         1 ] + C L M n N 5 O x P Q     A ' R D S 4 T r 2 + U V       ",
"                  % + + &               . + @         . + @           W C + + + + + + + + + *     X + + + + + + + + g F         ",
"                  % + + &               . + @         . + @             _ Y Z U > g v Z `  .      N l ..B U > g B | S           ",
"                                                                                                                                ",
"                                                                                                                                ",
"                                                                                                                                ",
"                                                                                                                                ",
"                                                                                                                                ",
"                                                                                                                                ",
"                                                                                                                                ",
"                                                                                                                                ",
"                                                                                                                                ",
"                                                                                                                                ",
"                                                                                                                                ",
"                                                                                                                                ",
"                                                                                                                                ",
"                                                                                                                                ",
"                                                                                                                                ",
"                                                                                                                                ",
"                                                                                                                                ",
"                                                                                                                                ",
"                                                                                                                                ",
"                                                                                                                                ",
"                                                                                                                                ",
"                                                                                                                                ",
"                                                                                                                                "};
