/* XPM */
static char * wall_xpm[] = {
"64 64 653 2",
"  	c #000000",
". 	c #0F0F0F",
"+ 	c #020202",
"@ 	c #0D0D0D",
"# 	c #151515",
"$ 	c #101010",
"% 	c #161616",
"& 	c #535353",
"* 	c #6C6C6C",
"= 	c #595959",
"- 	c #333333",
"; 	c #060606",
"> 	c #252525",
", 	c #434343",
"' 	c #4E4E4E",
") 	c #4B4B4B",
"! 	c #323232",
"~ 	c #171717",
"{ 	c #414141",
"] 	c #5D5D5D",
"^ 	c #7A7A7A",
"/ 	c #7F7F7F",
"( 	c #7B7B7B",
"_ 	c #808080",
": 	c #696969",
"< 	c #555555",
"[ 	c #2B2B2B",
"} 	c #010101",
"| 	c #111111",
"1 	c #222222",
"2 	c #444444",
"3 	c #5A5A5A",
"4 	c #454545",
"5 	c #575757",
"6 	c #747474",
"7 	c #363636",
"8 	c #828282",
"9 	c #797979",
"0 	c #7D7D7D",
"a 	c #787878",
"b 	c #737373",
"c 	c #6E6E6E",
"d 	c #676767",
"e 	c #656565",
"f 	c #1E1E1E",
"g 	c #424242",
"h 	c #565656",
"i 	c #757575",
"j 	c #A4A4A4",
"k 	c #C0C0C0",
"l 	c #939393",
"m 	c #464646",
"n 	c #070707",
"o 	c #1C1C1C",
"p 	c #7C7C7C",
"q 	c #8D8D8D",
"r 	c #8A8A8A",
"s 	c #717171",
"t 	c #5E5E5E",
"u 	c #3A3A3A",
"v 	c #090909",
"w 	c #121212",
"x 	c #616161",
"y 	c #8B8B8B",
"z 	c #9A9A9A",
"A 	c #898989",
"B 	c #9F9F9F",
"C 	c #ADADAD",
"D 	c #9C9C9C",
"E 	c #858585",
"F 	c #7E7E7E",
"G 	c #646464",
"H 	c #6A6A6A",
"I 	c #686868",
"J 	c #2F2F2F",
"K 	c #585858",
"L 	c #767676",
"M 	c #949494",
"N 	c #9E9E9E",
"O 	c #ACACAC",
"P 	c #A6A6A6",
"Q 	c #ABABAB",
"R 	c #BEBEBE",
"S 	c #6D6D6D",
"T 	c #131313",
"U 	c #848484",
"V 	c #6B6B6B",
"W 	c #606060",
"X 	c #525252",
"Y 	c #5F5F5F",
"Z 	c #636363",
"` 	c #393939",
" .	c #040404",
"..	c #353535",
"+.	c #9B9B9B",
"@.	c #A2A2A2",
"#.	c #AFAFAF",
"$.	c #B8B8B8",
"%.	c #BCBCBC",
"&.	c #D1D1D1",
"*.	c #545454",
"=.	c #818181",
"-.	c #777777",
";.	c #4D4D4D",
">.	c #484848",
",.	c #5C5C5C",
"'.	c #3B3B3B",
").	c #3C3C3C",
"!.	c #0B0B0B",
"~.	c #727272",
"{.	c #929292",
"].	c #A1A1A1",
"^.	c #B5B5B5",
"/.	c #B7B7B7",
"(.	c #B9B9B9",
"_.	c #CBCBCB",
":.	c #D7D7D7",
"<.	c #626262",
"[.	c #5B5B5B",
"}.	c #404040",
"|.	c #3F3F3F",
"1.	c #0E0E0E",
"2.	c #4A4A4A",
"3.	c #9D9D9D",
"4.	c #A7A7A7",
"5.	c #B3B3B3",
"6.	c #C2C2C2",
"7.	c #C6C6C6",
"8.	c #BFBFBF",
"9.	c #C9C9C9",
"0.	c #CECECE",
"a.	c #373737",
"b.	c #383838",
"c.	c #3D3D3D",
"d.	c #343434",
"e.	c #909090",
"f.	c #999999",
"g.	c #C7C7C7",
"h.	c #C8C8C8",
"i.	c #BDBDBD",
"j.	c #474747",
"k.	c #515151",
"l.	c #4F4F4F",
"m.	c #2C2C2C",
"n.	c #868686",
"o.	c #8F8F8F",
"p.	c #979797",
"q.	c #C1C1C1",
"r.	c #C4C4C4",
"s.	c #D6D6D6",
"t.	c #D5D5D5",
"u.	c #CCCCCC",
"v.	c #3E3E3E",
"w.	c #181818",
"x.	c #4C4C4C",
"y.	c #2E2E2E",
"z.	c #666666",
"A.	c #8C8C8C",
"B.	c #959595",
"C.	c #A0A0A0",
"D.	c #B2B2B2",
"E.	c #CDCDCD",
"F.	c #DFDFDF",
"G.	c #DCDCDC",
"H.	c #D3D3D3",
"I.	c #A9A9A9",
"J.	c #1A1A1A",
"K.	c #1B1B1B",
"L.	c #050505",
"M.	c #303030",
"N.	c #313131",
"O.	c #030303",
"P.	c #272727",
"Q.	c #888888",
"R.	c #C5C5C5",
"S.	c #DBDBDB",
"T.	c #E6E6E6",
"U.	c #DDDDDD",
"V.	c #292929",
"W.	c #0A0A0A",
"X.	c #191919",
"Y.	c #A5A5A5",
"Z.	c #AEAEAE",
"`.	c #D8D8D8",
" +	c #D0D0D0",
".+	c #212121",
"++	c #202020",
"@+	c #262626",
"#+	c #2D2D2D",
"$+	c #282828",
"%+	c #080808",
"&+	c #919191",
"*+	c #A8A8A8",
"=+	c #C3C3C3",
"-+	c #2A2A2A",
";+	c #B4B4B4",
">+	c #6F6F6F",
",+	c #B1B1B1",
"'+	c #242424",
")+	c #878787",
"!+	c #040303",
"~+	c #707070",
"{+	c #989898",
"]+	c #666462",
"^+	c #ABA8A5",
"/+	c #605E5C",
"(+	c #505050",
"_+	c #0C0B0B",
":+	c #191818",
"<+	c #10100F",
"[+	c #171615",
"}+	c #A09C9A",
"|+	c #B8B4B1",
"1+	c #777472",
"2+	c #0E0D0C",
"3+	c #161615",
"4+	c #444342",
"5+	c #716F6D",
"6+	c #545250",
"7+	c #201F1D",
"8+	c #474644",
"9+	c #65625F",
"0+	c #393735",
"a+	c #3D3B3A",
"b+	c #74706E",
"c+	c #9A9794",
"d+	c #A39F9D",
"e+	c #918E8B",
"f+	c #757270",
"g+	c #5B5958",
"h+	c #0D0D0E",
"i+	c #010000",
"j+	c #383737",
"k+	c #6E6B69",
"l+	c #86827F",
"m+	c #A8A4A0",
"n+	c #CEC9C5",
"o+	c #C2BEBA",
"p+	c #AAA7A4",
"q+	c #989593",
"r+	c #81807F",
"s+	c #5F5E5C",
"t+	c #333231",
"u+	c #020101",
"v+	c #040403",
"w+	c #201F1E",
"x+	c #4A4948",
"y+	c #82807E",
"z+	c #BEB9B7",
"A+	c #C1BCB9",
"B+	c #BFBBB7",
"C+	c #DBD7D3",
"D+	c #D2CECB",
"E+	c #C7C3C0",
"F+	c #C1BDBA",
"G+	c #BCB8B6",
"H+	c #B0ADAB",
"I+	c #9D9B98",
"J+	c #73716E",
"K+	c #424140",
"L+	c #1C1C1B",
"M+	c #121211",
"N+	c #2D2C2B",
"O+	c #615F5E",
"P+	c #9C9997",
"Q+	c #CFCBC8",
"R+	c #E0DCD9",
"S+	c #D7D3D0",
"T+	c #CFCBC9",
"U+	c #D8D5D2",
"V+	c #D5D1CE",
"W+	c #D0CCC9",
"X+	c #C5C1BE",
"Y+	c #BDB9B6",
"Z+	c #BCB8B5",
"`+	c #B1AEAB",
" @	c #ADAAA7",
".@	c #8D8B88",
"+@	c #514F4E",
"@@	c #181716",
"#@	c #5B5A58",
"$@	c #8D8A88",
"%@	c #AFACA9",
"&@	c #CBC7C5",
"*@	c #E9E6E3",
"=@	c #EAE6E3",
"-@	c #E5E1DF",
";@	c #E1DDDA",
">@	c #D9D6D3",
",@	c #D1CDCA",
"'@	c #D4D0CD",
")@	c #B7B3B0",
"!@	c #A09D99",
"~@	c #7D7B77",
"{@	c #4F4D4B",
"]@	c #1A1A19",
"^@	c #161515",
"/@	c #2D2B2B",
"(@	c #6F6C6B",
"_@	c #A6A3A0",
":@	c #C6C2BF",
"<@	c #DFDBD8",
"[@	c #EEEAE7",
"}@	c #E4E0DD",
"|@	c #E2DEDB",
"1@	c #E4E1DE",
"2@	c #DDD9D6",
"3@	c #D6D2CF",
"4@	c #C2BDBA",
"5@	c #C6C1BE",
"6@	c #B7B2AF",
"7@	c #A29E9B",
"8@	c #928F8B",
"9@	c #827F7C",
"0@	c #52514F",
"a@	c #222121",
"b@	c #222221",
"c@	c #605D5C",
"d@	c #A4A19E",
"e@	c #CBC7C4",
"f@	c #EBE7E4",
"g@	c #DAD6D3",
"h@	c #DEDBD8",
"i@	c #DBD7D4",
"j@	c #C9C5C2",
"k@	c #C7C2BF",
"l@	c #C8C3C0",
"m@	c #BCB7B4",
"n@	c #A7A39F",
"o@	c #9C9995",
"p@	c #9E9B97",
"q@	c #827F7D",
"r@	c #464543",
"s@	c #020303",
"t@	c #504F4E",
"u@	c #918F8D",
"v@	c #BEBAB8",
"w@	c #D8D4D1",
"x@	c #E3DFDC",
"y@	c #E7E3E0",
"z@	c #D9D5D2",
"A@	c #CECAC7",
"B@	c #D2CDCA",
"C@	c #CDC8C5",
"D@	c #C2BEBB",
"E@	c #B2AEAB",
"F@	c #A5A19E",
"G@	c #A19F9B",
"H@	c #676663",
"I@	c #151714",
"J@	c #7C7B7A",
"K@	c #BAB7B5",
"L@	c #CDCAC7",
"M@	c #E5E1DE",
"N@	c #CCC8C5",
"O@	c #A6A29F",
"P@	c #B9B5B2",
"Q@	c #CFCAC7",
"R@	c #C9C4C1",
"S@	c #BFBBB8",
"T@	c #B6B2AF",
"U@	c #AAA6A3",
"V@	c #9B9894",
"W@	c #A8A6A1",
"X@	c #858480",
"Y@	c #4E4F4B",
"Z@	c #171716",
"`@	c #646260",
" #	c #C6C2BE",
".#	c #DEDAD7",
"+#	c #DCD8D5",
"@#	c #CFCCC9",
"##	c #ACA9A6",
"$#	c #817D7A",
"%#	c #898582",
"&#	c #9B9794",
"*#	c #B5B1AE",
"=#	c #C0BCB9",
"-#	c #BAB6B3",
";#	c #AEAAA7",
">#	c #979390",
",#	c #827E7B",
"'#	c #878581",
")#	c #7F7C79",
"!#	c #6C6A67",
"~#	c #4D4B49",
"{#	c #0E0D0D",
"]#	c #7D7A78",
"^#	c #B3AFAB",
"/#	c #C5C0BC",
"(#	c #C3BFBC",
"_#	c #E2DFDC",
":#	c #BBB7B4",
"<#	c #969390",
"[#	c #9F9B98",
"}#	c #B1ADAA",
"|#	c #B8B4B2",
"1#	c #B0ACA9",
"2#	c #ABA7A4",
"3#	c #A09C99",
"4#	c #8B8784",
"5#	c #75716E",
"6#	c #706C69",
"7#	c #74706D",
"8#	c #75716F",
"9#	c #5F5D5B",
"0#	c #131312",
"a#	c #535251",
"b#	c #979491",
"c#	c #BDB8B4",
"d#	c #C3BEBA",
"e#	c #9A9693",
"f#	c #E8E4E1",
"g#	c #9D9997",
"h#	c #A29E9C",
"i#	c #A7A3A0",
"j#	c #918D8A",
"k#	c #84807D",
"l#	c #6E6A67",
"m#	c #5D5A58",
"n#	c #131211",
"o#	c #1B1B1A",
"p#	c #767675",
"q#	c #AAA8A5",
"r#	c #C4BFBB",
"s#	c #A9A5A2",
"t#	c #DAD5D2",
"u#	c #AFABA8",
"v#	c #CDC9C6",
"w#	c #9E9A97",
"x#	c #94908D",
"y#	c #787471",
"z#	c #6F6B68",
"A#	c #686461",
"B#	c #6A6663",
"C#	c #676361",
"D#	c #524E4D",
"E#	c #0F0E0E",
"F#	c #525251",
"G#	c #8C8A87",
"H#	c #B3AEAA",
"I#	c #ACA8A5",
"J#	c #B3AFAC",
"K#	c #D0CBC8",
"L#	c #B0ABA8",
"M#	c #B5B0AD",
"N#	c #BEBAB7",
"O#	c #999592",
"P#	c #95918F",
"Q#	c #6C6865",
"R#	c #635F5C",
"S#	c #66625F",
"T#	c #65615E",
"U#	c #4F4C4A",
"V#	c #0E0E0D",
"W#	c #050504",
"X#	c #797673",
"Y#	c #AAA6A2",
"Z#	c #BAB5B2",
"`#	c #C4BFBC",
" $	c #BDB8B5",
".$	c #B4AFAC",
"+$	c #8D8986",
"@$	c #797573",
"#$	c #726E6B",
"$$	c #696562",
"%$	c #625E5B",
"&$	c #494744",
"*$	c #0D0C0B",
"=$	c #726E6D",
"-$	c #A7A29F",
";$	c #CAC6C3",
">$	c #B8B3B0",
",$	c #C3BEBB",
"'$	c #C0BBB8",
")$	c #BFBAB7",
"!$	c #B4B0AD",
"~$	c #A19D9B",
"{$	c #615E5B",
"]$	c #76726F",
"^$	c #777370",
"/$	c #5F5C59",
"($	c #464442",
"_$	c #5F5C5B",
":$	c #94908E",
"<$	c #B9B4B1",
"[$	c #B3AEAB",
"}$	c #908C89",
"|$	c #64615E",
"1$	c #585451",
"2$	c #73706C",
"3$	c #6F6D69",
"4$	c #5E5D59",
"5$	c #3D3C3A",
"6$	c #090908",
"7$	c #605F5E",
"8$	c #8C8A88",
"9$	c #9C9895",
"0$	c #A39F9C",
"a$	c #A4A09D",
"b$	c #83807D",
"c$	c #6D6966",
"d$	c #736F6C",
"e$	c #716E6A",
"f$	c #75736E",
"g$	c #797973",
"h$	c #5D5E5A",
"i$	c #232322",
"j$	c #010102",
"k$	c #3A3837",
"l$	c #686563",
"m$	c #817E7B",
"n$	c #95918E",
"o$	c #A19D9A",
"p$	c #A3A09D",
"q$	c #96928F",
"r$	c #928E8B",
"s$	c #878380",
"t$	c #726F6C",
"u$	c #64605D",
"v$	c #6C6966",
"w$	c #74736E",
"x$	c #787873",
"y$	c #585955",
"z$	c #21201F",
"A$	c #4E4C4A",
"B$	c #767471",
"C$	c #817F7B",
"D$	c #898682",
"E$	c #A8A4A1",
"F$	c #9F9C99",
"G$	c #8F8B88",
"H$	c #7D7976",
"I$	c #5F5B58",
"J$	c #5B5754",
"K$	c #5E5A57",
"L$	c #605C59",
"M$	c #666360",
"N$	c #696864",
"O$	c #5F5F5B",
"P$	c #3E3F3C",
"Q$	c #0D0C0C",
"R$	c #353433",
"S$	c #646360",
"T$	c #74736F",
"U$	c #817E7A",
"V$	c #807C7A",
"W$	c #8C8885",
"X$	c #63605D",
"Y$	c #595552",
"Z$	c #524E4B",
"`$	c #504C49",
" %	c #4F4B48",
".%	c #534F4C",
"+%	c #5A5653",
"@%	c #5D5A57",
"#%	c #53514E",
"$%	c #3A3A37",
"%%	c #1C1C1A",
"&%	c #434441",
"*%	c #5E5F5B",
"=%	c #6A6965",
"-%	c #686561",
";%	c #615D5A",
">%	c #85817E",
",%	c #6B6764",
"'%	c #5C5855",
")%	c #4A4643",
"!%	c #4B4744",
"~%	c #4C4845",
"{%	c #4E4A47",
"]%	c #504C4A",
"^%	c #343230",
"/%	c #868381",
"(%	c #323130",
"_%	c #010201",
":%	c #0F0F0E",
"<%	c #30302E",
"[%	c #43423F",
"}%	c #524F4D",
"|%	c #6B6865",
"1%	c #918D8B",
"2%	c #837F7C",
"3%	c #55514E",
"4%	c #484441",
"5%	c #46423F",
"6%	c #433F3C",
"7%	c #44413E",
"8%	c #4D4946",
"9%	c #3B3736",
"0%	c #161514",
"a%	c #2A2929",
"b%	c #B1ADAB",
"c%	c #373634",
"d%	c #0D0D0B",
"e%	c #282625",
"f%	c #423F3E",
"g%	c #5C5957",
"h%	c #5E5B58",
"i%	c #423E3B",
"j%	c #413D3B",
"k%	c #413E3C",
"l%	c #403F3D",
"m%	c #3F3E3C",
"n%	c #3D3B39",
"o%	c #383634",
"p%	c #2E2C2A",
"q%	c #1A1917",
"r%	c #050404",
"s%	c #888582",
"t%	c #C4C1BE",
"u%	c #9D9A97",
"v%	c #63605E",
"w%	c #191817",
"x%	c #292827",
"y%	c #3E3C3A",
"z%	c #413E3B",
"A%	c #3C3835",
"B%	c #3D3936",
"C%	c #3F3B38",
"D%	c #44403D",
"E%	c #484542",
"F%	c #474543",
"G%	c #3F3F3E",
"H%	c #2E2D2D",
"I%	c #20201F",
"J%	c #191717",
"K%	c #11100F",
"L%	c #030302",
"M%	c #787573",
"N%	c #ADA9A6",
"O%	c #767370",
"P%	c #585552",
"Q%	c #191716",
"R%	c #272523",
"S%	c #312D2B",
"T%	c #36322F",
"U%	c #373431",
"V%	c #383432",
"W%	c #383533",
"X%	c #353332",
"Y%	c #373735",
"Z%	c #070606",
"`%	c #191715",
" &	c #252220",
".&	c #24221F",
"+&	c #1B1817",
"@&	c #0D0B0B",
"#&	c #020201",
"$&	c #0F0E0D",
"%&	c #34312F",
"&&	c #312E2D",
"*&	c #1A1918",
"                                                                                                                                ",
"                                                                                                                                ",
"                                                                                                                                ",
"                                                                                                                                ",
"                                                                                            .                                   ",
"                            + @ # $ +                                                   % & * = - +                             ",
"                        ; # > , ' ) ! ~                                           % { ] ^ / ( _ : < [ +                         ",
"                    } | 1 > 2 3 4 5 6 ( 4 ;                                     7 6 8 9 0 a b c d e 3 f                         ",
"                    } . > g h : i ( j k l m n                                 o p q r a ^ 6 s 0 s * t u v                       ",
"                      w 4 x c y z A B C D l 7                               | s E F 6 ^ s G H c H I t { J n                     ",
"                    } 1 K L r M N j O P Q R S ;                           T G q U 0 c V W X Y Z H I K g ` 1 }                   ",
"                     ...d A +.@.#.$.Q O %.&.A n                           *.=.p E -.H ;.2 >.,.: : X '.'.).` %                   ",
"                    !.g ~.{.].C ^.%./.(._.:._ n                           >.d Z <.[.g - J ).m ;.}.u ` |.).u 1.                  ",
"                  } f 2.6 {.3.4.5.6.7.8.9.0.*                             T <.I K = u ! 7 2 |.'.a.` b.c.|.d.                    ",
"                  T '.[.9 e.f.].^.g.0.h.7.i.&                               j.I k.l.7 J u '.).7 7 u '.u ..>                     ",
"                ; m.& S n.o.p.C q.r.s.t.u.#.v.                              w.x.k.` d.! b.v.u d...7 u u y.1.                    ",
"                % { z./ A.B.C.D.r.E.F.G.H.I.a.            } @ J.K.. L.        | }.` '.d.'.M.N.N.- ..u N.n                       ",
"              O.P.) i Q.{.3.4.^.R.S.T.U.H.@.V.          } n 1 a.b.P.# W.        X.2.) , y.m.[ y.J ..m.@                         ",
"               .V.<.p 8 +.Y.4.Z.8.t.`. +E.q w.          @ .+2 x z.& c.++        } @+x.'.m.#+$+$+[ @+%+                          ",
"              O.{ A E z.&+*+B P D.k %.=+^.[.%+          o ` G r o.^ ] a.            $+J -+y.P.f $                               ",
"              W.K f.U <.e.@.N ;+i.%.5.;+-.w.            [ ' ^ C.Y.r d ).            } v T X.W.}                                 ",
"              v l.A ^ >+p.3.B $.6./.j -.1             } a.x A Q Q Q.Y 7                                                         ",
"               .g 8 ( 3 E +.4.;+,+D H '+              } '.e )+@.N a ;.V.                                        !+              ",
"              + }.)+Q.G ~+o.{+p.n.[..+                } 7 [.b =.9 < #+%                                   O.]+^+/+O.            ",
"              } o *.n.( Z e = 2 P.;                   } [ 2.5 [.(+J             + _+:+<+O.                [+}+|+1+2+            ",
"                  $ ` '.J f W.                          % -+! d.m.%             3+4+5+6+7+                + 8+9+0+O.            ",
"                                                                              a+b+c+d+e+f+g+, h+            i+ .}               ",
"                                                                        ; j+k+l+m+n+o+|+p+q+r+s+t+u+                            ",
"                                                                    v+w+x+y+z+A+B+C+D+E+F+G+H+I+J+K+L++                         ",
"                                                                } M+N+O+P+Q+R+S+T+U+V+W+X+Y+Z+`+ @.@+@@@u+                      ",
"                                                                <+#@$@%@&@*@=@-@;@>@,@'@,@E+F+F+)@!@~@{@]@                      ",
"                                      } ^@!+                  /@(@_@:@V+<@[@}@|@1@2@3@S+D+E+4@5@6@7@8@9@0@a@                    ",
"                                    O.]+^+/+O.              b@c@d@e@2@|@}@f@g@3@h@R+i@V+Q+j@k@l@m@n@o@p@q@r@                    ",
"                                    [+}+|+1+2+            s@t@u@v@e@w@x@}@y@g@V+w@z@A@j@,@S+B@C@D@E@F@7@G@H@I@+                 ",
"                                    + 8+9+0+O.            ! J@K@L@V+z@<@M@;@x@;@N@O@F@P@Q+S+Q@R@S@T@U@V@W@X@Y@Z@+               ",
"                                      i+ .}               `@7@ #D+z@.#R+2@+#2@@###$#%#&#*#=#)@-#P@;#>#,#'#)#!#~#{#              ",
"                                                      + Z@]#^#/#N@(#F+W+_#1@z@:#<#%#[#}#-#|#1#;#2#3#4#5#6#7#8#9#0#              ",
"                                                      <+a#b#c#d#(#2#e#T@;@f#3@T@g#h#Z+,@'@:@E@i#&#j#k#7#l#l#6#m#n#              ",
"                                                      o#p#q#o+r#F+1#[#s#j@t#W+Y+u#}#D@D+g@v#i#w#x#l+y#z#A#B#C#D#E#              ",
"                                                      <+F#G#H#4@(#}#I#J#m@K#C@m@L#M#N#:@(#}#&#O#P#l+5#Q#R#S#T#U#V#              ",
"                                                      W#$+X#Y#c#F+Z+S@S@Z#5@`# $)@.$}#J#E@;#i#+$)#@$5##$B#$$%$&$*$              ",
"                                                          =$-$6@*#;$D+E+>$,$'$)$ $!$1#J#|+T@~$5#{$B#]$^$6#B#/$($_+              ",
"                                                          _$:$U@7@F+j@Y+<$,$m@)@T@[$E@!$P@}#}$|$1$A#5#^$2$3$4$5$6$              ",
"                                                          @+7$8$j#9$9$0$-#D@E@O@i#U@O@a$0$&#b$c$B#6#d$e$f$g$h$i$v+              ",
"                                                          j$k$l$m$}$n$3#*#S@2#o$p$[#q$x#r$s$t$Q#6#B#u$v$w$x$y$!.}               ",
"                                                            z$A$B$C$D$q$O@}#E$F$w#&#G$l+H$z#I$J$K$I$L$M$N$O$P$                  ",
"                                                            Q$R$S$T$~@U$V$s$G$}$W$%#,#d$X$Y$Z$`$ %.%+%@%#%$%%%                  ",
"                                                              Z@&%*%=%-%;%#$>%,#d$Q#,%'% %)%!%~%{%`$Z$]%^%0#                    ",
"                    1.1+/%(%                                  _%:%<%[%}%|%1%&#2%K$3%Z$~%4%5%6%7%8%`$!%9%0%                      ",
"                  a%b%.#v#p$c%                                    d%0%e%f%g%v$h%6%i%6%i%j%k%l%m%n%o%p%q%r%                      ",
"                  s%e@t%Y+u%v%                                        L.w%x%y%z%A%B%C%D%E%F%G%H%I%J%K%L%                        ",
"                  M%>$-#N%O%P%                                            L.Q%R%S%T%U%V%W%X%[ # +       } @ J.K.. L.            ",
"                  w+X#e+c$Y$Y%                                                Z%`% &.&+&@&#&          } n 1 a.b.P.# W.          ",
"                    $&%&&&*&                                                    #&!+O.+ }             @ .+2 x z.& c.++          ",
"                                                1.1+/%(%                                              o ` G r o.^ ] a.          ",
"                                              a%b%.#v#p$c%                                            [ ' ^ C.Y.r d ).          ",
"                                              s%e@t%Y+u%v%                                          } a.x A Q Q Q.Y 7           ",
"                                              M%>$-#N%O%P%                                          } '.e )+@.N a ;.V.          ",
"                                              w+X#e+c$Y$Y%                                          } 7 [.b =.9 < #+%           ",
"                                                $&%&&&*&                                            } [ 2.5 [.(+J               ",
"                                                                                                      % -+! d.m.%               ",
"                                                                                                                                ",
"                                                                                                                                ",
"                                                                                                                                "};
